%TF.GenerationSoftware,KiCad,Pcbnew,8.0.1*%
%TF.CreationDate,2024-11-04T21:37:07-08:00*%
%TF.ProjectId,kasm_pcb_rev2,6b61736d-5f70-4636-925f-726576322e6b,rev?*%
%TF.SameCoordinates,Original*%
%TF.FileFunction,Copper,L6,Bot*%
%TF.FilePolarity,Positive*%
%FSLAX46Y46*%
G04 Gerber Fmt 4.6, Leading zero omitted, Abs format (unit mm)*
G04 Created by KiCad (PCBNEW 8.0.1) date 2024-11-04 21:37:07*
%MOMM*%
%LPD*%
G01*
G04 APERTURE LIST*
G04 Aperture macros list*
%AMRoundRect*
0 Rectangle with rounded corners*
0 $1 Rounding radius*
0 $2 $3 $4 $5 $6 $7 $8 $9 X,Y pos of 4 corners*
0 Add a 4 corners polygon primitive as box body*
4,1,4,$2,$3,$4,$5,$6,$7,$8,$9,$2,$3,0*
0 Add four circle primitives for the rounded corners*
1,1,$1+$1,$2,$3*
1,1,$1+$1,$4,$5*
1,1,$1+$1,$6,$7*
1,1,$1+$1,$8,$9*
0 Add four rect primitives between the rounded corners*
20,1,$1+$1,$2,$3,$4,$5,0*
20,1,$1+$1,$4,$5,$6,$7,0*
20,1,$1+$1,$6,$7,$8,$9,0*
20,1,$1+$1,$8,$9,$2,$3,0*%
G04 Aperture macros list end*
%TA.AperFunction,ComponentPad*%
%ADD10C,4.191000*%
%TD*%
%TA.AperFunction,ComponentPad*%
%ADD11R,1.562100X1.562100*%
%TD*%
%TA.AperFunction,ComponentPad*%
%ADD12C,1.562100*%
%TD*%
%TA.AperFunction,ComponentPad*%
%ADD13C,0.600000*%
%TD*%
%TA.AperFunction,SMDPad,CuDef*%
%ADD14R,4.500000X2.950000*%
%TD*%
%TA.AperFunction,ComponentPad*%
%ADD15R,1.000000X1.000000*%
%TD*%
%TA.AperFunction,ComponentPad*%
%ADD16RoundRect,0.250000X1.330000X1.800000X-1.330000X1.800000X-1.330000X-1.800000X1.330000X-1.800000X0*%
%TD*%
%TA.AperFunction,ComponentPad*%
%ADD17O,3.160000X4.100000*%
%TD*%
%TA.AperFunction,ComponentPad*%
%ADD18C,5.600000*%
%TD*%
%TA.AperFunction,ComponentPad*%
%ADD19C,1.574800*%
%TD*%
%TA.AperFunction,ComponentPad*%
%ADD20C,1.575000*%
%TD*%
%TA.AperFunction,ComponentPad*%
%ADD21C,5.175000*%
%TD*%
%TA.AperFunction,SMDPad,CuDef*%
%ADD22R,2.050000X2.050000*%
%TD*%
%TA.AperFunction,ComponentPad*%
%ADD23C,1.000000*%
%TD*%
%TA.AperFunction,ComponentPad*%
%ADD24R,1.700000X1.700000*%
%TD*%
%TA.AperFunction,ComponentPad*%
%ADD25O,1.700000X1.700000*%
%TD*%
%TA.AperFunction,ViaPad*%
%ADD26C,0.500000*%
%TD*%
%TA.AperFunction,Conductor*%
%ADD27C,0.200000*%
%TD*%
%TA.AperFunction,Conductor*%
%ADD28C,0.300000*%
%TD*%
G04 APERTURE END LIST*
D10*
%TO.P,J4,0,PAD*%
%TO.N,GND*%
X81077400Y-115697000D03*
X128118200Y-115697000D03*
D11*
%TO.P,J4,1,1*%
%TO.N,/Eddy Current Sensors/IN3A*%
X121157800Y-114274600D03*
D12*
%TO.P,J4,2,2*%
%TO.N,unconnected-(J4-Pad2)*%
X118397800Y-114274600D03*
%TO.P,J4,3,3*%
%TO.N,/Eddy Current Sensors/IN2B*%
X115637800Y-114274600D03*
%TO.P,J4,4,4*%
%TO.N,/Eddy Current Sensors/IN1A*%
X112877800Y-114274600D03*
%TO.P,J4,5,5*%
%TO.N,unconnected-(J4-Pad5)*%
X110117800Y-114274600D03*
%TO.P,J4,6,6*%
%TO.N,/Eddy Current Sensors/IN0A*%
X107357800Y-114274600D03*
%TO.P,J4,7,7*%
%TO.N,unconnected-(J4-Pad7)*%
X104597800Y-114274600D03*
%TO.P,J4,8,8*%
%TO.N,/Eddy Current Sensors/IN4A*%
X101837800Y-114274600D03*
%TO.P,J4,9,9*%
%TO.N,unconnected-(J4-Pad9)*%
X99077800Y-114274600D03*
%TO.P,J4,10,10*%
%TO.N,/Eddy Current Sensors/IN5B*%
X96317800Y-114274600D03*
%TO.P,J4,11,11*%
%TO.N,/Eddy Current Sensors/IN6A*%
X93557800Y-114274600D03*
%TO.P,J4,12,12*%
%TO.N,unconnected-(J4-Pad12)*%
X90797800Y-114274600D03*
%TO.P,J4,13,13*%
%TO.N,/Eddy Current Sensors/IN7B*%
X88037800Y-114274600D03*
%TO.P,J4,14,P14*%
%TO.N,/Eddy Current Sensors/IN3B*%
X119777800Y-117119400D03*
%TO.P,J4,15,P15*%
%TO.N,/Eddy Current Sensors/IN2A*%
X117017800Y-117119400D03*
%TO.P,J4,16,P16*%
%TO.N,unconnected-(J4-P16-Pad16)*%
X114257800Y-117119400D03*
%TO.P,J4,17,P17*%
%TO.N,/Eddy Current Sensors/IN1B*%
X111497800Y-117119400D03*
%TO.P,J4,18,P18*%
%TO.N,unconnected-(J4-P18-Pad18)*%
X108737800Y-117119400D03*
%TO.P,J4,19,P19*%
%TO.N,/Eddy Current Sensors/IN0B*%
X105977800Y-117119400D03*
%TO.P,J4,20,P20*%
%TO.N,unconnected-(J4-P20-Pad20)*%
X103217800Y-117119400D03*
%TO.P,J4,21,P21*%
%TO.N,/Eddy Current Sensors/IN4B*%
X100457800Y-117119400D03*
%TO.P,J4,22,P22*%
%TO.N,/Eddy Current Sensors/IN5A*%
X97697800Y-117119400D03*
%TO.P,J4,23,P23*%
%TO.N,unconnected-(J4-P23-Pad23)*%
X94937800Y-117119400D03*
%TO.P,J4,24,P24*%
%TO.N,/Eddy Current Sensors/IN6B*%
X92177800Y-117119400D03*
%TO.P,J4,25,P25*%
%TO.N,/Eddy Current Sensors/IN7A*%
X89417800Y-117119400D03*
%TD*%
D13*
%TO.P,U1,9,GNDPAD*%
%TO.N,GND*%
X119989600Y-91357600D03*
X118789600Y-91357600D03*
X117489600Y-91357600D03*
X116389600Y-91357600D03*
D14*
X118189600Y-91957600D03*
D13*
X119989600Y-92557600D03*
X118789600Y-92557600D03*
X117489600Y-92557600D03*
X116389600Y-92557600D03*
%TD*%
D15*
%TO.P,TP13,1,1*%
%TO.N,GND*%
X110261400Y-90850600D03*
%TD*%
D16*
%TO.P,J1,1,Pin_1*%
%TO.N,+12V*%
X167784000Y-116522600D03*
D17*
%TO.P,J1,2,Pin_2*%
%TO.N,GND*%
X163824000Y-116522600D03*
%TD*%
D15*
%TO.P,TP15,1,1*%
%TO.N,GND*%
X83108800Y-86563200D03*
%TD*%
D18*
%TO.P,H3,1,1*%
%TO.N,GND*%
X81432400Y-58389400D03*
%TD*%
D15*
%TO.P,TP16,1,1*%
%TO.N,GND*%
X144741900Y-115468400D03*
%TD*%
D19*
%TO.P,J6,1,Pin_1*%
%TO.N,SPI6_NSS*%
X134518400Y-118986800D03*
%TO.P,J6,2,Pin_2*%
%TO.N,SPI6_SCK*%
X137058400Y-118986800D03*
%TO.P,J6,3,Pin_3*%
%TO.N,SPI6_MISO*%
X139598400Y-118986800D03*
%TO.P,J6,4,Pin_4*%
%TO.N,SPI6_MOSI*%
X142138400Y-118986800D03*
%TO.P,J6,5,Pin_5*%
%TO.N,GND*%
X144678400Y-118986800D03*
%TO.P,J6,6,Pin_6*%
%TO.N,unconnected-(J6-Pin_6-Pad6)*%
X147218400Y-118986800D03*
%TD*%
D15*
%TO.P,TP14,1,1*%
%TO.N,UART4_TX*%
X83108800Y-78892400D03*
%TD*%
%TO.P,TP5,1,1*%
%TO.N,+1.8V*%
X151638000Y-96062800D03*
%TD*%
%TO.P,TP1,1,1*%
%TO.N,GND*%
X146456400Y-96062800D03*
%TD*%
D20*
%TO.P,J20,1,1*%
%TO.N,HRTIM_CHA1_OUT1*%
X184835800Y-66362800D03*
%TO.P,J20,2,2*%
%TO.N,HRTIM_CHA1_OUT2*%
X184835800Y-68772800D03*
%TO.P,J20,3,3*%
%TO.N,HRTIM_CHA2_OUT1*%
X184835800Y-71182800D03*
%TO.P,J20,4,4*%
%TO.N,HRTIM_CHA2_OUT2*%
X184835800Y-73592800D03*
%TO.P,J20,5,5*%
%TO.N,HRTIM_CHB1_OUT1*%
X184835800Y-76002800D03*
%TO.P,J20,6,6*%
%TO.N,HRTIM_CHB1_OUT2*%
X184835800Y-78412800D03*
%TO.P,J20,7,7*%
%TO.N,TIM8_CH4_OUT1*%
X184835800Y-80822800D03*
%TO.P,J20,8,8*%
%TO.N,TIM8_CH4_OUT2*%
X184835800Y-83232800D03*
%TO.P,J20,9,9*%
%TO.N,TIM2_CH1_OUT1*%
X184835800Y-85642800D03*
%TO.P,J20,10,10*%
%TO.N,TIM2_CH1_OUT2*%
X184835800Y-88052800D03*
%TO.P,J20,11,11*%
%TO.N,TIM5_CH2_OUT1*%
X184835800Y-90462800D03*
%TO.P,J20,12,12*%
%TO.N,TIM5_CH2_OUT2*%
X184835800Y-92872800D03*
%TO.P,J20,13,13*%
%TO.N,HRTIM_CHB2_OUT1*%
X184835800Y-95282800D03*
%TO.P,J20,14,14*%
%TO.N,HRTIM_CHB2_OUT2*%
X184835800Y-97692800D03*
%TO.P,J20,15,15*%
%TO.N,HRTIM_CHC1_OUT1*%
X184835800Y-100102800D03*
%TO.P,J20,16,16*%
%TO.N,HRTIM_CHC1_OUT2*%
X184835800Y-102512800D03*
%TO.P,J20,17,17*%
%TO.N,TIM5_CH3_OUT1*%
X184835800Y-104922800D03*
%TO.P,J20,18,18*%
%TO.N,TIM5_CH3_OUT2*%
X184835800Y-107332800D03*
%TO.P,J20,19,19*%
%TO.N,TIM13_CH1_OUT1*%
X184835800Y-109742800D03*
%TO.P,J20,20,20*%
%TO.N,TIM13_CH1_OUT2*%
X184835800Y-112152800D03*
%TO.P,J20,21,21*%
%TO.N,unconnected-(J20-Pad21)*%
X184835800Y-114562800D03*
%TO.P,J20,22,22*%
%TO.N,HRTIM_CHC2_OUT1*%
X187375800Y-65157800D03*
%TO.P,J20,23,23*%
%TO.N,HRTIM_CHC2_OUT2*%
X187375800Y-67567800D03*
%TO.P,J20,24,24*%
%TO.N,HRTIM_CHD1_OUT1*%
X187375800Y-69977800D03*
%TO.P,J20,25,25*%
%TO.N,HRTIM_CHD1_OUT2*%
X187375800Y-72387800D03*
%TO.P,J20,26,26*%
%TO.N,TIM14_CH1_OUT1*%
X187375800Y-74797800D03*
%TO.P,J20,27,27*%
%TO.N,TIM14_CH1_OUT2*%
X187375800Y-77207800D03*
%TO.P,J20,28,28*%
%TO.N,TIM1_CH1_OUT1*%
X187375800Y-79617800D03*
%TO.P,J20,29,29*%
%TO.N,TIM1_CH1_OUT2*%
X187375800Y-82027800D03*
%TO.P,J20,30,30*%
%TO.N,HRTIM_CHD2_OUT1*%
X187375800Y-84437800D03*
%TO.P,J20,31,31*%
%TO.N,HRTIM_CHD2_OUT2*%
X187375800Y-86847800D03*
%TO.P,J20,32,32*%
%TO.N,TIM4_CH2_OUT1*%
X187375800Y-89257800D03*
%TO.P,J20,33,33*%
%TO.N,TIM4_CH2_OUT2*%
X187375800Y-91667800D03*
%TO.P,J20,34,34*%
%TO.N,TIM1_CH2_OUT1*%
X187375800Y-94077800D03*
%TO.P,J20,35,35*%
%TO.N,TIM1_CH2_OUT2*%
X187375800Y-96487800D03*
%TO.P,J20,36,36*%
%TO.N,TIM1_CH3_OUT1*%
X187375800Y-98897800D03*
%TO.P,J20,37,37*%
%TO.N,TIM1_CH3_OUT2*%
X187375800Y-101307800D03*
%TO.P,J20,38,38*%
%TO.N,TIM16_CH1_OUT1*%
X187375800Y-103717800D03*
%TO.P,J20,39,39*%
%TO.N,TIM16_CH1_OUT2*%
X187375800Y-106127800D03*
%TO.P,J20,40,40*%
%TO.N,TIM15_CH1_OUT1*%
X187375800Y-108537800D03*
%TO.P,J20,41,41*%
%TO.N,TIM15_CH1_OUT2*%
X187375800Y-110947800D03*
%TO.P,J20,42,42*%
%TO.N,unconnected-(J20-Pad42)*%
X187375800Y-113357800D03*
%TO.P,J20,43,43*%
%TO.N,TIM1_CH4_OUT1*%
X189915800Y-66362800D03*
%TO.P,J20,44,44*%
%TO.N,TIM1_CH4_OUT2*%
X189915800Y-68772800D03*
%TO.P,J20,45,45*%
%TO.N,TIM12_CH2_OUT1*%
X189915800Y-71182800D03*
%TO.P,J20,46,46*%
%TO.N,TIM12_CH2_OUT2*%
X189915800Y-73592800D03*
%TO.P,J20,47,47*%
%TO.N,TIM15_CH2_OUT1*%
X189915800Y-76002800D03*
%TO.P,J20,48,48*%
%TO.N,TIM15_CH2_OUT2*%
X189915800Y-78412800D03*
%TO.P,J20,49,49*%
%TO.N,TIM4_CH1_OUT1*%
X189915800Y-80822800D03*
%TO.P,J20,50,50*%
%TO.N,TIM4_CH1_OUT2*%
X189915800Y-83232800D03*
%TO.P,J20,51,51*%
%TO.N,TIM4_CH3_OUT1*%
X189915800Y-85642800D03*
%TO.P,J20,52,52*%
%TO.N,TIM4_CH3_OUT2*%
X189915800Y-88052800D03*
%TO.P,J20,53,53*%
%TO.N,TIM4_CH4_OUT1*%
X189915800Y-90462800D03*
%TO.P,J20,54,54*%
%TO.N,TIM4_CH4_OUT2*%
X189915800Y-92872800D03*
%TO.P,J20,55,55*%
%TO.N,unconnected-(J20-Pad55)*%
X189915800Y-95282800D03*
%TO.P,J20,56,56*%
%TO.N,unconnected-(J20-Pad56)*%
X189915800Y-97692800D03*
%TO.P,J20,57,57*%
%TO.N,unconnected-(J20-Pad57)*%
X189915800Y-100102800D03*
%TO.P,J20,58,58*%
%TO.N,unconnected-(J20-Pad58)*%
X189915800Y-102512800D03*
%TO.P,J20,59,59*%
%TO.N,unconnected-(J20-Pad59)*%
X189915800Y-104922800D03*
%TO.P,J20,60,60*%
%TO.N,unconnected-(J20-Pad60)*%
X189915800Y-107332800D03*
%TO.P,J20,61,61*%
%TO.N,unconnected-(J20-Pad61)*%
X189915800Y-109742800D03*
%TO.P,J20,62,62*%
%TO.N,unconnected-(J20-Pad62)*%
X189915800Y-112152800D03*
D21*
%TO.P,J20,MH1,MH1*%
%TO.N,GND*%
X187375800Y-58109800D03*
%TO.P,J20,MH2,MH2*%
X187375800Y-121610800D03*
%TD*%
D15*
%TO.P,TP7,1,1*%
%TO.N,SPI2_SCK*%
X83108800Y-94250932D03*
%TD*%
D18*
%TO.P,H2,1,1*%
%TO.N,GND*%
X81432400Y-104825800D03*
%TD*%
D15*
%TO.P,TP10,1,1*%
%TO.N,SPI2_MOSI*%
X83108800Y-89204800D03*
%TD*%
%TO.P,TP8,1,1*%
%TO.N,SPI2_NSS*%
X83108800Y-96774000D03*
%TD*%
%TO.P,TP9,1,1*%
%TO.N,SPI2_MISO*%
X83108800Y-91727866D03*
%TD*%
D13*
%TO.P,U2,15,PAD_GND*%
%TO.N,GND*%
X137527600Y-100995000D03*
X138527600Y-100995000D03*
D22*
X138027600Y-100495000D03*
D13*
X137527600Y-99995000D03*
X138527600Y-99995000D03*
%TD*%
D18*
%TO.P,H1,1,1*%
%TO.N,GND*%
X175793400Y-121335800D03*
%TD*%
D15*
%TO.P,TP6,1,1*%
%TO.N,SPI6_MOSI*%
X142201900Y-114452400D03*
%TD*%
D18*
%TO.P,H4,1,1*%
%TO.N,GND*%
X175691800Y-58445400D03*
%TD*%
D23*
%TO.P,TP27,1,1*%
%TO.N,I2C4_SCL*%
X93141800Y-64033400D03*
%TD*%
D15*
%TO.P,TP2,1,1*%
%TO.N,SPI6_SCK*%
X137121900Y-114452400D03*
%TD*%
D24*
%TO.P,J5,1,Pin_1*%
%TO.N,+3.3V*%
X120777000Y-56769000D03*
D25*
%TO.P,J5,2,Pin_2*%
%TO.N,DEBUG_JTCK-SWCLK*%
X118237000Y-56769000D03*
%TO.P,J5,3,Pin_3*%
%TO.N,GND*%
X115697000Y-56769000D03*
%TO.P,J5,4,Pin_4*%
%TO.N,DEBUG_JTMS-SWDIO*%
X113157000Y-56769000D03*
%TO.P,J5,5,Pin_5*%
%TO.N,/MCU/NRST*%
X110617000Y-56769000D03*
%TO.P,J5,6,Pin_6*%
%TO.N,DEBUG_JTDO-SWO*%
X108077000Y-56769000D03*
%TD*%
D24*
%TO.P,J7,1,Pin_1*%
%TO.N,UART4_RX*%
X80137000Y-73609200D03*
D25*
%TO.P,J7,2,Pin_2*%
%TO.N,GND*%
X80137000Y-76149200D03*
%TO.P,J7,3,Pin_3*%
%TO.N,UART4_TX*%
X80137000Y-78689200D03*
%TD*%
D24*
%TO.P,J3,1,Pin_1*%
%TO.N,SPI2_NSS*%
X80137000Y-96748600D03*
D25*
%TO.P,J3,2,Pin_2*%
%TO.N,SPI2_SCK*%
X80137000Y-94208600D03*
%TO.P,J3,3,Pin_3*%
%TO.N,SPI2_MISO*%
X80137000Y-91668600D03*
%TO.P,J3,4,Pin_4*%
%TO.N,SPI2_MOSI*%
X80137000Y-89128600D03*
%TO.P,J3,5,Pin_5*%
%TO.N,GND*%
X80137000Y-86588600D03*
%TO.P,J3,6,Pin_6*%
%TO.N,unconnected-(J3-Pin_6-Pad6)*%
X80137000Y-84048600D03*
%TD*%
D23*
%TO.P,TP26,1,1*%
%TO.N,I2C4_SDA*%
X93141800Y-67843400D03*
%TD*%
D15*
%TO.P,TP17,1,1*%
%TO.N,GND*%
X83108800Y-76149200D03*
%TD*%
%TO.P,TP11,1,1*%
%TO.N,UART4_RX*%
X83108800Y-73406000D03*
%TD*%
%TO.P,TP12,1,1*%
%TO.N,+3.3V*%
X110261400Y-96012000D03*
%TD*%
%TO.P,TP4,1,1*%
%TO.N,SPI6_MISO*%
X139661900Y-115468400D03*
%TD*%
%TO.P,TP3,1,1*%
%TO.N,SPI6_NSS*%
X134581900Y-115214400D03*
%TD*%
D16*
%TO.P,J2,1,Pin_1*%
%TO.N,+12V*%
X157198200Y-116522600D03*
D17*
%TO.P,J2,2,Pin_2*%
%TO.N,GND*%
X153238200Y-116522600D03*
%TD*%
D26*
%TO.N,GND*%
X116357400Y-107137200D03*
%TO.N,+3.3V*%
X131572000Y-113893600D03*
%TO.N,GND*%
X171881800Y-63576200D03*
X101346000Y-59182000D03*
X120218200Y-83515200D03*
X115697000Y-102870000D03*
X142544800Y-78765400D03*
X173685200Y-70408800D03*
X117627400Y-98094800D03*
X162026600Y-112826800D03*
X92684600Y-75717400D03*
X152628600Y-90451400D03*
X148310600Y-84709000D03*
X176022000Y-79554800D03*
X172868500Y-70404000D03*
X152628600Y-68861400D03*
X115138200Y-106095800D03*
X125882400Y-106095800D03*
X135051800Y-78765400D03*
X148437600Y-63100700D03*
X164439600Y-68861400D03*
X115697000Y-99263200D03*
X116255800Y-106095800D03*
X143891000Y-99650800D03*
X125704600Y-83845400D03*
X135204200Y-108000800D03*
X150291800Y-81102200D03*
X137185400Y-106527600D03*
X113766600Y-70612000D03*
X98958400Y-65786000D03*
X90805000Y-103733600D03*
X96774000Y-58547000D03*
X162102800Y-81102200D03*
X128422400Y-102870000D03*
X126212600Y-86156800D03*
X148336000Y-74015600D03*
X160274000Y-73865600D03*
X94996000Y-102209600D03*
X172870700Y-102920800D03*
X108432600Y-87274400D03*
X97155000Y-84658200D03*
X114579400Y-70781900D03*
X157327600Y-90449400D03*
X97663000Y-82575400D03*
X153847800Y-64465200D03*
X133807200Y-78765400D03*
X145034000Y-104292400D03*
X157251400Y-111282200D03*
X116916200Y-96291400D03*
X108000800Y-102108000D03*
X160909000Y-84226400D03*
X165658800Y-97053400D03*
X162102800Y-102235000D03*
X177977800Y-75412600D03*
X146050000Y-108000800D03*
X146354800Y-80340200D03*
X135331200Y-104292400D03*
X146710400Y-111582200D03*
X145034000Y-107416600D03*
X149484300Y-70358000D03*
X171907200Y-105435400D03*
X122021600Y-91694000D03*
X137236200Y-104292400D03*
X164363400Y-111284200D03*
X145516600Y-68859400D03*
X162102800Y-70358000D03*
X110312200Y-70612000D03*
X88392000Y-57023000D03*
X101981000Y-91287600D03*
X137947400Y-58293000D03*
X153847800Y-86055200D03*
X128346200Y-83845400D03*
X148564600Y-111607600D03*
X160274000Y-63576200D03*
X92583000Y-57023000D03*
X165658800Y-86055200D03*
X103378000Y-102463600D03*
X136372600Y-102158800D03*
X97282000Y-86207600D03*
X149468100Y-92056800D03*
X173685200Y-81102200D03*
X172937700Y-112471200D03*
X103124000Y-91236800D03*
X162102800Y-92056800D03*
X164439600Y-79580200D03*
X168986200Y-110977400D03*
X136296400Y-78765400D03*
X117424200Y-102870000D03*
X177317400Y-106583200D03*
X172877700Y-92044800D03*
X158165800Y-102133400D03*
X139217400Y-60198000D03*
X161213800Y-112826800D03*
X89712800Y-100355400D03*
X157327600Y-79578200D03*
X176022000Y-101424200D03*
X160274000Y-105308400D03*
X171856400Y-84727200D03*
X92481400Y-79095600D03*
X171958000Y-73456800D03*
X147904200Y-98577400D03*
X176022000Y-68836000D03*
X97307400Y-74701400D03*
X126009400Y-102870000D03*
X177241200Y-97028000D03*
X165582600Y-106888000D03*
X119253000Y-83997800D03*
X90500200Y-102463600D03*
X127203200Y-107416600D03*
X166227000Y-58089800D03*
X161286100Y-70358000D03*
X115443000Y-108331000D03*
X160147000Y-95885000D03*
X92384000Y-77444600D03*
X171907200Y-95732800D03*
X135382000Y-106527600D03*
X161295300Y-81088800D03*
X108229400Y-104343200D03*
X154228800Y-75285600D03*
X115595400Y-98094800D03*
X117475000Y-108331000D03*
X142824200Y-103047800D03*
X140055600Y-78765400D03*
X128524000Y-106095800D03*
X169748200Y-69570600D03*
X169773600Y-80772000D03*
X145034000Y-105943400D03*
X102590600Y-100355400D03*
X90043000Y-74066400D03*
X173685200Y-92056800D03*
X162518600Y-58445400D03*
X137541000Y-78740000D03*
X176022000Y-90426000D03*
X117424200Y-99263200D03*
X166261300Y-65640700D03*
X150037800Y-98602800D03*
X109537597Y-87350600D03*
X145516600Y-90449400D03*
X89941400Y-73304400D03*
X90449400Y-101574600D03*
X147307300Y-108000800D03*
X103327200Y-101574600D03*
X164439600Y-90451400D03*
X98107403Y-65049400D03*
X142773400Y-98577400D03*
X173761400Y-112471200D03*
X144907000Y-103047800D03*
X103682800Y-103733600D03*
X143891000Y-100736400D03*
X98399600Y-69824600D03*
X142925800Y-105943400D03*
X138811000Y-78765400D03*
X97434400Y-79197200D03*
X161286100Y-103068400D03*
X165658800Y-75184000D03*
X173685200Y-102920800D03*
X152628600Y-79580200D03*
X150291800Y-70358000D03*
X142925800Y-107188000D03*
X93802200Y-74371200D03*
X104267000Y-91236800D03*
X161288300Y-92056800D03*
X100584000Y-58547000D03*
X157327600Y-68859400D03*
X168910000Y-90424000D03*
X127711200Y-86156800D03*
X172861500Y-81076800D03*
X141300200Y-78765400D03*
X137414000Y-108000800D03*
X87833200Y-64490600D03*
X140258800Y-57835800D03*
X178003200Y-65204400D03*
X150291800Y-92056800D03*
X121259600Y-92506800D03*
X149477300Y-81102200D03*
X132537200Y-78740000D03*
X109233367Y-82575400D03*
X170484800Y-101422200D03*
X142925800Y-104292400D03*
X177241200Y-86029800D03*
X148564600Y-108000800D03*
X176098200Y-110979400D03*
X136525000Y-103047800D03*
X164439600Y-101449600D03*
%TO.N,+3.3V*%
X129794000Y-57277000D03*
X122783600Y-83997800D03*
X93649800Y-100355400D03*
X125831600Y-98094800D03*
X92913200Y-101574600D03*
X93954600Y-104463100D03*
X112420400Y-69621400D03*
X109499400Y-109143800D03*
X105791000Y-101574600D03*
X125679200Y-88341200D03*
X128371600Y-91186000D03*
X98221800Y-86182200D03*
X129032000Y-96012000D03*
X101346000Y-60198000D03*
X121419000Y-83515200D03*
X110464600Y-84658200D03*
X129032000Y-93167200D03*
X128524000Y-99263200D03*
X93802200Y-75031600D03*
X97307400Y-65049400D03*
X97180400Y-67741800D03*
X108331000Y-109143800D03*
X129794000Y-58547000D03*
X92837000Y-102463600D03*
X106527600Y-100355400D03*
X125831600Y-99263200D03*
X113817400Y-69621400D03*
X110794800Y-69697600D03*
X92862400Y-81041750D03*
X92760800Y-72720200D03*
X97282000Y-75336400D03*
X110337600Y-87350600D03*
X126542800Y-96012000D03*
X110032800Y-82605571D03*
X105714800Y-102463600D03*
X98463003Y-82575400D03*
X80314800Y-68122800D03*
X97600146Y-69794991D03*
X100584000Y-60706000D03*
X125679200Y-91186000D03*
X84429600Y-68148200D03*
X87833200Y-63423800D03*
X126542800Y-93167200D03*
X128371600Y-88341200D03*
X128524000Y-98094800D03*
X92893900Y-82997550D03*
%TO.N,REF*%
X153263600Y-67284600D03*
X178308000Y-99364800D03*
X177444400Y-77851000D03*
X164109400Y-77673200D03*
X153365200Y-89433400D03*
X154025600Y-79552800D03*
X165227000Y-67005200D03*
X164185600Y-99633000D03*
X177495200Y-67741800D03*
X163957000Y-88671400D03*
X178358800Y-88138000D03*
X153238200Y-57962800D03*
X165261800Y-58648600D03*
X179247800Y-107924600D03*
X164998400Y-109354200D03*
%TO.N,DEBUG_JTMS-SWDIO*%
X109055599Y-70471601D03*
%TO.N,SPI2_MOSI*%
X97561400Y-77698600D03*
X84734400Y-77038200D03*
%TO.N,SPI2_MISO*%
X113131600Y-91719400D03*
%TO.N,SPI2_NSS*%
X111506000Y-93599000D03*
%TO.N,SPI2_SCK*%
X88925400Y-80467200D03*
X88950800Y-93091000D03*
X105816400Y-80238600D03*
%TO.N,UART4_RX*%
X83032600Y-66319400D03*
X108229400Y-66421000D03*
%TO.N,UART4_TX*%
X81940400Y-65735200D03*
X108356400Y-65633600D03*
%TO.N,/Eddy Current Sensors/IN0B*%
X105892600Y-110799600D03*
X99857800Y-110794800D03*
%TO.N,/Eddy Current Sensors/IN0A*%
X99263200Y-112445800D03*
X107340400Y-112599600D03*
%TO.N,/Eddy Current Sensors/IN1B*%
X111420200Y-111399600D03*
X102493800Y-111399600D03*
%TO.N,/Eddy Current Sensors/IN1A*%
X112877600Y-111887000D03*
X101057800Y-111836200D03*
%TO.N,/Eddy Current Sensors/IN2B*%
X115595400Y-110413800D03*
X104931100Y-110194800D03*
%TO.N,/Eddy Current Sensors/IN2A*%
X103276400Y-115671600D03*
%TO.N,/Eddy Current Sensors/IN3B*%
X119761000Y-110972600D03*
X106857800Y-110799600D03*
%TO.N,/Eddy Current Sensors/IN3A*%
X121157800Y-110642400D03*
X105431100Y-109561981D03*
%TO.N,TIM1_CH4_OUT1*%
X145719800Y-59842400D03*
X167843200Y-59842400D03*
X167843200Y-62433200D03*
X145719800Y-67462400D03*
X189941200Y-62738000D03*
%TO.N,TIM1_CH2_OUT1*%
X158637827Y-99808938D03*
X159893000Y-94132400D03*
%TO.N,HRTIM_CHD2_OUT1*%
X158242000Y-84785200D03*
X158267400Y-88798400D03*
%TO.N,TIM1_CH3_OUT2*%
X162788600Y-101981000D03*
%TO.N,HRTIM_CHA1_OUT2*%
X170967400Y-68503800D03*
%TO.N,HRTIM_CHD2_OUT2*%
X162661600Y-86563200D03*
X162636200Y-90220800D03*
X159664400Y-90170000D03*
%TO.N,TIM1_CH1_OUT2*%
X162687000Y-82296000D03*
X162687000Y-79428200D03*
%TO.N,TIM5_CH2_OUT1*%
X182041800Y-88798400D03*
X174903718Y-88793411D03*
X182041800Y-90449400D03*
%TO.N,TIM4_CH4_OUT2*%
X150825200Y-93192600D03*
X180009800Y-93192600D03*
%TO.N,TIM16_CH1_OUT2*%
X181559200Y-110083600D03*
X181559200Y-106222800D03*
X159359600Y-110896400D03*
%TO.N,TIM4_CH3_OUT2*%
X147091400Y-93624400D03*
X191490600Y-94132400D03*
%TO.N,HRTIM_CHB1_OUT1*%
X169748200Y-76022200D03*
X169722800Y-77914801D03*
%TO.N,HRTIM_CHB2_OUT1*%
X169722800Y-95351600D03*
X169722800Y-99669600D03*
%TO.N,TIM14_CH1_OUT2*%
X159029400Y-79502000D03*
%TO.N,TIM4_CH2_OUT1*%
X163169600Y-88849200D03*
%TO.N,TIM8_CH4_OUT2*%
X174574200Y-83235800D03*
X174504775Y-79723637D03*
%TO.N,TIM13_CH1_OUT2*%
X174472600Y-112115600D03*
%TO.N,HRTIM_CHC1_OUT1*%
X175895000Y-100076000D03*
%TO.N,TIM1_CH1_OUT1*%
X163195000Y-77927200D03*
X163220400Y-80213200D03*
%TO.N,TIM2_CH1_OUT1*%
X168884600Y-85344000D03*
X168859200Y-88773000D03*
%TO.N,TIM5_CH2_OUT2*%
X173913800Y-90093800D03*
X181102000Y-89992200D03*
X181102000Y-92837000D03*
%TO.N,TIM4_CH3_OUT1*%
X143789400Y-89484200D03*
X179552600Y-83769200D03*
%TO.N,TIM5_CH3_OUT1*%
X169799000Y-104927400D03*
X169799000Y-109270800D03*
%TO.N,HRTIM_CHC2_OUT2*%
X179527200Y-69900800D03*
X179552600Y-67716400D03*
X159258000Y-68935600D03*
%TO.N,TIM1_CH2_OUT2*%
X162737800Y-96291400D03*
X159486600Y-101142800D03*
X162737800Y-95173800D03*
X160324800Y-95148400D03*
%TO.N,TIM4_CH1_OUT1*%
X182880000Y-78892400D03*
X153339800Y-80086200D03*
%TO.N,TIM4_CH2_OUT2*%
X162814000Y-91541600D03*
%TO.N,TIM15_CH1_OUT1*%
X164414200Y-109804200D03*
%TO.N,TIM1_CH4_OUT2*%
X147243800Y-68986400D03*
X147650200Y-59283600D03*
X169672000Y-59283600D03*
X191135000Y-61696600D03*
X169672000Y-61976000D03*
%TO.N,TIM12_CH2_OUT1*%
X191744600Y-62204600D03*
X172186600Y-62230000D03*
X151434800Y-60325000D03*
X172186600Y-60299600D03*
X191744600Y-71247000D03*
X151409400Y-67208400D03*
%TO.N,HRTIM_CHC2_OUT1*%
X154000200Y-67462400D03*
X157632400Y-67183000D03*
X187375800Y-63119000D03*
X157632400Y-63100700D03*
%TO.N,HRTIM_CHA2_OUT1*%
X175996600Y-67208400D03*
X182219600Y-71170800D03*
X182168800Y-67183000D03*
%TO.N,HRTIM_CHA1_OUT1*%
X169722800Y-66090800D03*
%TO.N,HRTIM_CHB1_OUT2*%
X171170600Y-79121000D03*
%TO.N,HRTIM_CHA2_OUT2*%
X181279800Y-69443600D03*
X174523400Y-69265800D03*
X181279800Y-73609200D03*
%TO.N,TIM13_CH1_OUT1*%
X176072800Y-109372400D03*
%TO.N,TIM2_CH1_OUT2*%
X171018200Y-90906600D03*
X183261000Y-90957400D03*
X183261000Y-88163400D03*
%TO.N,TIM15_CH2_OUT2*%
X147472400Y-82473800D03*
X179273200Y-81635600D03*
X179273200Y-79527400D03*
%TO.N,HRTIM_CHD1_OUT2*%
X162763200Y-68859400D03*
X162788600Y-71882000D03*
%TO.N,TIM15_CH2_OUT1*%
X146266000Y-74581500D03*
%TO.N,TIM5_CH3_OUT2*%
X171272200Y-110591600D03*
X178308000Y-110515400D03*
X178308000Y-107467400D03*
%TO.N,TIM15_CH1_OUT2*%
X162737800Y-111861600D03*
%TO.N,TIM8_CH4_OUT1*%
X175387000Y-80822800D03*
X175336200Y-77876400D03*
%TO.N,TIM1_CH3_OUT1*%
X163136056Y-99890056D03*
%TO.N,TIM4_CH1_OUT2*%
X151180800Y-80492600D03*
%TO.N,TIM12_CH2_OUT2*%
X192303400Y-73583800D03*
X192303400Y-64084200D03*
X150622000Y-68986400D03*
X150825200Y-64287400D03*
%TO.N,TIM16_CH1_OUT1*%
X157835600Y-109601000D03*
X157835600Y-104190800D03*
%TO.N,HRTIM_CHD1_OUT1*%
X163550600Y-67208400D03*
X163550600Y-70104000D03*
%TO.N,TIM4_CH4_OUT1*%
X153060400Y-92633800D03*
%TO.N,TIM14_CH1_OUT1*%
X179984400Y-74676000D03*
X179984400Y-72837800D03*
X158089600Y-77927200D03*
X158089600Y-73006800D03*
%TO.N,HRTIM_CHC1_OUT2*%
X174320200Y-102920800D03*
%TO.N,HRTIM_CHB2_OUT2*%
X171221400Y-101011900D03*
X179273200Y-100965000D03*
X179273200Y-97510600D03*
%TO.N,ACTUATOR_ENABLE_MCU*%
X142570200Y-65601100D03*
X109778800Y-65963800D03*
X143408400Y-96088200D03*
%TO.N,/MCU/BOOT0*%
X100914200Y-66751200D03*
X88569800Y-66751200D03*
%TO.N,TIM2_CH4_LDC*%
X97002600Y-105892600D03*
X110032800Y-105867200D03*
%TO.N,I2C4_SDA*%
X97815400Y-99847400D03*
X95072200Y-99847400D03*
X99796600Y-82270600D03*
X94157800Y-83667600D03*
X110686100Y-99854500D03*
%TO.N,I2C4_SCL*%
X101803200Y-82550000D03*
X98323400Y-100761800D03*
X93522800Y-84251800D03*
X107137200Y-107823000D03*
X111074200Y-107823000D03*
X94589600Y-100761800D03*
X111099600Y-100736400D03*
%TO.N,HRTIM_CHD1_PHASE*%
X114251196Y-77680768D03*
X156921200Y-64795400D03*
X159029400Y-64795400D03*
X156977500Y-77597000D03*
%TO.N,TIM8_CH4_PHASE*%
X103301800Y-82702400D03*
X171831000Y-75405400D03*
X169164000Y-83007200D03*
X169189400Y-75463400D03*
%TO.N,TIM12_CH2*%
X147751800Y-65557400D03*
X143992600Y-80162400D03*
X112979200Y-80182300D03*
X143992600Y-65582800D03*
%TO.N,TIM1_CH2_PHASE*%
X158496000Y-98806000D03*
X99542600Y-63746900D03*
X154686000Y-98806000D03*
X154686000Y-63746900D03*
%TO.N,HRTIM_CHA2*%
X143383000Y-74701400D03*
X143383000Y-65151000D03*
X110236000Y-74701400D03*
X171145200Y-65227200D03*
%TO.N,TIM8_CH4*%
X168122600Y-68605400D03*
X171417500Y-70916800D03*
X168122600Y-70866000D03*
X115943300Y-68718200D03*
%TO.N,TIM15_CH2*%
X146544815Y-72605889D03*
X97383600Y-72517000D03*
%TO.N,TIM16_CH1*%
X100279200Y-70764400D03*
X158496000Y-109067600D03*
X86461600Y-70764400D03*
X155016200Y-104902000D03*
X86512400Y-104876600D03*
X155016200Y-109067600D03*
%TO.N,TIM13_CH1*%
X99814000Y-98952511D03*
X168262200Y-99237800D03*
X171196000Y-107442000D03*
X168351200Y-107442000D03*
%TO.N,TIM5_CH2_PHASE*%
X168362200Y-86156800D03*
X171323043Y-86326752D03*
X97966902Y-73679900D03*
X168362200Y-73456800D03*
%TO.N,HRTIM_CHB1*%
X170205400Y-77348122D03*
X167521700Y-77343000D03*
X116197900Y-67995800D03*
X167487600Y-67995800D03*
%TO.N,HRTIM_CHA1*%
X144653000Y-75826100D03*
X113129318Y-76040500D03*
X170230800Y-66548000D03*
X169164000Y-66522600D03*
X169138600Y-71297800D03*
X144653000Y-71348600D03*
%TO.N,SPI6_MOSI*%
X102314000Y-80010000D03*
X85344000Y-123190000D03*
X85344000Y-80010000D03*
%TO.N,HRTIM_CHD2_PHASE*%
X155346400Y-77063600D03*
X113780953Y-77232019D03*
X155346400Y-86588600D03*
X158673800Y-86588600D03*
%TO.N,HRTIM_CHB2_PHASE*%
X103809800Y-63017400D03*
X170611800Y-95808800D03*
X166674800Y-62611000D03*
X166217600Y-95783400D03*
%TO.N,TIM4_CH2*%
X159359600Y-84302600D03*
X101320600Y-70307200D03*
X87764100Y-70350900D03*
X87764100Y-85217000D03*
%TO.N,HRTIM_CHC1_PHASE*%
X171201683Y-97240700D03*
X167435200Y-79019400D03*
X167435200Y-96926400D03*
X109169200Y-79883000D03*
%TO.N,TIM4_CH3_PHASE*%
X146583400Y-82270600D03*
X107797600Y-81998300D03*
%TO.N,TIM13_CH1_PHASE*%
X171704000Y-106756200D03*
X104825800Y-97434400D03*
X168833800Y-97459800D03*
X168833800Y-106807000D03*
%TO.N,HRTIM_CHC2_PHASE*%
X114808000Y-78105000D03*
X156464000Y-66192400D03*
X158623000Y-66192400D03*
X156464000Y-78105000D03*
%TO.N,TIM4_CH1*%
X147802600Y-76174600D03*
X113234860Y-76879477D03*
%TO.N,TIM4_CH4_PHASE*%
X147931768Y-86156297D03*
X145415000Y-72938600D03*
X97617660Y-73073242D03*
X145415000Y-86004400D03*
%TO.N,SPI6_SCK*%
X99314000Y-96545400D03*
X84709000Y-120446800D03*
X84683600Y-96545400D03*
%TO.N,TIM1_CH1_PHASE*%
X155194000Y-75438000D03*
X160197800Y-75438000D03*
X155194000Y-64770000D03*
X99956100Y-64573900D03*
%TO.N,TIM1_CH1*%
X159035165Y-69492689D03*
X104317800Y-69850000D03*
%TO.N,SPI6_MISO*%
X85852000Y-78232000D03*
X85852000Y-121742200D03*
X102727500Y-78232000D03*
%TO.N,HRTIM_CHD2*%
X117373400Y-65125600D03*
X115290600Y-65201800D03*
X117373400Y-86588600D03*
X157657800Y-86175100D03*
%TO.N,TIM12_CH2_PHASE*%
X103809800Y-75590400D03*
X141376400Y-63195200D03*
X147802600Y-63220600D03*
X141351000Y-75438000D03*
%TO.N,HRTIM_CHB1_PHASE*%
X168681400Y-61925200D03*
X170281600Y-76606400D03*
X104343200Y-61925200D03*
X168760000Y-76606400D03*
%TO.N,HRTIM_CHD1*%
X159664400Y-65640700D03*
X115925600Y-66014600D03*
%TO.N,HRTIM_CHA2_PHASE*%
X171272200Y-61341000D03*
X104800400Y-61290200D03*
%TO.N,TIM1_CH3_PHASE*%
X96164400Y-68884800D03*
X87350600Y-68884800D03*
X159486600Y-95072200D03*
X87325200Y-94996000D03*
%TO.N,SPI6_NSS*%
X98806000Y-97561400D03*
X87147400Y-97586800D03*
X86766400Y-119354600D03*
%TO.N,TIM1_CH4*%
X114942100Y-88976200D03*
X116611400Y-66573400D03*
X106857800Y-88900000D03*
X139166600Y-67030600D03*
X146710400Y-66522600D03*
%TO.N,HRTIM_CHC2*%
X109067600Y-71195400D03*
X142011400Y-67030600D03*
X158165800Y-66649600D03*
X142011400Y-71195400D03*
%TO.N,TIM16_CH1_PHASE*%
X156514800Y-98163900D03*
X158585005Y-108474236D03*
X88177600Y-79596500D03*
X156514800Y-108458000D03*
X106807000Y-79756000D03*
X88163400Y-98425000D03*
%TO.N,TIM15_CH2_PHASE*%
X146989800Y-70154800D03*
X107315000Y-69773800D03*
%TO.N,TIM1_CH2*%
X158038800Y-97028000D03*
X105308400Y-97028000D03*
%TO.N,TIM1_CH3*%
X159080200Y-94107000D03*
X106299000Y-94081600D03*
%TO.N,TIM1_CH4_PHASE*%
X94792800Y-64160400D03*
X147345400Y-64160400D03*
%TO.N,TIM5_CH3_PHASE*%
X147472400Y-72415400D03*
X97332800Y-74093400D03*
X170272043Y-108089071D03*
X168267900Y-72415400D03*
X147497800Y-74168000D03*
X167868600Y-108229400D03*
%TO.N,TIM14_CH1*%
X158623000Y-77444600D03*
X157403800Y-78601200D03*
X100304600Y-79171800D03*
X157559211Y-77449980D03*
%TO.N,TIM4_CH4*%
X145001500Y-76370700D03*
X144983200Y-80695800D03*
X110007400Y-76454000D03*
X147040600Y-80848200D03*
%TO.N,HRTIM_CHA1_PHASE*%
X105283000Y-60876700D03*
X170611800Y-60876700D03*
%TO.N,TIM15_CH1_PHASE*%
X107314000Y-98043000D03*
X112903000Y-103581200D03*
X159537400Y-103606600D03*
X112826800Y-98044000D03*
%TO.N,TIM15_CH1*%
X97374859Y-71686500D03*
X159486600Y-107899200D03*
X155956000Y-107899200D03*
X155950500Y-71901900D03*
%TO.N,TIM4_CH1_PHASE*%
X108280200Y-78613000D03*
X151231600Y-69977000D03*
X147911300Y-72948800D03*
X151231600Y-72948800D03*
X144449800Y-78333600D03*
X144406100Y-69684900D03*
%TO.N,TIM4_CH3*%
X109575600Y-75209400D03*
X145891300Y-75184000D03*
%TO.N,TIM2_CH1*%
X144348200Y-80791900D03*
X169367200Y-88214200D03*
X97612200Y-80695800D03*
X144399000Y-88214200D03*
%TO.N,TIM4_CH2_PHASE*%
X159842200Y-85979000D03*
X157175200Y-88798400D03*
X157200600Y-85717900D03*
X107727500Y-88468200D03*
%TO.N,TIM14_CH1_PHASE*%
X158648400Y-76708000D03*
X165354000Y-77597000D03*
X105816400Y-82575400D03*
X165354000Y-83566000D03*
%TO.N,TIM2_CH1_PHASE*%
X86937100Y-87960200D03*
X170155069Y-87644585D03*
X94818200Y-71247000D03*
X86937100Y-71272400D03*
%TO.N,HRTIM_CHC1*%
X166954200Y-70884300D03*
X167088300Y-97942400D03*
X171119800Y-97942400D03*
X108356400Y-71488400D03*
%TO.N,TIM5_CH2*%
X144881600Y-81305400D03*
X144881600Y-87071200D03*
X98120200Y-81209300D03*
X169519600Y-87071200D03*
%TO.N,HRTIM_CHB2*%
X114528600Y-84175600D03*
X116179600Y-84175600D03*
X112953800Y-74060900D03*
X114528600Y-94633300D03*
X170180000Y-94633300D03*
X116179600Y-74041000D03*
%TO.N,TIM5_CH3*%
X97561400Y-81722800D03*
X170307000Y-108788200D03*
X166674800Y-81838800D03*
X166674800Y-108788200D03*
%TO.N,+1.8V*%
X171660096Y-96656595D03*
X160274000Y-74676000D03*
X148310600Y-85509003D03*
X142544800Y-83845400D03*
X171799288Y-64262000D03*
X135356600Y-57835800D03*
X160475500Y-92056800D03*
X172048700Y-81076800D03*
X171145200Y-81102200D03*
X160473300Y-70358000D03*
X171094400Y-70358000D03*
X159562800Y-81102200D03*
X160202274Y-106305021D03*
X148655300Y-92056800D03*
X160482500Y-81088800D03*
X172124900Y-112471200D03*
X160096200Y-96875600D03*
X132537200Y-83845400D03*
X171145200Y-102920800D03*
X133966857Y-83845400D03*
X159562800Y-102235000D03*
X148361400Y-74777600D03*
X171831000Y-74472800D03*
X160197800Y-85445311D03*
X172055700Y-70404000D03*
X159486600Y-112826800D03*
X136804400Y-60172600D03*
X163229800Y-56718200D03*
X172057900Y-102920800D03*
X137744200Y-57480200D03*
X171881800Y-106146600D03*
X141115142Y-83845400D03*
X148056600Y-100711000D03*
X147853400Y-80162400D03*
X171221400Y-112471200D03*
X148671500Y-70358000D03*
X172064900Y-92044800D03*
X132029200Y-86156800D03*
X138255828Y-83845400D03*
X147751800Y-70358000D03*
X160473300Y-103068400D03*
X135396514Y-83845400D03*
X159562800Y-70358000D03*
X140436600Y-86156800D03*
X134529200Y-86156800D03*
X147751800Y-92056800D03*
X159562800Y-92056800D03*
X136826171Y-83845400D03*
X148361400Y-64160400D03*
X142936600Y-86156800D03*
X160223200Y-64287400D03*
X171653178Y-85825740D03*
X139685485Y-83845400D03*
X148664500Y-81102200D03*
X171145200Y-92056800D03*
X160401000Y-112826800D03*
%TO.N,LDC0_INTB*%
X100812600Y-104267000D03*
X106527600Y-104292400D03*
%TO.N,LDC1_INTB*%
X101346000Y-103479600D03*
X95250000Y-104013000D03*
%TO.N,/Eddy Current Sensors/IN7B*%
X88087200Y-112598200D03*
X92913200Y-112522000D03*
%TO.N,/Eddy Current Sensors/IN5A*%
X88722200Y-110490000D03*
X97688400Y-110448800D03*
%TO.N,/Eddy Current Sensors/IN5B*%
X89687400Y-111048800D03*
X96240600Y-111048800D03*
%TO.N,/Eddy Current Sensors/IN4A*%
X101676200Y-109245400D03*
X87249000Y-109169200D03*
%TO.N,/Eddy Current Sensors/IN6A*%
X91355018Y-113121082D03*
%TO.N,/Eddy Current Sensors/IN4B*%
X100457000Y-109778800D03*
X87655400Y-109728000D03*
%TO.N,/Eddy Current Sensors/IN7A*%
X92326600Y-111887000D03*
X89417800Y-112072000D03*
%TO.N,EN_U13*%
X140462000Y-56896000D03*
X161798000Y-56896000D03*
%TO.N,EN_U16*%
X140462000Y-58801000D03*
X149987000Y-58801000D03*
%TD*%
D27*
%TO.N,REF*%
X165709600Y-67487800D02*
X175639603Y-67487800D01*
X175639603Y-67487800D02*
X175893603Y-67741800D01*
X164576000Y-57962800D02*
X153238200Y-57962800D01*
X165261800Y-58648600D02*
X164576000Y-57962800D01*
X165227000Y-67005200D02*
X165709600Y-67487800D01*
X175893603Y-67741800D02*
X177495200Y-67741800D01*
%TO.N,TIM1_CH4_OUT1*%
X172383997Y-62669000D02*
X172372997Y-62680000D01*
X168090000Y-62680000D02*
X167843200Y-62433200D01*
X172372997Y-62680000D02*
X168090000Y-62680000D01*
X189872200Y-62669000D02*
X172383997Y-62669000D01*
X145719800Y-59842400D02*
X167843200Y-59842400D01*
X189941200Y-62738000D02*
X189872200Y-62669000D01*
%TO.N,TIM1_CH2_OUT1*%
X160274000Y-93751400D02*
X183692800Y-93751400D01*
X183819800Y-93878400D02*
X187176400Y-93878400D01*
X183692800Y-93751400D02*
X183819800Y-93878400D01*
X187176400Y-93878400D02*
X187375800Y-94077800D01*
X159893000Y-94132400D02*
X160274000Y-93751400D01*
%TO.N,HRTIM_CHD2_OUT1*%
X161494597Y-84277200D02*
X187215200Y-84277200D01*
X160986597Y-84785200D02*
X161494597Y-84277200D01*
X158242000Y-84785200D02*
X160986597Y-84785200D01*
X187215200Y-84277200D02*
X187375800Y-84437800D01*
%TO.N,TIM1_CH3_OUT2*%
X176149000Y-101981000D02*
X162788600Y-101981000D01*
X176715000Y-101415000D02*
X176149000Y-101981000D01*
X187268600Y-101415000D02*
X176715000Y-101415000D01*
X187375800Y-101307800D02*
X187268600Y-101415000D01*
%TO.N,HRTIM_CHA1_OUT2*%
X170967400Y-68503800D02*
X171135200Y-68336000D01*
X171135200Y-68336000D02*
X184399000Y-68336000D01*
X184399000Y-68336000D02*
X184835800Y-68772800D01*
%TO.N,HRTIM_CHD2_OUT2*%
X187254000Y-86969600D02*
X187375800Y-86847800D01*
X162719600Y-86621200D02*
X169705997Y-86621200D01*
X159664400Y-90170000D02*
X159715200Y-90220800D01*
X159715200Y-90220800D02*
X162636200Y-90220800D01*
X170054397Y-86969600D02*
X187254000Y-86969600D01*
X162661600Y-86563200D02*
X162719600Y-86621200D01*
X169705997Y-86621200D02*
X170054397Y-86969600D01*
%TO.N,TIM1_CH1_OUT2*%
X162687000Y-82296000D02*
X183743600Y-82296000D01*
X183743600Y-82296000D02*
X183819800Y-82219800D01*
X187183800Y-82219800D02*
X187375800Y-82027800D01*
X183819800Y-82219800D02*
X187183800Y-82219800D01*
%TO.N,TIM5_CH2_OUT1*%
X182055200Y-90462800D02*
X184835800Y-90462800D01*
X174903718Y-88793411D02*
X182036811Y-88793411D01*
X182041800Y-90449400D02*
X182055200Y-90462800D01*
X182036811Y-88793411D02*
X182041800Y-88798400D01*
%TO.N,TIM4_CH4_OUT2*%
X180009800Y-93192600D02*
X150825200Y-93192600D01*
%TO.N,TIM16_CH1_OUT2*%
X171162003Y-110065400D02*
X181541000Y-110065400D01*
X159359600Y-110896400D02*
X159728600Y-110527400D01*
X170700003Y-110527400D02*
X171162003Y-110065400D01*
X181654200Y-106127800D02*
X187375800Y-106127800D01*
X159728600Y-110527400D02*
X170700003Y-110527400D01*
X181541000Y-110065400D02*
X181559200Y-110083600D01*
X181559200Y-106222800D02*
X181654200Y-106127800D01*
%TO.N,TIM4_CH3_OUT2*%
X160883500Y-94183300D02*
X160451800Y-94615000D01*
X170442497Y-94259400D02*
X170366397Y-94183300D01*
X148082000Y-94615000D02*
X147091400Y-93624400D01*
X191490600Y-94132400D02*
X189026800Y-94132400D01*
X187909200Y-95250000D02*
X186588400Y-95250000D01*
X170366397Y-94183300D02*
X160883500Y-94183300D01*
X185597800Y-94259400D02*
X170442497Y-94259400D01*
X189026800Y-94132400D02*
X187909200Y-95250000D01*
X160451800Y-94615000D02*
X148082000Y-94615000D01*
X186588400Y-95250000D02*
X185597800Y-94259400D01*
%TO.N,HRTIM_CHB1_OUT1*%
X184835800Y-76002800D02*
X169767600Y-76002800D01*
X169767600Y-76002800D02*
X169748200Y-76022200D01*
%TO.N,HRTIM_CHB2_OUT1*%
X184835800Y-95282800D02*
X169791600Y-95282800D01*
X169791600Y-95282800D02*
X169722800Y-95351600D01*
%TO.N,TIM14_CH1_OUT2*%
X159029400Y-79502000D02*
X160096200Y-78435200D01*
X160096200Y-78435200D02*
X170586400Y-78435200D01*
X171813800Y-77207800D02*
X187375800Y-77207800D01*
X170586400Y-78435200D02*
X171813800Y-77207800D01*
%TO.N,TIM4_CH2_OUT1*%
X163578200Y-89257800D02*
X163169600Y-88849200D01*
X187375800Y-89257800D02*
X163578200Y-89257800D01*
%TO.N,TIM8_CH4_OUT2*%
X174574200Y-83235800D02*
X174577200Y-83232800D01*
X174577200Y-83232800D02*
X184835800Y-83232800D01*
%TO.N,TIM13_CH1_OUT2*%
X174509800Y-112152800D02*
X174472600Y-112115600D01*
X184835800Y-112152800D02*
X174509800Y-112152800D01*
%TO.N,HRTIM_CHC1_OUT1*%
X175895000Y-100076000D02*
X175921800Y-100102800D01*
X175921800Y-100102800D02*
X184835800Y-100102800D01*
%TO.N,TIM1_CH1_OUT1*%
X183616600Y-80213200D02*
X163220400Y-80213200D01*
X187375800Y-79617800D02*
X187212200Y-79781400D01*
X184048400Y-79781400D02*
X183616600Y-80213200D01*
X187212200Y-79781400D02*
X184048400Y-79781400D01*
%TO.N,TIM2_CH1_OUT1*%
X184537000Y-85344000D02*
X184835800Y-85642800D01*
X168884600Y-85344000D02*
X184537000Y-85344000D01*
%TO.N,TIM5_CH2_OUT2*%
X181137800Y-92872800D02*
X184835800Y-92872800D01*
X173913800Y-90093800D02*
X174031600Y-89976000D01*
X174031600Y-89976000D02*
X181085800Y-89976000D01*
X181102000Y-92837000D02*
X181137800Y-92872800D01*
X181085800Y-89976000D02*
X181102000Y-89992200D01*
%TO.N,TIM4_CH3_OUT1*%
X144671200Y-83116000D02*
X143789400Y-83997800D01*
X179552600Y-83769200D02*
X166801800Y-83769200D01*
X143789400Y-83997800D02*
X143789400Y-89484200D01*
X166801800Y-83769200D02*
X166148600Y-83116000D01*
X166148600Y-83116000D02*
X144671200Y-83116000D01*
%TO.N,TIM5_CH3_OUT1*%
X169803600Y-104922800D02*
X169799000Y-104927400D01*
X184835800Y-104922800D02*
X169803600Y-104922800D01*
%TO.N,HRTIM_CHC2_OUT2*%
X168960101Y-69342000D02*
X159664400Y-69342000D01*
X179527200Y-69900800D02*
X179474000Y-69954000D01*
X187227200Y-67716400D02*
X187375800Y-67567800D01*
X179552600Y-67716400D02*
X187227200Y-67716400D01*
X174373400Y-69954000D02*
X173540000Y-69120600D01*
X169181501Y-69120600D02*
X168960101Y-69342000D01*
X179474000Y-69954000D02*
X174373400Y-69954000D01*
X173540000Y-69120600D02*
X169181501Y-69120600D01*
X159664400Y-69342000D02*
X159258000Y-68935600D01*
%TO.N,TIM1_CH2_OUT2*%
X173210797Y-96487800D02*
X172905797Y-96182800D01*
X172905797Y-96182800D02*
X170898200Y-96182800D01*
X187375800Y-96487800D02*
X173210797Y-96487800D01*
X170898200Y-96182800D02*
X170789600Y-96291400D01*
X170789600Y-96291400D02*
X162737800Y-96291400D01*
X162712400Y-95148400D02*
X162737800Y-95173800D01*
X160324800Y-95148400D02*
X162712400Y-95148400D01*
%TO.N,TIM4_CH1_OUT1*%
X159385000Y-80086200D02*
X160493000Y-78978200D01*
X171475400Y-79705200D02*
X172288200Y-78892400D01*
X165200997Y-79705200D02*
X171475400Y-79705200D01*
X172288200Y-78892400D02*
X182880000Y-78892400D01*
X160493000Y-78978200D02*
X164473997Y-78978200D01*
X153339800Y-80086200D02*
X159385000Y-80086200D01*
X164473997Y-78978200D02*
X165200997Y-79705200D01*
%TO.N,TIM4_CH2_OUT2*%
X187375800Y-91667800D02*
X187198800Y-91490800D01*
X187198800Y-91490800D02*
X162864800Y-91490800D01*
X162864800Y-91490800D02*
X162814000Y-91541600D01*
%TO.N,TIM15_CH1_OUT1*%
X187375800Y-108537800D02*
X172030600Y-108537800D01*
X172030600Y-108537800D02*
X170764200Y-109804200D01*
X170764200Y-109804200D02*
X164414200Y-109804200D01*
%TO.N,TIM1_CH4_OUT2*%
X191135000Y-61696600D02*
X171552997Y-61696600D01*
X171273597Y-61976000D02*
X169672000Y-61976000D01*
X171552997Y-61696600D02*
X171273597Y-61976000D01*
X169672000Y-59283600D02*
X147650200Y-59283600D01*
%TO.N,TIM12_CH2_OUT1*%
X189980000Y-71247000D02*
X189915800Y-71182800D01*
X151434800Y-60325000D02*
X172161200Y-60325000D01*
X172161200Y-60325000D02*
X172186600Y-60299600D01*
X191744600Y-71247000D02*
X189980000Y-71247000D01*
X172186600Y-62230000D02*
X191719200Y-62230000D01*
X191719200Y-62230000D02*
X191744600Y-62204600D01*
%TO.N,HRTIM_CHC2_OUT1*%
X187357500Y-63100700D02*
X157632400Y-63100700D01*
X187375800Y-63119000D02*
X187357500Y-63100700D01*
D28*
%TO.N,HRTIM_CHA2_OUT1*%
X182143400Y-67208400D02*
X182168800Y-67183000D01*
D27*
X175996600Y-67208400D02*
X182143400Y-67208400D01*
X184823800Y-71170800D02*
X184835800Y-71182800D01*
X182219600Y-71170800D02*
X184823800Y-71170800D01*
%TO.N,HRTIM_CHA1_OUT1*%
X184521000Y-66048000D02*
X184835800Y-66362800D01*
X169722800Y-66090800D02*
X169765600Y-66048000D01*
X169765600Y-66048000D02*
X184521000Y-66048000D01*
%TO.N,HRTIM_CHB1_OUT2*%
X171878800Y-78412800D02*
X184835800Y-78412800D01*
X171170600Y-79121000D02*
X171878800Y-78412800D01*
%TO.N,HRTIM_CHA2_OUT2*%
X181296200Y-73592800D02*
X184835800Y-73592800D01*
X174701200Y-69443600D02*
X181279800Y-69443600D01*
X181279800Y-73609200D02*
X181296200Y-73592800D01*
X174523400Y-69265800D02*
X174701200Y-69443600D01*
%TO.N,TIM13_CH1_OUT1*%
X184465400Y-109372400D02*
X184835800Y-109742800D01*
X176072800Y-109372400D02*
X184465400Y-109372400D01*
%TO.N,TIM2_CH1_OUT2*%
X184835800Y-88052800D02*
X183371600Y-88052800D01*
X183210200Y-90906600D02*
X183261000Y-90957400D01*
X183371600Y-88052800D02*
X183261000Y-88163400D01*
X171018200Y-90906600D02*
X183210200Y-90906600D01*
%TO.N,TIM15_CH2_OUT2*%
X161367597Y-82473800D02*
X147472400Y-82473800D01*
X189915800Y-78412800D02*
X186687000Y-78412800D01*
X162452597Y-81388800D02*
X161367597Y-82473800D01*
X185648600Y-79451200D02*
X179349400Y-79451200D01*
X179349400Y-79451200D02*
X179273200Y-79527400D01*
X167107997Y-81635600D02*
X166861197Y-81388800D01*
X186687000Y-78412800D02*
X185648600Y-79451200D01*
X179273200Y-81635600D02*
X167107997Y-81635600D01*
X166861197Y-81388800D02*
X162452597Y-81388800D01*
%TO.N,HRTIM_CHD1_OUT2*%
X168931897Y-72387800D02*
X168426097Y-71882000D01*
X168426097Y-71882000D02*
X162788600Y-71882000D01*
X187375800Y-72387800D02*
X168931897Y-72387800D01*
%TO.N,TIM15_CH2_OUT1*%
X179552600Y-75209400D02*
X180467000Y-75209400D01*
X186156600Y-74980800D02*
X187178600Y-76002800D01*
X146266000Y-74581500D02*
X147224100Y-75539600D01*
X179298600Y-74955400D02*
X179552600Y-75209400D01*
X169061003Y-74955400D02*
X179298600Y-74955400D01*
X187178600Y-76002800D02*
X189915800Y-76002800D01*
X180695600Y-74980800D02*
X186156600Y-74980800D01*
X147224100Y-75539600D02*
X153567003Y-75539600D01*
X153567003Y-75539600D02*
X153915403Y-75888000D01*
X168128403Y-75888000D02*
X169061003Y-74955400D01*
X153915403Y-75888000D02*
X168128403Y-75888000D01*
X180467000Y-75209400D02*
X180695600Y-74980800D01*
%TO.N,TIM5_CH3_OUT2*%
X171348400Y-110515400D02*
X171272200Y-110591600D01*
X178442600Y-107332800D02*
X178308000Y-107467400D01*
X178308000Y-110515400D02*
X171348400Y-110515400D01*
X184835800Y-107332800D02*
X178442600Y-107332800D01*
%TO.N,TIM15_CH1_OUT2*%
X179261198Y-111556800D02*
X164727197Y-111556800D01*
X187375800Y-110947800D02*
X179870198Y-110947800D01*
X164727197Y-111556800D02*
X164422397Y-111861600D01*
X164422397Y-111861600D02*
X162737800Y-111861600D01*
X179870198Y-110947800D02*
X179261198Y-111556800D01*
%TO.N,TIM8_CH4_OUT1*%
X175387000Y-80822800D02*
X184835800Y-80822800D01*
%TO.N,TIM1_CH3_OUT1*%
X164238312Y-98787800D02*
X187265800Y-98787800D01*
X187265800Y-98787800D02*
X187375800Y-98897800D01*
X163136056Y-99890056D02*
X164238312Y-98787800D01*
%TO.N,TIM4_CH1_OUT2*%
X174294800Y-80619600D02*
X174955200Y-81280000D01*
X179086803Y-81185600D02*
X183268200Y-81185600D01*
X183946800Y-81864200D02*
X185801000Y-81864200D01*
X186842400Y-80822800D02*
X187985400Y-80822800D01*
X151180800Y-80492600D02*
X151224400Y-80536200D01*
X189915800Y-82753200D02*
X189915800Y-83232800D01*
X169291000Y-81229200D02*
X170230800Y-81229200D01*
X183268200Y-81185600D02*
X183946800Y-81864200D01*
X162719601Y-80536200D02*
X163260201Y-81076800D01*
X163260201Y-81076800D02*
X169138600Y-81076800D01*
X185801000Y-81864200D02*
X186842400Y-80822800D01*
X151224400Y-80536200D02*
X162719601Y-80536200D01*
X170840400Y-80619600D02*
X174294800Y-80619600D01*
X187985400Y-80822800D02*
X189915800Y-82753200D01*
X170230800Y-81229200D02*
X170840400Y-80619600D01*
X174955200Y-81280000D02*
X178992403Y-81280000D01*
X178992403Y-81280000D02*
X179086803Y-81185600D01*
X169138600Y-81076800D02*
X169291000Y-81229200D01*
%TO.N,TIM12_CH2_OUT2*%
X171978485Y-64719200D02*
X160427797Y-64719200D01*
X160427797Y-64719200D02*
X160409597Y-64737400D01*
X189915800Y-73592800D02*
X192294400Y-73592800D01*
X172613485Y-64084200D02*
X171978485Y-64719200D01*
X154392300Y-64196900D02*
X154210600Y-64015200D01*
X151097400Y-64015200D02*
X150825200Y-64287400D01*
X159758800Y-64737400D02*
X159218300Y-64196900D01*
X192294400Y-73592800D02*
X192303400Y-73583800D01*
X159218300Y-64196900D02*
X154392300Y-64196900D01*
X192303400Y-64084200D02*
X172613485Y-64084200D01*
X160409597Y-64737400D02*
X159758800Y-64737400D01*
X154210600Y-64015200D02*
X151097400Y-64015200D01*
%TO.N,TIM16_CH1_OUT1*%
X160062597Y-103717800D02*
X159589597Y-104190800D01*
X159589597Y-104190800D02*
X157835600Y-104190800D01*
X187375800Y-103717800D02*
X160062597Y-103717800D01*
%TO.N,HRTIM_CHD1_OUT1*%
X173903136Y-69908000D02*
X174353136Y-70358000D01*
X182790300Y-69977800D02*
X187375800Y-69977800D01*
X163550600Y-70104000D02*
X170712003Y-70104000D01*
X174353136Y-70358000D02*
X182410100Y-70358000D01*
X170712003Y-70104000D02*
X170908003Y-69908000D01*
X170908003Y-69908000D02*
X173903136Y-69908000D01*
X182410100Y-70358000D02*
X182790300Y-69977800D01*
%TO.N,TIM4_CH4_OUT1*%
X186664600Y-92887800D02*
X185623200Y-91846400D01*
X188036200Y-92887800D02*
X186664600Y-92887800D01*
X189915800Y-91008200D02*
X188036200Y-92887800D01*
X189915800Y-90462800D02*
X189915800Y-91008200D01*
X181456203Y-91846400D02*
X180668803Y-92633800D01*
X185623200Y-91846400D02*
X181456203Y-91846400D01*
X180668803Y-92633800D02*
X153060400Y-92633800D01*
%TO.N,TIM14_CH1_OUT1*%
X187203200Y-74625200D02*
X180035200Y-74625200D01*
X187375800Y-74797800D02*
X187203200Y-74625200D01*
X179815400Y-73006800D02*
X179984400Y-72837800D01*
X180035200Y-74625200D02*
X179984400Y-74676000D01*
X158089600Y-73006800D02*
X179815400Y-73006800D01*
%TO.N,HRTIM_CHC1_OUT2*%
X174320200Y-102920800D02*
X184427800Y-102920800D01*
X184427800Y-102920800D02*
X184835800Y-102512800D01*
%TO.N,HRTIM_CHB2_OUT2*%
X179291400Y-97492400D02*
X179273200Y-97510600D01*
X184835800Y-97692800D02*
X184635400Y-97492400D01*
X171268300Y-100965000D02*
X179273200Y-100965000D01*
X184635400Y-97492400D02*
X179291400Y-97492400D01*
X171221400Y-101011900D02*
X171268300Y-100965000D01*
%TD*%
M02*
