M48
; DRILL file {KiCad 8.0.1} date 2024-11-04T21:37:07-0800
; FORMAT={-:-/ absolute / inch / decimal}
; #@! TF.CreationDate,2024-11-04T21:37:07-08:00
; #@! TF.GenerationSoftware,Kicad,Pcbnew,8.0.1
; #@! TF.FileFunction,Plated,1,6,PTH
FMAT,2
INCH
; #@! TA.AperFunction,Plated,PTH,ViaDrill
T1C0.0118
; #@! TA.AperFunction,Plated,PTH,ComponentDrill
T2C0.0118
; #@! TA.AperFunction,Plated,PTH,ComponentDrill
T3C0.0197
; #@! TA.AperFunction,Plated,PTH,ComponentDrill
T4C0.0394
; #@! TA.AperFunction,Plated,PTH,ComponentDrill
T5C0.0410
; #@! TA.AperFunction,Plated,PTH,ComponentDrill
T6C0.0413
; #@! TA.AperFunction,Plated,PTH,ComponentDrill
T7C0.0420
; #@! TA.AperFunction,Plated,PTH,ComponentDrill
T8C0.0669
; #@! TA.AperFunction,Plated,PTH,ComponentDrill
T9C0.1250
; #@! TA.AperFunction,Plated,PTH,ComponentDrill
T10C0.1260
; #@! TA.AperFunction,Plated,PTH,ComponentDrill
T11C0.1358
%
G90
G05
T1
X3.162Y-2.682
X3.226Y-2.588
X3.269Y-2.611
X3.324Y-2.683
X3.334Y-3.801
X3.335Y-4.742
X3.336Y-3.033
X3.36Y-3.15
X3.36Y-4.85
X3.38Y-3.08
X3.38Y-4.793
X3.404Y-2.786
X3.406Y-4.129
X3.416Y-4.699
X3.4227Y-2.806
X3.4227Y-3.463
X3.431Y-3.842
X3.435Y-4.298
X3.438Y-3.74
X3.439Y-2.712
X3.451Y-4.32
X3.4553Y-2.7697
X3.4553Y-3.355
X3.458Y-2.497
X3.458Y-2.539
X3.468Y-4.433
X3.471Y-3.875
X3.4716Y-3.1337
X3.48Y-2.245
X3.487Y-2.628
X3.493Y-4.35
X3.501Y-3.168
X3.502Y-3.665
X3.5204Y-4.4123
X3.531Y-4.372
X3.532Y-3.951
X3.541Y-2.886
X3.545Y-2.916
X3.561Y-3.999
X3.563Y-4.034
X3.575Y-4.084
X3.5967Y-4.4536
X3.6349Y-4.405
X3.6372Y-3.049
X3.641Y-3.114
X3.645Y-2.245
X3.649Y-2.981
X3.652Y-2.863
X3.655Y-4.034
X3.656Y-3.1906
X3.6572Y-3.2676
X3.658Y-3.999
X3.658Y-4.43
X3.682Y-3.317
X3.687Y-3.951
X3.693Y-2.928
X3.693Y-2.954
X3.699Y-4.1127
X3.707Y-3.294
X3.724Y-3.967
X3.732Y-2.526
X3.733Y-2.805
X3.74Y-4.024
X3.743Y-3.931
X3.75Y-4.095
X3.786Y-2.712
X3.789Y-4.372
X3.81Y-2.305
X3.819Y-4.169
X3.825Y-3.333
X3.826Y-2.667
X3.83Y-2.966
X3.83Y-3.394
X3.831Y-2.561
X3.831Y-2.941
X3.832Y-2.9171
X3.8337Y-2.8223
X3.834Y-2.855
X3.836Y-3.118
X3.841Y-3.059
X3.841Y-3.2174
X3.8425Y-2.7478
X3.843Y-3.177
X3.8432Y-2.8769
X3.845Y-3.251
X3.846Y-4.3484
X3.851Y-3.931
X3.857Y-2.9008
X3.8625Y-2.561
X3.863Y-3.1972
X3.867Y-3.393
X3.871Y-3.967
X3.874Y-2.749
X3.8765Y-3.251
X3.89Y-3.841
X3.896Y-2.59
X3.908Y-4.427
X3.91Y-3.801
X3.919Y-2.5097
X3.929Y-3.239
X3.9297Y-3.8958
X3.9314Y-4.362
X3.9353Y-2.5423
X3.948Y-2.786
X3.949Y-3.117
X3.955Y-4.322
X3.96Y-2.305
X3.96Y-2.39
X3.969Y-4.105
X3.973Y-2.628
X3.9787Y-4.403
X3.989Y-2.768
X3.99Y-2.33
X3.99Y-2.37
X3.99Y-4.074
X4.003Y-4.301
X4.008Y-3.25
X4.015Y-3.594
X4.0281Y-3.15
X4.0352Y-4.3858
X4.039Y-3.951
X4.0444Y-3.08
X4.06Y-3.592
X4.066Y-4.554
X4.067Y-3.256
X4.068Y-3.999
X4.07Y-4.034
X4.082Y-4.084
X4.087Y-2.481
X4.087Y-2.976
X4.105Y-3.592
X4.107Y-2.75
X4.108Y-2.438
X4.126Y-2.413
X4.127Y-3.836
X4.1311Y-4.3384
X4.145Y-2.3967
X4.146Y-3.82
X4.1508Y-4.3135
X4.162Y-4.034
X4.165Y-3.999
X4.166Y-3.159
X4.166Y-3.251
X4.169Y-4.3622
X4.185Y-3.704
X4.194Y-3.951
X4.194Y-4.106
X4.205Y-3.14
X4.207Y-3.5
X4.207Y-4.3622
X4.218Y-4.245
X4.225Y-3.86
X4.225Y-2.747
X4.226Y-4.4331
X4.2412Y-3.483
X4.244Y-3.2283
X4.252Y-4.02
X4.261Y-2.615
X4.261Y-4.108
X4.263Y-3.095
X4.265Y-4.297
X4.266Y-2.584
X4.266Y-2.8145
X4.269Y-3.436
X4.2935Y-2.7745
X4.294Y-2.803
X4.298Y-3.145
X4.3005Y-3.251
X4.311Y-4.297
X4.3125Y-3.439
X4.314Y-2.961
X4.322Y-2.597
X4.331Y-3.01
X4.332Y-3.2522
X4.332Y-4.168
X4.34Y-2.941
X4.343Y-2.78
X4.344Y-3.439
X4.349Y-3.333
X4.3577Y-3.9313
X4.362Y-2.744
X4.373Y-4.245
X4.374Y-3.966
X4.3866Y-4.3858
X4.39Y-3.685
X4.426Y-2.741
X4.442Y-3.86
X4.444Y-4.405
X4.445Y-4.078
X4.447Y-2.9158
X4.448Y-3.1568
X4.4539Y-2.9937
X4.454Y-3.611
X4.4581Y-3.0268
X4.479Y-2.78
X4.4796Y-3.0406
X4.481Y-2.741
X4.4981Y-3.0583
X4.509Y-3.314
X4.509Y-3.7257
X4.511Y-2.7867
X4.52Y-3.075
X4.5253Y-3.503
X4.533Y-4.177
X4.539Y-2.567
X4.545Y-4.265
X4.551Y-3.862
X4.551Y-4.347
X4.555Y-3.908
X4.555Y-4.05
X4.564Y-2.599
X4.5647Y-2.7054
X4.574Y-2.915
X4.574Y-3.314
X4.5747Y-2.677
X4.577Y-4.177
X4.581Y-4.218
X4.591Y-2.621
X4.603Y-3.791
X4.621Y-2.564
X4.621Y-3.409
X4.623Y-3.908
X4.623Y-4.05
X4.625Y-4.265
X4.631Y-3.862
X4.695Y-3.307
X4.715Y-4.369
X4.733Y-3.288
X4.77Y-4.356
X4.774Y-3.642
X4.7803Y-3.288
X4.804Y-3.61
X4.834Y-3.307
X4.948Y-3.478
X4.948Y-3.59
X4.949Y-3.301
X4.954Y-3.862
X4.954Y-3.908
X4.956Y-4.177
X4.961Y-4.05
X4.969Y-3.392
X4.982Y-3.668
X4.982Y-3.78
X5.008Y-4.229
X5.028Y-3.392
X5.053Y-3.301
X5.054Y-3.478
X5.054Y-3.59
X5.056Y-4.05
X5.06Y-3.862
X5.06Y-3.908
X5.06Y-4.177
X5.08Y-3.668
X5.08Y-3.78
X5.11Y-2.255
X5.11Y-2.305
X5.18Y-4.484
X5.198Y-3.392
X5.218Y-3.1
X5.218Y-3.301
X5.268Y-3.101
X5.2743Y-3.301
X5.2964Y-3.392
X5.317Y-3.101
X5.323Y-4.252
X5.328Y-4.106
X5.329Y-2.277
X5.33Y-4.194
X5.3306Y-3.301
X5.366Y-3.101
X5.369Y-4.022
X5.375Y-4.057
X5.386Y-2.369
X5.3869Y-3.301
X5.401Y-4.194
X5.403Y-4.106
X5.41Y-4.252
X5.415Y-3.1
X5.423Y-2.263
X5.431Y-2.295
X5.4431Y-3.301
X5.465Y-3.101
X5.479Y-2.639
X5.481Y-2.37
X5.4994Y-3.301
X5.514Y-3.101
X5.522Y-2.277
X5.529Y-3.392
X5.53Y-2.24
X5.53Y-2.315
X5.5557Y-3.301
X5.563Y-3.101
X5.565Y-2.97
X5.566Y-2.488
X5.591Y-2.639
X5.591Y-2.803
X5.612Y-3.101
X5.612Y-3.301
X5.613Y-2.5827
X5.621Y-3.881
X5.623Y-4.057
X5.627Y-4.106
X5.627Y-4.171
X5.627Y-4.22
X5.6274Y-3.392
X5.645Y-2.565
X5.645Y-2.941
X5.646Y-3.783
X5.661Y-3.523
X5.665Y-3.9233
X5.665Y-3.966
X5.669Y-2.582
X5.669Y-3.156
X5.683Y-3.1808
X5.685Y-3.473
X5.6853Y-2.7435
X5.687Y-3.084
X5.695Y-2.809
X5.695Y-2.9853
X5.704Y-3.201
X5.704Y-3.428
X5.705Y-4.057
X5.708Y-3.177
X5.7087Y-3.0067
X5.71Y-4.106
X5.71Y-4.171
X5.71Y-4.229
X5.725Y-2.8716
X5.725Y-3.386
X5.729Y-2.711
X5.729Y-3.561
X5.737Y-2.356
X5.737Y-2.656
X5.7438Y-2.96
X5.75Y-4.252
X5.7585Y-2.9363
X5.762Y-3.163
X5.7695Y-2.8585
X5.771Y-3.239
X5.776Y-2.619
X5.776Y-4.393
X5.787Y-2.762
X5.789Y-3.183
X5.791Y-3.686
X5.797Y-2.716
X5.7995Y-4.252
X5.801Y-2.526
X5.806Y-2.851
X5.806Y-3.247
X5.807Y-2.92
X5.813Y-2.334
X5.817Y-2.581
X5.817Y-2.77
X5.817Y-3.6243
X5.819Y-2.489
X5.819Y-2.999
X5.821Y-3.156
X5.823Y-3.881
X5.8233Y-2.872
X5.8241Y-3.392
X5.829Y-3.965
X5.839Y-3.335
X5.839Y-3.3665
X5.84Y-2.914
X5.841Y-2.526
X5.841Y-2.944
X5.844Y-2.4843
X5.849Y-4.252
X5.849Y-4.394
X5.8526Y-3.6243
X5.8529Y-3.193
X5.8532Y-2.77
X5.8846Y-3.6243
X5.8849Y-3.193
X5.8852Y-2.77
X5.905Y-2.315
X5.907Y-3.882
X5.917Y-2.77
X5.917Y-3.193
X5.917Y-3.6243
X5.93Y-2.716
X5.938Y-2.531
X5.938Y-3.669
X5.952Y-3.169
X5.954Y-2.755
X5.954Y-2.872
X5.961Y-2.646
X5.962Y-2.375
X6.009Y-2.7111
X6.009Y-3.1331
X6.009Y-3.5611
X6.026Y-3.647
X6.033Y-2.282
X6.034Y-2.649
X6.037Y-3.153
X6.038Y-3.521
X6.057Y-2.538
X6.057Y-3.388
X6.063Y-2.656
X6.064Y-3.132
X6.072Y-2.964
X6.09Y-2.5097
X6.09Y-3.89
X6.103Y-4.13
X6.103Y-4.294
X6.11Y-2.55
X6.11Y-2.97
X6.116Y-3.034
X6.116Y-3.409
X6.1398Y-2.8308
X6.14Y-4.248
X6.16Y-2.606
X6.16Y-3.075
X6.162Y-3.8647
X6.162Y-4.27
X6.178Y-2.551
X6.1802Y-3.055
X6.188Y-3.496
X6.189Y-3.3747
X6.191Y-4.3812
X6.194Y-2.711
X6.194Y-3.133
X6.194Y-3.561
X6.197Y-3.0945
X6.2031Y-3.0492
X6.206Y-2.4843
X6.206Y-2.645
X6.207Y-3.3927
X6.214Y-4.102
X6.214Y-4.315
X6.222Y-3.82
X6.224Y-2.8743
X6.224Y-3.068
X6.227Y-2.624
X6.227Y-4.021
X6.23Y-3.338
X6.231Y-3.496
X6.24Y-3.89
X6.24Y-4.294
X6.2435Y-4.2706
X6.245Y-2.606
X6.245Y-3.049
X6.2456Y-3.9295
X6.246Y-3.02
X6.247Y-3.409
X6.261Y-2.551
X6.261Y-3.13
X6.2612Y-2.7359
X6.263Y-3.705
X6.27Y-2.714
X6.274Y-3.319
X6.274Y-4.366
X6.279Y-3.743
X6.279Y-3.982
X6.279Y-4.248
X6.279Y-4.442
X6.281Y-4.079
X6.282Y-2.77
X6.282Y-3.193
X6.282Y-3.6243
X6.282Y-4.025
X6.286Y-2.5843
X6.286Y-3.55
X6.293Y-3.385
X6.295Y-3.706
X6.303Y-3.814
X6.305Y-3.775
X6.307Y-2.97
X6.307Y-3.364
X6.3072Y-4.1852
X6.308Y-2.531
X6.31Y-2.503
X6.31Y-2.9081
X6.31Y-2.94
X6.31Y-4.146
X6.312Y-3.746
X6.315Y-4.442
X6.3178Y-2.77
X6.3178Y-4.0578
X6.3179Y-3.6243
X6.3182Y-3.1925
X6.335Y-3.316
X6.347Y-4.442
X6.3498Y-2.77
X6.3498Y-4.0578
X6.3499Y-3.6243
X6.3502Y-3.1925
X6.37Y-2.24
X6.379Y-4.442
X6.382Y-2.77
X6.382Y-3.193
X6.382Y-3.6243
X6.382Y-4.025
X6.3984Y-2.301
X6.403Y-3.552
X6.404Y-3.408
X6.405Y-3.1271
X6.405Y-3.24
X6.407Y-3.747
X6.407Y-3.791
X6.407Y-4.404
X6.408Y-2.711
X6.409Y-2.83
X6.409Y-4.015
X6.41Y-3.604
X6.4227Y-3.9327
X6.424Y-3.498
X6.425Y-3.068
X6.426Y-3.158
X6.4264Y-2.233
X6.439Y-2.646
X6.439Y-2.76
X6.455Y-3.491
X6.461Y-3.058
X6.464Y-3.9226
X6.471Y-4.3813
X6.473Y-4.323
X6.474Y-2.7111
X6.474Y-3.1331
X6.474Y-3.5611
X6.474Y-3.9941
X6.496Y-4.3053
X6.505Y-2.638
X6.5064Y-2.309
X6.51Y-3.055
X6.51Y-3.29
X6.519Y-4.2082
X6.522Y-2.96
X6.522Y-3.388
X6.522Y-3.821
X6.544Y-3.771
X6.5444Y-2.287
X6.5457Y-2.5843
X6.562Y-2.465
X6.562Y-3.222
X6.562Y-4.283
X6.573Y-2.7907
X6.5783Y-3.856
X6.5919Y-3.111
X6.5919Y-3.816
X6.594Y-2.677
X6.5953Y-3.045
X6.608Y-2.356
X6.608Y-2.458
X6.609Y-4.261
X6.619Y-2.701
X6.619Y-2.79
X6.6245Y-3.907
X6.6247Y-2.851
X6.628Y-4.23
X6.6284Y-2.892
X6.6284Y-3.392
X6.641Y-2.438
X6.6441Y-3.016
X6.647Y-3.837
X6.647Y-4.205
X6.648Y-3.495
X6.649Y-3.36
X6.65Y-3.56
X6.653Y-4.3692
X6.659Y-2.807
X6.66Y-2.619
X6.66Y-3.268
X6.661Y-2.971
X6.668Y-3.473
X6.674Y-3.428
X6.68Y-2.334
X6.68Y-2.44
X6.682Y-2.602
X6.682Y-3.0675
X6.682Y-3.754
X6.682Y-3.924
X6.683Y-2.739
X6.683Y-2.993
X6.684Y-3.18
X6.685Y-4.131
X6.685Y-4.302
X6.699Y-3.4506
X6.7Y-3.7257
X6.701Y-3.0452
X6.702Y-2.62
X6.7036Y-4.2555
X6.704Y-3.016
X6.705Y-4.283
X6.712Y-3.993
X6.717Y-2.3967
X6.717Y-3.772
X6.731Y-2.697
X6.733Y-3.579
X6.736Y-2.77
X6.737Y-3.856
X6.738Y-2.568
X6.738Y-3.193
X6.738Y-3.6243
X6.738Y-4.052
X6.739Y-3.115
X6.74Y-4.23
X6.7402Y-3.8284
X6.741Y-3.9768
X6.741Y-4.428
X6.743Y-2.415
X6.743Y-4.354
X6.745Y-3.3987
X6.7487Y-2.792
X6.758Y-3.379
X6.7583Y-3.8054
X6.76Y-4.203
X6.7638Y-2.53
X6.765Y-2.932
X6.765Y-2.9687
X6.766Y-3.3357
X6.767Y-2.503
X6.767Y-4.179
X6.768Y-3.769
X6.768Y-4.151
X6.77Y-2.892
X6.7736Y-3.192
X6.7738Y-2.7718
X6.7739Y-4.052
X6.7742Y-3.6238
X6.7766Y-4.428
X6.779Y-2.374
X6.779Y-2.45
X6.8056Y-3.192
X6.8058Y-2.7718
X6.8059Y-4.052
X6.8062Y-3.6238
X6.8086Y-4.428
X6.838Y-2.772
X6.838Y-3.193
X6.838Y-3.6243
X6.838Y-4.052
X6.841Y-4.428
X6.847Y-3.547
X6.863Y-4.052
X6.869Y-4.414
X6.8703Y-3.1387
X6.871Y-2.727
X6.873Y-3.277
X6.886Y-3.4958
X6.903Y-3.066
X6.905Y-3.182
X6.925Y-3.94
X6.929Y-2.646
X6.93Y-2.7101
X6.93Y-3.1321
X6.93Y-3.5601
X6.93Y-3.9931
X6.932Y-4.306
X6.933Y-4.3693
X6.978Y-3.387
X6.978Y-3.82
X6.981Y-4.1962
X6.986Y-3.065
X6.988Y-2.667
X7.007Y-2.969
X7.008Y-2.5671
X7.02Y-3.912
X7.02Y-4.231
X7.02Y-4.351
X7.022Y-3.47
X7.057Y-4.249
X7.058Y-3.131
X7.058Y-3.214
X7.058Y-3.839
X7.058Y-3.975
X7.068Y-2.752
X7.069Y-2.666
X7.069Y-3.298
X7.086Y-2.8676
X7.086Y-2.94
X7.087Y-3.669
X7.13Y-3.543
X7.13Y-3.655
X7.137Y-2.734
X7.137Y-2.898
X7.148Y-4.182
X7.148Y-4.334
X7.167Y-3.496
X7.167Y-3.561
X7.172Y-2.645
X7.174Y-2.802
X7.2Y-3.106
X7.215Y-3.471
X7.215Y-3.581
X7.377Y-2.485
X7.478Y-2.47
X7.525Y-2.429
X7.539Y-3.706
X7.549Y-2.449
X7.549Y-2.805
X7.571Y-2.523
X7.571Y-2.897
T2
X4.5823Y-3.5968
X4.5823Y-3.644
X4.6256Y-3.5968
X4.6256Y-3.644
X4.6768Y-3.5968
X4.6768Y-3.644
X4.724Y-3.5968
X4.724Y-3.644
X5.4145Y-3.9368
X5.4145Y-3.9762
X5.4538Y-3.9368
X5.4538Y-3.9762
T3
X3.272Y-2.89
X3.272Y-2.998
X3.272Y-3.106
X3.272Y-3.408
X3.272Y-3.512
X3.272Y-3.6113
X3.272Y-3.7107
X3.272Y-3.81
X3.667Y-2.521
X3.667Y-2.671
X4.341Y-3.5768
X4.341Y-3.78
X5.2985Y-4.536
X5.3985Y-4.506
X5.4985Y-4.546
X5.5985Y-4.506
X5.6985Y-4.546
X5.766Y-3.782
X5.97Y-3.782
T4
X3.155Y-2.898
X3.155Y-2.998
X3.155Y-3.098
X3.155Y-3.309
X3.155Y-3.409
X3.155Y-3.509
X3.155Y-3.609
X3.155Y-3.709
X3.155Y-3.809
X4.255Y-2.235
X4.355Y-2.235
X4.455Y-2.235
X4.555Y-2.235
X4.655Y-2.235
X4.755Y-2.235
T5
X3.4661Y-4.499
X3.5204Y-4.611
X3.5747Y-4.499
X3.629Y-4.611
X3.6834Y-4.499
X3.7377Y-4.611
X3.792Y-4.499
X3.8464Y-4.611
X3.9007Y-4.499
X3.955Y-4.611
X4.0094Y-4.499
X4.0637Y-4.611
X4.118Y-4.499
X4.1724Y-4.611
X4.2267Y-4.499
X4.281Y-4.611
X4.3353Y-4.499
X4.3897Y-4.611
X4.444Y-4.499
X4.4983Y-4.611
X4.5527Y-4.499
X4.607Y-4.611
X4.6613Y-4.499
X4.7157Y-4.611
X4.77Y-4.499
T6
X7.277Y-2.6127
X7.277Y-2.7076
X7.277Y-2.8025
X7.277Y-2.8974
X7.277Y-2.9922
X7.277Y-3.0871
X7.277Y-3.182
X7.277Y-3.2769
X7.277Y-3.3718
X7.277Y-3.4666
X7.277Y-3.5615
X7.277Y-3.6564
X7.277Y-3.7513
X7.277Y-3.8462
X7.277Y-3.9411
X7.277Y-4.0359
X7.277Y-4.1308
X7.277Y-4.2257
X7.277Y-4.3206
X7.277Y-4.4155
X7.277Y-4.5103
X7.377Y-2.5653
X7.377Y-2.6601
X7.377Y-2.755
X7.377Y-2.8499
X7.377Y-2.9448
X7.377Y-3.0397
X7.377Y-3.1346
X7.377Y-3.2294
X7.377Y-3.3243
X7.377Y-3.4192
X7.377Y-3.5141
X7.377Y-3.609
X7.377Y-3.7039
X7.377Y-3.7987
X7.377Y-3.8936
X7.377Y-3.9885
X7.377Y-4.0834
X7.377Y-4.1783
X7.377Y-4.2731
X7.377Y-4.368
X7.377Y-4.4629
X7.477Y-2.6127
X7.477Y-2.7076
X7.477Y-2.8025
X7.477Y-2.8974
X7.477Y-2.9922
X7.477Y-3.0871
X7.477Y-3.182
X7.477Y-3.2769
X7.477Y-3.3718
X7.477Y-3.4666
X7.477Y-3.5615
X7.477Y-3.6564
X7.477Y-3.7513
X7.477Y-3.8462
X7.477Y-3.9411
X7.477Y-4.0359
X7.477Y-4.1308
X7.477Y-4.2257
X7.477Y-4.3206
X7.477Y-4.4155
T7
X5.296Y-4.6845
X5.396Y-4.6845
X5.496Y-4.6845
X5.596Y-4.6845
X5.696Y-4.6845
X5.796Y-4.6845
T8
X6.033Y-4.5875
X6.1889Y-4.5875
X6.4498Y-4.5875
X6.6057Y-4.5875
T9
X3.192Y-4.555
X5.044Y-4.555
T10
X3.206Y-2.2988
X3.206Y-4.127
X6.917Y-2.301
X6.921Y-4.777
T11
X7.377Y-2.2878
X7.377Y-4.7878
M30
