%TF.GenerationSoftware,KiCad,Pcbnew,8.0.1*%
%TF.CreationDate,2024-11-04T21:37:07-08:00*%
%TF.ProjectId,kasm_pcb_rev2,6b61736d-5f70-4636-925f-726576322e6b,rev?*%
%TF.SameCoordinates,Original*%
%TF.FileFunction,Copper,L3,Inr*%
%TF.FilePolarity,Positive*%
%FSLAX46Y46*%
G04 Gerber Fmt 4.6, Leading zero omitted, Abs format (unit mm)*
G04 Created by KiCad (PCBNEW 8.0.1) date 2024-11-04 21:37:07*
%MOMM*%
%LPD*%
G01*
G04 APERTURE LIST*
G04 Aperture macros list*
%AMRoundRect*
0 Rectangle with rounded corners*
0 $1 Rounding radius*
0 $2 $3 $4 $5 $6 $7 $8 $9 X,Y pos of 4 corners*
0 Add a 4 corners polygon primitive as box body*
4,1,4,$2,$3,$4,$5,$6,$7,$8,$9,$2,$3,0*
0 Add four circle primitives for the rounded corners*
1,1,$1+$1,$2,$3*
1,1,$1+$1,$4,$5*
1,1,$1+$1,$6,$7*
1,1,$1+$1,$8,$9*
0 Add four rect primitives between the rounded corners*
20,1,$1+$1,$2,$3,$4,$5,0*
20,1,$1+$1,$4,$5,$6,$7,0*
20,1,$1+$1,$6,$7,$8,$9,0*
20,1,$1+$1,$8,$9,$2,$3,0*%
G04 Aperture macros list end*
%TA.AperFunction,ComponentPad*%
%ADD10C,4.191000*%
%TD*%
%TA.AperFunction,ComponentPad*%
%ADD11R,1.562100X1.562100*%
%TD*%
%TA.AperFunction,ComponentPad*%
%ADD12C,1.562100*%
%TD*%
%TA.AperFunction,ComponentPad*%
%ADD13C,0.600000*%
%TD*%
%TA.AperFunction,ComponentPad*%
%ADD14R,1.000000X1.000000*%
%TD*%
%TA.AperFunction,ComponentPad*%
%ADD15RoundRect,0.250000X1.330000X1.800000X-1.330000X1.800000X-1.330000X-1.800000X1.330000X-1.800000X0*%
%TD*%
%TA.AperFunction,ComponentPad*%
%ADD16O,3.160000X4.100000*%
%TD*%
%TA.AperFunction,ComponentPad*%
%ADD17C,5.600000*%
%TD*%
%TA.AperFunction,ComponentPad*%
%ADD18C,1.574800*%
%TD*%
%TA.AperFunction,ComponentPad*%
%ADD19C,1.575000*%
%TD*%
%TA.AperFunction,ComponentPad*%
%ADD20C,5.175000*%
%TD*%
%TA.AperFunction,ComponentPad*%
%ADD21C,1.000000*%
%TD*%
%TA.AperFunction,ComponentPad*%
%ADD22R,1.700000X1.700000*%
%TD*%
%TA.AperFunction,ComponentPad*%
%ADD23O,1.700000X1.700000*%
%TD*%
%TA.AperFunction,ViaPad*%
%ADD24C,0.500000*%
%TD*%
%TA.AperFunction,Conductor*%
%ADD25C,0.200000*%
%TD*%
%TA.AperFunction,Conductor*%
%ADD26C,0.127000*%
%TD*%
%TA.AperFunction,Conductor*%
%ADD27C,2.000000*%
%TD*%
%TA.AperFunction,Conductor*%
%ADD28C,0.254000*%
%TD*%
%TA.AperFunction,Conductor*%
%ADD29C,1.100000*%
%TD*%
G04 APERTURE END LIST*
D10*
%TO.N,GND*%
%TO.C,J4*%
X81077400Y-115697000D03*
X128118200Y-115697000D03*
D11*
%TO.N,/Eddy Current Sensors/IN3A*%
X121157800Y-114274600D03*
D12*
%TO.N,unconnected-(J4-Pad2)*%
X118397800Y-114274600D03*
%TO.N,/Eddy Current Sensors/IN2B*%
X115637800Y-114274600D03*
%TO.N,/Eddy Current Sensors/IN1A*%
X112877800Y-114274600D03*
%TO.N,unconnected-(J4-Pad5)*%
X110117800Y-114274600D03*
%TO.N,/Eddy Current Sensors/IN0A*%
X107357800Y-114274600D03*
%TO.N,unconnected-(J4-Pad7)*%
X104597800Y-114274600D03*
%TO.N,/Eddy Current Sensors/IN4A*%
X101837800Y-114274600D03*
%TO.N,unconnected-(J4-Pad9)*%
X99077800Y-114274600D03*
%TO.N,/Eddy Current Sensors/IN5B*%
X96317800Y-114274600D03*
%TO.N,/Eddy Current Sensors/IN6A*%
X93557800Y-114274600D03*
%TO.N,unconnected-(J4-Pad12)*%
X90797800Y-114274600D03*
%TO.N,/Eddy Current Sensors/IN7B*%
X88037800Y-114274600D03*
%TO.N,/Eddy Current Sensors/IN3B*%
X119777800Y-117119400D03*
%TO.N,/Eddy Current Sensors/IN2A*%
X117017800Y-117119400D03*
%TO.N,unconnected-(J4-P16-Pad16)*%
X114257800Y-117119400D03*
%TO.N,/Eddy Current Sensors/IN1B*%
X111497800Y-117119400D03*
%TO.N,unconnected-(J4-P18-Pad18)*%
X108737800Y-117119400D03*
%TO.N,/Eddy Current Sensors/IN0B*%
X105977800Y-117119400D03*
%TO.N,unconnected-(J4-P20-Pad20)*%
X103217800Y-117119400D03*
%TO.N,/Eddy Current Sensors/IN4B*%
X100457800Y-117119400D03*
%TO.N,/Eddy Current Sensors/IN5A*%
X97697800Y-117119400D03*
%TO.N,unconnected-(J4-P23-Pad23)*%
X94937800Y-117119400D03*
%TO.N,/Eddy Current Sensors/IN6B*%
X92177800Y-117119400D03*
%TO.N,/Eddy Current Sensors/IN7A*%
X89417800Y-117119400D03*
%TD*%
D13*
%TO.N,GND*%
%TO.C,U1*%
X119989600Y-91357600D03*
X118789600Y-91357600D03*
X117489600Y-91357600D03*
X116389600Y-91357600D03*
X119989600Y-92557600D03*
X118789600Y-92557600D03*
X117489600Y-92557600D03*
X116389600Y-92557600D03*
%TD*%
D14*
%TO.N,GND*%
%TO.C,TP13*%
X110261400Y-90850600D03*
%TD*%
D15*
%TO.N,+12V*%
%TO.C,J1*%
X167784000Y-116522600D03*
D16*
%TO.N,GND*%
X163824000Y-116522600D03*
%TD*%
D14*
%TO.N,GND*%
%TO.C,TP15*%
X83108800Y-86563200D03*
%TD*%
D17*
%TO.N,GND*%
%TO.C,H3*%
X81432400Y-58389400D03*
%TD*%
D14*
%TO.N,GND*%
%TO.C,TP16*%
X144741900Y-115468400D03*
%TD*%
D18*
%TO.N,SPI6_NSS*%
%TO.C,J6*%
X134518400Y-118986800D03*
%TO.N,SPI6_SCK*%
X137058400Y-118986800D03*
%TO.N,SPI6_MISO*%
X139598400Y-118986800D03*
%TO.N,SPI6_MOSI*%
X142138400Y-118986800D03*
%TO.N,GND*%
X144678400Y-118986800D03*
%TO.N,unconnected-(J6-Pin_6-Pad6)*%
X147218400Y-118986800D03*
%TD*%
D14*
%TO.N,UART4_TX*%
%TO.C,TP14*%
X83108800Y-78892400D03*
%TD*%
%TO.N,+1.8V*%
%TO.C,TP5*%
X151638000Y-96062800D03*
%TD*%
%TO.N,GND*%
%TO.C,TP1*%
X146456400Y-96062800D03*
%TD*%
D19*
%TO.N,HRTIM_CHA1_OUT1*%
%TO.C,J20*%
X184835800Y-66362800D03*
%TO.N,HRTIM_CHA1_OUT2*%
X184835800Y-68772800D03*
%TO.N,HRTIM_CHA2_OUT1*%
X184835800Y-71182800D03*
%TO.N,HRTIM_CHA2_OUT2*%
X184835800Y-73592800D03*
%TO.N,HRTIM_CHB1_OUT1*%
X184835800Y-76002800D03*
%TO.N,HRTIM_CHB1_OUT2*%
X184835800Y-78412800D03*
%TO.N,TIM8_CH4_OUT1*%
X184835800Y-80822800D03*
%TO.N,TIM8_CH4_OUT2*%
X184835800Y-83232800D03*
%TO.N,TIM2_CH1_OUT1*%
X184835800Y-85642800D03*
%TO.N,TIM2_CH1_OUT2*%
X184835800Y-88052800D03*
%TO.N,TIM5_CH2_OUT1*%
X184835800Y-90462800D03*
%TO.N,TIM5_CH2_OUT2*%
X184835800Y-92872800D03*
%TO.N,HRTIM_CHB2_OUT1*%
X184835800Y-95282800D03*
%TO.N,HRTIM_CHB2_OUT2*%
X184835800Y-97692800D03*
%TO.N,HRTIM_CHC1_OUT1*%
X184835800Y-100102800D03*
%TO.N,HRTIM_CHC1_OUT2*%
X184835800Y-102512800D03*
%TO.N,TIM5_CH3_OUT1*%
X184835800Y-104922800D03*
%TO.N,TIM5_CH3_OUT2*%
X184835800Y-107332800D03*
%TO.N,TIM13_CH1_OUT1*%
X184835800Y-109742800D03*
%TO.N,TIM13_CH1_OUT2*%
X184835800Y-112152800D03*
%TO.N,unconnected-(J20-Pad21)*%
X184835800Y-114562800D03*
%TO.N,HRTIM_CHC2_OUT1*%
X187375800Y-65157800D03*
%TO.N,HRTIM_CHC2_OUT2*%
X187375800Y-67567800D03*
%TO.N,HRTIM_CHD1_OUT1*%
X187375800Y-69977800D03*
%TO.N,HRTIM_CHD1_OUT2*%
X187375800Y-72387800D03*
%TO.N,TIM14_CH1_OUT1*%
X187375800Y-74797800D03*
%TO.N,TIM14_CH1_OUT2*%
X187375800Y-77207800D03*
%TO.N,TIM1_CH1_OUT1*%
X187375800Y-79617800D03*
%TO.N,TIM1_CH1_OUT2*%
X187375800Y-82027800D03*
%TO.N,HRTIM_CHD2_OUT1*%
X187375800Y-84437800D03*
%TO.N,HRTIM_CHD2_OUT2*%
X187375800Y-86847800D03*
%TO.N,TIM4_CH2_OUT1*%
X187375800Y-89257800D03*
%TO.N,TIM4_CH2_OUT2*%
X187375800Y-91667800D03*
%TO.N,TIM1_CH2_OUT1*%
X187375800Y-94077800D03*
%TO.N,TIM1_CH2_OUT2*%
X187375800Y-96487800D03*
%TO.N,TIM1_CH3_OUT1*%
X187375800Y-98897800D03*
%TO.N,TIM1_CH3_OUT2*%
X187375800Y-101307800D03*
%TO.N,TIM16_CH1_OUT1*%
X187375800Y-103717800D03*
%TO.N,TIM16_CH1_OUT2*%
X187375800Y-106127800D03*
%TO.N,TIM15_CH1_OUT1*%
X187375800Y-108537800D03*
%TO.N,TIM15_CH1_OUT2*%
X187375800Y-110947800D03*
%TO.N,unconnected-(J20-Pad42)*%
X187375800Y-113357800D03*
%TO.N,TIM1_CH4_OUT1*%
X189915800Y-66362800D03*
%TO.N,TIM1_CH4_OUT2*%
X189915800Y-68772800D03*
%TO.N,TIM12_CH2_OUT1*%
X189915800Y-71182800D03*
%TO.N,TIM12_CH2_OUT2*%
X189915800Y-73592800D03*
%TO.N,TIM15_CH2_OUT1*%
X189915800Y-76002800D03*
%TO.N,TIM15_CH2_OUT2*%
X189915800Y-78412800D03*
%TO.N,TIM4_CH1_OUT1*%
X189915800Y-80822800D03*
%TO.N,TIM4_CH1_OUT2*%
X189915800Y-83232800D03*
%TO.N,TIM4_CH3_OUT1*%
X189915800Y-85642800D03*
%TO.N,TIM4_CH3_OUT2*%
X189915800Y-88052800D03*
%TO.N,TIM4_CH4_OUT1*%
X189915800Y-90462800D03*
%TO.N,TIM4_CH4_OUT2*%
X189915800Y-92872800D03*
%TO.N,unconnected-(J20-Pad55)*%
X189915800Y-95282800D03*
%TO.N,unconnected-(J20-Pad56)*%
X189915800Y-97692800D03*
%TO.N,unconnected-(J20-Pad57)*%
X189915800Y-100102800D03*
%TO.N,unconnected-(J20-Pad58)*%
X189915800Y-102512800D03*
%TO.N,unconnected-(J20-Pad59)*%
X189915800Y-104922800D03*
%TO.N,unconnected-(J20-Pad60)*%
X189915800Y-107332800D03*
%TO.N,unconnected-(J20-Pad61)*%
X189915800Y-109742800D03*
%TO.N,unconnected-(J20-Pad62)*%
X189915800Y-112152800D03*
D20*
%TO.N,GND*%
X187375800Y-58109800D03*
X187375800Y-121610800D03*
%TD*%
D14*
%TO.N,SPI2_SCK*%
%TO.C,TP7*%
X83108800Y-94250932D03*
%TD*%
D17*
%TO.N,GND*%
%TO.C,H2*%
X81432400Y-104825800D03*
%TD*%
D14*
%TO.N,SPI2_MOSI*%
%TO.C,TP10*%
X83108800Y-89204800D03*
%TD*%
%TO.N,SPI2_NSS*%
%TO.C,TP8*%
X83108800Y-96774000D03*
%TD*%
%TO.N,SPI2_MISO*%
%TO.C,TP9*%
X83108800Y-91727866D03*
%TD*%
D13*
%TO.N,GND*%
%TO.C,U2*%
X137527600Y-100995000D03*
X138527600Y-100995000D03*
X137527600Y-99995000D03*
X138527600Y-99995000D03*
%TD*%
D17*
%TO.N,GND*%
%TO.C,H1*%
X175793400Y-121335800D03*
%TD*%
D14*
%TO.N,SPI6_MOSI*%
%TO.C,TP6*%
X142201900Y-114452400D03*
%TD*%
D17*
%TO.N,GND*%
%TO.C,H4*%
X175691800Y-58445400D03*
%TD*%
D21*
%TO.N,I2C4_SCL*%
%TO.C,TP27*%
X93141800Y-64033400D03*
%TD*%
D14*
%TO.N,SPI6_SCK*%
%TO.C,TP2*%
X137121900Y-114452400D03*
%TD*%
D22*
%TO.N,+3.3V*%
%TO.C,J5*%
X120777000Y-56769000D03*
D23*
%TO.N,DEBUG_JTCK-SWCLK*%
X118237000Y-56769000D03*
%TO.N,GND*%
X115697000Y-56769000D03*
%TO.N,DEBUG_JTMS-SWDIO*%
X113157000Y-56769000D03*
%TO.N,/MCU/NRST*%
X110617000Y-56769000D03*
%TO.N,DEBUG_JTDO-SWO*%
X108077000Y-56769000D03*
%TD*%
D22*
%TO.N,UART4_RX*%
%TO.C,J7*%
X80137000Y-73609200D03*
D23*
%TO.N,GND*%
X80137000Y-76149200D03*
%TO.N,UART4_TX*%
X80137000Y-78689200D03*
%TD*%
D22*
%TO.N,SPI2_NSS*%
%TO.C,J3*%
X80137000Y-96748600D03*
D23*
%TO.N,SPI2_SCK*%
X80137000Y-94208600D03*
%TO.N,SPI2_MISO*%
X80137000Y-91668600D03*
%TO.N,SPI2_MOSI*%
X80137000Y-89128600D03*
%TO.N,GND*%
X80137000Y-86588600D03*
%TO.N,unconnected-(J3-Pin_6-Pad6)*%
X80137000Y-84048600D03*
%TD*%
D21*
%TO.N,I2C4_SDA*%
%TO.C,TP26*%
X93141800Y-67843400D03*
%TD*%
D14*
%TO.N,GND*%
%TO.C,TP17*%
X83108800Y-76149200D03*
%TD*%
%TO.N,UART4_RX*%
%TO.C,TP11*%
X83108800Y-73406000D03*
%TD*%
%TO.N,+3.3V*%
%TO.C,TP12*%
X110261400Y-96012000D03*
%TD*%
%TO.N,SPI6_MISO*%
%TO.C,TP4*%
X139661900Y-115468400D03*
%TD*%
%TO.N,SPI6_NSS*%
%TO.C,TP3*%
X134581900Y-115214400D03*
%TD*%
D15*
%TO.N,+12V*%
%TO.C,J2*%
X157198200Y-116522600D03*
D16*
%TO.N,GND*%
X153238200Y-116522600D03*
%TD*%
D24*
%TO.N,GND*%
X116357400Y-107137200D03*
%TO.N,+3.3V*%
X131572000Y-113893600D03*
%TO.N,GND*%
X171881800Y-63576200D03*
X101346000Y-59182000D03*
X120218200Y-83515200D03*
X115697000Y-102870000D03*
X142544800Y-78765400D03*
X173685200Y-70408800D03*
X117627400Y-98094800D03*
X162026600Y-112826800D03*
X92684600Y-75717400D03*
X152628600Y-90451400D03*
X148310600Y-84709000D03*
X176022000Y-79554800D03*
X172868500Y-70404000D03*
X152628600Y-68861400D03*
X115138200Y-106095800D03*
X125882400Y-106095800D03*
X135051800Y-78765400D03*
X148437600Y-63100700D03*
X164439600Y-68861400D03*
X115697000Y-99263200D03*
X116255800Y-106095800D03*
X143891000Y-99650800D03*
X125704600Y-83845400D03*
X135204200Y-108000800D03*
X150291800Y-81102200D03*
X137185400Y-106527600D03*
X113766600Y-70612000D03*
X98958400Y-65786000D03*
X90805000Y-103733600D03*
X96774000Y-58547000D03*
X162102800Y-81102200D03*
X128422400Y-102870000D03*
X126212600Y-86156800D03*
X148336000Y-74015600D03*
X160274000Y-73865600D03*
X94996000Y-102209600D03*
X172870700Y-102920800D03*
X108432600Y-87274400D03*
X97155000Y-84658200D03*
X114579400Y-70781900D03*
X157327600Y-90449400D03*
X97663000Y-82575400D03*
X153847800Y-64465200D03*
X133807200Y-78765400D03*
X145034000Y-104292400D03*
X157251400Y-111282200D03*
X116916200Y-96291400D03*
X108000800Y-102108000D03*
X160909000Y-84226400D03*
X165658800Y-97053400D03*
X162102800Y-102235000D03*
X177977800Y-75412600D03*
X146050000Y-108000800D03*
X146354800Y-80340200D03*
X135331200Y-104292400D03*
X146710400Y-111582200D03*
X145034000Y-107416600D03*
X149484300Y-70358000D03*
X171907200Y-105435400D03*
X122021600Y-91694000D03*
X137236200Y-104292400D03*
X164363400Y-111284200D03*
X145516600Y-68859400D03*
X162102800Y-70358000D03*
X110312200Y-70612000D03*
X88392000Y-57023000D03*
X101981000Y-91287600D03*
X137947400Y-58293000D03*
X153847800Y-86055200D03*
X128346200Y-83845400D03*
X148564600Y-111607600D03*
X160274000Y-63576200D03*
X92583000Y-57023000D03*
X165658800Y-86055200D03*
X103378000Y-102463600D03*
X136372600Y-102158800D03*
X97282000Y-86207600D03*
X149468100Y-92056800D03*
X173685200Y-81102200D03*
X172937700Y-112471200D03*
X103124000Y-91236800D03*
X162102800Y-92056800D03*
X164439600Y-79580200D03*
X168986200Y-110977400D03*
X136296400Y-78765400D03*
X117424200Y-102870000D03*
X177317400Y-106583200D03*
X172877700Y-92044800D03*
X158165800Y-102133400D03*
X139217400Y-60198000D03*
X161213800Y-112826800D03*
X89712800Y-100355400D03*
X157327600Y-79578200D03*
X176022000Y-101424200D03*
X160274000Y-105308400D03*
X171856400Y-84727200D03*
X92481400Y-79095600D03*
X171958000Y-73456800D03*
X147904200Y-98577400D03*
X176022000Y-68836000D03*
X97307400Y-74701400D03*
X126009400Y-102870000D03*
X177241200Y-97028000D03*
X165582600Y-106888000D03*
X119253000Y-83997800D03*
X90500200Y-102463600D03*
X127203200Y-107416600D03*
X166227000Y-58089800D03*
X161286100Y-70358000D03*
X115443000Y-108331000D03*
X160147000Y-95885000D03*
X92384000Y-77444600D03*
X171907200Y-95732800D03*
X135382000Y-106527600D03*
X161295300Y-81088800D03*
X108229400Y-104343200D03*
X154228800Y-75285600D03*
X115595400Y-98094800D03*
X117475000Y-108331000D03*
X142824200Y-103047800D03*
X140055600Y-78765400D03*
X128524000Y-106095800D03*
X169748200Y-69570600D03*
X169773600Y-80772000D03*
X145034000Y-105943400D03*
X102590600Y-100355400D03*
X90043000Y-74066400D03*
X173685200Y-92056800D03*
X162518600Y-58445400D03*
X137541000Y-78740000D03*
X176022000Y-90426000D03*
X117424200Y-99263200D03*
X166261300Y-65640700D03*
X150037800Y-98602800D03*
X109537597Y-87350600D03*
X145516600Y-90449400D03*
X89941400Y-73304400D03*
X90449400Y-101574600D03*
X147307300Y-108000800D03*
X103327200Y-101574600D03*
X164439600Y-90451400D03*
X98107403Y-65049400D03*
X142773400Y-98577400D03*
X173761400Y-112471200D03*
X144907000Y-103047800D03*
X103682800Y-103733600D03*
X143891000Y-100736400D03*
X98399600Y-69824600D03*
X142925800Y-105943400D03*
X138811000Y-78765400D03*
X97434400Y-79197200D03*
X161286100Y-103068400D03*
X165658800Y-75184000D03*
X173685200Y-102920800D03*
X152628600Y-79580200D03*
X150291800Y-70358000D03*
X142925800Y-107188000D03*
X93802200Y-74371200D03*
X104267000Y-91236800D03*
X161288300Y-92056800D03*
X100584000Y-58547000D03*
X157327600Y-68859400D03*
X168910000Y-90424000D03*
X127711200Y-86156800D03*
X172861500Y-81076800D03*
X141300200Y-78765400D03*
X137414000Y-108000800D03*
X87833200Y-64490600D03*
X140258800Y-57835800D03*
X178003200Y-65204400D03*
X150291800Y-92056800D03*
X121259600Y-92506800D03*
X149477300Y-81102200D03*
X132537200Y-78740000D03*
X109233367Y-82575400D03*
X170484800Y-101422200D03*
X142925800Y-104292400D03*
X177241200Y-86029800D03*
X148564600Y-108000800D03*
X176098200Y-110979400D03*
X136525000Y-103047800D03*
X164439600Y-101449600D03*
%TO.N,+3.3V*%
X129794000Y-57277000D03*
X122783600Y-83997800D03*
X93649800Y-100355400D03*
X125831600Y-98094800D03*
X92913200Y-101574600D03*
X93954600Y-104463100D03*
X112420400Y-69621400D03*
X109499400Y-109143800D03*
X105791000Y-101574600D03*
X125679200Y-88341200D03*
X128371600Y-91186000D03*
X98221800Y-86182200D03*
X129032000Y-96012000D03*
X101346000Y-60198000D03*
X121419000Y-83515200D03*
X110464600Y-84658200D03*
X129032000Y-93167200D03*
X128524000Y-99263200D03*
X93802200Y-75031600D03*
X97307400Y-65049400D03*
X97180400Y-67741800D03*
X108331000Y-109143800D03*
X129794000Y-58547000D03*
X92837000Y-102463600D03*
X106527600Y-100355400D03*
X125831600Y-99263200D03*
X113817400Y-69621400D03*
X110794800Y-69697600D03*
X92862400Y-81041750D03*
X92760800Y-72720200D03*
X97282000Y-75336400D03*
X110337600Y-87350600D03*
X126542800Y-96012000D03*
X110032800Y-82605571D03*
X105714800Y-102463600D03*
X98463003Y-82575400D03*
X80314800Y-68122800D03*
X97600146Y-69794991D03*
X100584000Y-60706000D03*
X125679200Y-91186000D03*
X84429600Y-68148200D03*
X87833200Y-63423800D03*
X126542800Y-93167200D03*
X128371600Y-88341200D03*
X128524000Y-98094800D03*
X92893900Y-82997550D03*
%TO.N,REF*%
X153263600Y-67284600D03*
X178308000Y-99364800D03*
X177444400Y-77851000D03*
X164109400Y-77673200D03*
X153365200Y-89433400D03*
X154025600Y-79552800D03*
X165227000Y-67005200D03*
X164185600Y-99633000D03*
X177495200Y-67741800D03*
X163957000Y-88671400D03*
X178358800Y-88138000D03*
X153238200Y-57962800D03*
X165261800Y-58648600D03*
X179247800Y-107924600D03*
X164998400Y-109354200D03*
%TO.N,DEBUG_JTMS-SWDIO*%
X109055599Y-70471601D03*
%TO.N,SPI2_MOSI*%
X97561400Y-77698600D03*
X84734400Y-77038200D03*
%TO.N,SPI2_MISO*%
X113131600Y-91719400D03*
%TO.N,SPI2_NSS*%
X111506000Y-93599000D03*
%TO.N,SPI2_SCK*%
X88925400Y-80467200D03*
X88950800Y-93091000D03*
X105816400Y-80238600D03*
%TO.N,UART4_RX*%
X83032600Y-66319400D03*
X108229400Y-66421000D03*
%TO.N,UART4_TX*%
X81940400Y-65735200D03*
X108356400Y-65633600D03*
%TO.N,/Eddy Current Sensors/IN0B*%
X105892600Y-110799600D03*
X99857800Y-110794800D03*
%TO.N,/Eddy Current Sensors/IN0A*%
X99263200Y-112445800D03*
X107340400Y-112599600D03*
%TO.N,/Eddy Current Sensors/IN1B*%
X111420200Y-111399600D03*
X102493800Y-111399600D03*
%TO.N,/Eddy Current Sensors/IN1A*%
X112877600Y-111887000D03*
X101057800Y-111836200D03*
%TO.N,/Eddy Current Sensors/IN2B*%
X115595400Y-110413800D03*
X104931100Y-110194800D03*
%TO.N,/Eddy Current Sensors/IN2A*%
X103276400Y-115671600D03*
%TO.N,/Eddy Current Sensors/IN3B*%
X119761000Y-110972600D03*
X106857800Y-110799600D03*
%TO.N,/Eddy Current Sensors/IN3A*%
X121157800Y-110642400D03*
X105431100Y-109561981D03*
%TO.N,TIM1_CH4_OUT1*%
X145719800Y-59842400D03*
X167843200Y-59842400D03*
X167843200Y-62433200D03*
X145719800Y-67462400D03*
X189941200Y-62738000D03*
%TO.N,TIM1_CH2_OUT1*%
X158637827Y-99808938D03*
X159893000Y-94132400D03*
%TO.N,HRTIM_CHD2_OUT1*%
X158242000Y-84785200D03*
X158267400Y-88798400D03*
%TO.N,TIM1_CH3_OUT2*%
X162788600Y-101981000D03*
%TO.N,HRTIM_CHA1_OUT2*%
X170967400Y-68503800D03*
%TO.N,HRTIM_CHD2_OUT2*%
X162661600Y-86563200D03*
X162636200Y-90220800D03*
X159664400Y-90170000D03*
%TO.N,TIM1_CH1_OUT2*%
X162687000Y-82296000D03*
X162687000Y-79428200D03*
%TO.N,TIM5_CH2_OUT1*%
X182041800Y-88798400D03*
X174903718Y-88793411D03*
X182041800Y-90449400D03*
%TO.N,TIM4_CH4_OUT2*%
X150825200Y-93192600D03*
X180009800Y-93192600D03*
%TO.N,TIM16_CH1_OUT2*%
X181559200Y-110083600D03*
X181559200Y-106222800D03*
X159359600Y-110896400D03*
%TO.N,TIM4_CH3_OUT2*%
X147091400Y-93624400D03*
X191490600Y-94132400D03*
%TO.N,HRTIM_CHB1_OUT1*%
X169748200Y-76022200D03*
X169722800Y-77914801D03*
%TO.N,HRTIM_CHB2_OUT1*%
X169722800Y-95351600D03*
X169722800Y-99669600D03*
%TO.N,TIM14_CH1_OUT2*%
X159029400Y-79502000D03*
%TO.N,TIM4_CH2_OUT1*%
X163169600Y-88849200D03*
%TO.N,TIM8_CH4_OUT2*%
X174574200Y-83235800D03*
X174504775Y-79723637D03*
%TO.N,TIM13_CH1_OUT2*%
X174472600Y-112115600D03*
%TO.N,HRTIM_CHC1_OUT1*%
X175895000Y-100076000D03*
%TO.N,TIM1_CH1_OUT1*%
X163195000Y-77927200D03*
X163220400Y-80213200D03*
%TO.N,TIM2_CH1_OUT1*%
X168884600Y-85344000D03*
X168859200Y-88773000D03*
%TO.N,TIM5_CH2_OUT2*%
X173913800Y-90093800D03*
X181102000Y-89992200D03*
X181102000Y-92837000D03*
%TO.N,TIM4_CH3_OUT1*%
X143789400Y-89484200D03*
X179552600Y-83769200D03*
%TO.N,TIM5_CH3_OUT1*%
X169799000Y-104927400D03*
X169799000Y-109270800D03*
%TO.N,HRTIM_CHC2_OUT2*%
X179527200Y-69900800D03*
X179552600Y-67716400D03*
X159258000Y-68935600D03*
%TO.N,TIM1_CH2_OUT2*%
X162737800Y-96291400D03*
X159486600Y-101142800D03*
X162737800Y-95173800D03*
X160324800Y-95148400D03*
%TO.N,TIM4_CH1_OUT1*%
X182880000Y-78892400D03*
X153339800Y-80086200D03*
%TO.N,TIM4_CH2_OUT2*%
X162814000Y-91541600D03*
%TO.N,TIM15_CH1_OUT1*%
X164414200Y-109804200D03*
%TO.N,TIM1_CH4_OUT2*%
X147243800Y-68986400D03*
X147650200Y-59283600D03*
X169672000Y-59283600D03*
X191135000Y-61696600D03*
X169672000Y-61976000D03*
%TO.N,TIM12_CH2_OUT1*%
X191744600Y-62204600D03*
X172186600Y-62230000D03*
X151434800Y-60325000D03*
X172186600Y-60299600D03*
X191744600Y-71247000D03*
X151409400Y-67208400D03*
%TO.N,HRTIM_CHC2_OUT1*%
X154000200Y-67462400D03*
X157632400Y-67183000D03*
X187375800Y-63119000D03*
X157632400Y-63100700D03*
%TO.N,HRTIM_CHA2_OUT1*%
X175996600Y-67208400D03*
X182219600Y-71170800D03*
X182168800Y-67183000D03*
%TO.N,HRTIM_CHA1_OUT1*%
X169722800Y-66090800D03*
%TO.N,HRTIM_CHB1_OUT2*%
X171170600Y-79121000D03*
%TO.N,HRTIM_CHA2_OUT2*%
X181279800Y-69443600D03*
X174523400Y-69265800D03*
X181279800Y-73609200D03*
%TO.N,TIM13_CH1_OUT1*%
X176072800Y-109372400D03*
%TO.N,TIM2_CH1_OUT2*%
X171018200Y-90906600D03*
X183261000Y-90957400D03*
X183261000Y-88163400D03*
%TO.N,TIM15_CH2_OUT2*%
X147472400Y-82473800D03*
X179273200Y-81635600D03*
X179273200Y-79527400D03*
%TO.N,HRTIM_CHD1_OUT2*%
X162763200Y-68859400D03*
X162788600Y-71882000D03*
%TO.N,TIM15_CH2_OUT1*%
X146266000Y-74581500D03*
%TO.N,TIM5_CH3_OUT2*%
X171272200Y-110591600D03*
X178308000Y-110515400D03*
X178308000Y-107467400D03*
%TO.N,TIM15_CH1_OUT2*%
X162737800Y-111861600D03*
%TO.N,TIM8_CH4_OUT1*%
X175387000Y-80822800D03*
X175336200Y-77876400D03*
%TO.N,TIM1_CH3_OUT1*%
X163136056Y-99890056D03*
%TO.N,TIM4_CH1_OUT2*%
X151180800Y-80492600D03*
%TO.N,TIM12_CH2_OUT2*%
X192303400Y-73583800D03*
X192303400Y-64084200D03*
X150622000Y-68986400D03*
X150825200Y-64287400D03*
%TO.N,TIM16_CH1_OUT1*%
X157835600Y-109601000D03*
X157835600Y-104190800D03*
%TO.N,HRTIM_CHD1_OUT1*%
X163550600Y-67208400D03*
X163550600Y-70104000D03*
%TO.N,TIM4_CH4_OUT1*%
X153060400Y-92633800D03*
%TO.N,TIM14_CH1_OUT1*%
X179984400Y-74676000D03*
X179984400Y-72837800D03*
X158089600Y-77927200D03*
X158089600Y-73006800D03*
%TO.N,HRTIM_CHC1_OUT2*%
X174320200Y-102920800D03*
%TO.N,HRTIM_CHB2_OUT2*%
X171221400Y-101011900D03*
X179273200Y-100965000D03*
X179273200Y-97510600D03*
%TO.N,ACTUATOR_ENABLE_MCU*%
X142570200Y-65601100D03*
X109778800Y-65963800D03*
X143408400Y-96088200D03*
%TO.N,/MCU/BOOT0*%
X100914200Y-66751200D03*
X88569800Y-66751200D03*
%TO.N,TIM2_CH4_LDC*%
X97002600Y-105892600D03*
X110032800Y-105867200D03*
%TO.N,I2C4_SDA*%
X97815400Y-99847400D03*
X95072200Y-99847400D03*
X99796600Y-82270600D03*
X94157800Y-83667600D03*
X110686100Y-99854500D03*
%TO.N,I2C4_SCL*%
X101803200Y-82550000D03*
X98323400Y-100761800D03*
X93522800Y-84251800D03*
X107137200Y-107823000D03*
X111074200Y-107823000D03*
X94589600Y-100761800D03*
X111099600Y-100736400D03*
%TO.N,HRTIM_CHD1_PHASE*%
X114251196Y-77680768D03*
X156921200Y-64795400D03*
X159029400Y-64795400D03*
X156977500Y-77597000D03*
%TO.N,TIM8_CH4_PHASE*%
X103301800Y-82702400D03*
X171831000Y-75405400D03*
X169164000Y-83007200D03*
X169189400Y-75463400D03*
%TO.N,TIM12_CH2*%
X147751800Y-65557400D03*
X143992600Y-80162400D03*
X112979200Y-80182300D03*
X143992600Y-65582800D03*
%TO.N,TIM1_CH2_PHASE*%
X158496000Y-98806000D03*
X99542600Y-63746900D03*
X154686000Y-98806000D03*
X154686000Y-63746900D03*
%TO.N,HRTIM_CHA2*%
X143383000Y-74701400D03*
X143383000Y-65151000D03*
X110236000Y-74701400D03*
X171145200Y-65227200D03*
%TO.N,TIM8_CH4*%
X168122600Y-68605400D03*
X171417500Y-70916800D03*
X168122600Y-70866000D03*
X115943300Y-68718200D03*
%TO.N,TIM15_CH2*%
X146544815Y-72605889D03*
X97383600Y-72517000D03*
%TO.N,TIM16_CH1*%
X100279200Y-70764400D03*
X158496000Y-109067600D03*
X86461600Y-70764400D03*
X155016200Y-104902000D03*
X86512400Y-104876600D03*
X155016200Y-109067600D03*
%TO.N,TIM13_CH1*%
X99814000Y-98952511D03*
X168262200Y-99237800D03*
X171196000Y-107442000D03*
X168351200Y-107442000D03*
%TO.N,TIM5_CH2_PHASE*%
X168362200Y-86156800D03*
X171323043Y-86326752D03*
X97966902Y-73679900D03*
X168362200Y-73456800D03*
%TO.N,HRTIM_CHB1*%
X170205400Y-77348122D03*
X167521700Y-77343000D03*
X116197900Y-67995800D03*
X167487600Y-67995800D03*
%TO.N,HRTIM_CHA1*%
X144653000Y-75826100D03*
X113129318Y-76040500D03*
X170230800Y-66548000D03*
X169164000Y-66522600D03*
X169138600Y-71297800D03*
X144653000Y-71348600D03*
%TO.N,SPI6_MOSI*%
X102314000Y-80010000D03*
X85344000Y-123190000D03*
X85344000Y-80010000D03*
%TO.N,HRTIM_CHD2_PHASE*%
X155346400Y-77063600D03*
X113780953Y-77232019D03*
X155346400Y-86588600D03*
X158673800Y-86588600D03*
%TO.N,HRTIM_CHB2_PHASE*%
X103809800Y-63017400D03*
X170611800Y-95808800D03*
X166674800Y-62611000D03*
X166217600Y-95783400D03*
%TO.N,TIM4_CH2*%
X159359600Y-84302600D03*
X101320600Y-70307200D03*
X87764100Y-70350900D03*
X87764100Y-85217000D03*
%TO.N,HRTIM_CHC1_PHASE*%
X171201683Y-97240700D03*
X167435200Y-79019400D03*
X167435200Y-96926400D03*
X109169200Y-79883000D03*
%TO.N,TIM4_CH3_PHASE*%
X146583400Y-82270600D03*
X107797600Y-81998300D03*
%TO.N,TIM13_CH1_PHASE*%
X171704000Y-106756200D03*
X104825800Y-97434400D03*
X168833800Y-97459800D03*
X168833800Y-106807000D03*
%TO.N,HRTIM_CHC2_PHASE*%
X114808000Y-78105000D03*
X156464000Y-66192400D03*
X158623000Y-66192400D03*
X156464000Y-78105000D03*
%TO.N,TIM4_CH1*%
X147802600Y-76174600D03*
X113234860Y-76879477D03*
%TO.N,TIM4_CH4_PHASE*%
X147931768Y-86156297D03*
X145415000Y-72938600D03*
X97617660Y-73073242D03*
X145415000Y-86004400D03*
%TO.N,SPI6_SCK*%
X99314000Y-96545400D03*
X84709000Y-120446800D03*
X84683600Y-96545400D03*
%TO.N,TIM1_CH1_PHASE*%
X155194000Y-75438000D03*
X160197800Y-75438000D03*
X155194000Y-64770000D03*
X99956100Y-64573900D03*
%TO.N,TIM1_CH1*%
X159035165Y-69492689D03*
X104317800Y-69850000D03*
%TO.N,SPI6_MISO*%
X85852000Y-78232000D03*
X85852000Y-121742200D03*
X102727500Y-78232000D03*
%TO.N,HRTIM_CHD2*%
X117373400Y-65125600D03*
X115290600Y-65201800D03*
X117373400Y-86588600D03*
X157657800Y-86175100D03*
%TO.N,TIM12_CH2_PHASE*%
X103809800Y-75590400D03*
X141376400Y-63195200D03*
X147802600Y-63220600D03*
X141351000Y-75438000D03*
%TO.N,HRTIM_CHB1_PHASE*%
X168681400Y-61925200D03*
X170281600Y-76606400D03*
X104343200Y-61925200D03*
X168760000Y-76606400D03*
%TO.N,HRTIM_CHD1*%
X159664400Y-65640700D03*
X115925600Y-66014600D03*
%TO.N,HRTIM_CHA2_PHASE*%
X171272200Y-61341000D03*
X104800400Y-61290200D03*
%TO.N,TIM1_CH3_PHASE*%
X96164400Y-68884800D03*
X87350600Y-68884800D03*
X159486600Y-95072200D03*
X87325200Y-94996000D03*
%TO.N,SPI6_NSS*%
X98806000Y-97561400D03*
X87147400Y-97586800D03*
X86766400Y-119354600D03*
%TO.N,TIM1_CH4*%
X114942100Y-88976200D03*
X116611400Y-66573400D03*
X106857800Y-88900000D03*
X139166600Y-67030600D03*
X146710400Y-66522600D03*
%TO.N,HRTIM_CHC2*%
X109067600Y-71195400D03*
X142011400Y-67030600D03*
X158165800Y-66649600D03*
X142011400Y-71195400D03*
%TO.N,TIM16_CH1_PHASE*%
X156514800Y-98163900D03*
X158585005Y-108474236D03*
X88177600Y-79596500D03*
X156514800Y-108458000D03*
X106807000Y-79756000D03*
X88163400Y-98425000D03*
%TO.N,TIM15_CH2_PHASE*%
X146989800Y-70154800D03*
X107315000Y-69773800D03*
%TO.N,TIM1_CH2*%
X158038800Y-97028000D03*
X105308400Y-97028000D03*
%TO.N,TIM1_CH3*%
X159080200Y-94107000D03*
X106299000Y-94081600D03*
%TO.N,TIM1_CH4_PHASE*%
X94792800Y-64160400D03*
X147345400Y-64160400D03*
%TO.N,TIM5_CH3_PHASE*%
X147472400Y-72415400D03*
X97332800Y-74093400D03*
X170272043Y-108089071D03*
X168267900Y-72415400D03*
X147497800Y-74168000D03*
X167868600Y-108229400D03*
%TO.N,TIM14_CH1*%
X158623000Y-77444600D03*
X157403800Y-78601200D03*
X100304600Y-79171800D03*
X157559211Y-77449980D03*
%TO.N,TIM4_CH4*%
X145001500Y-76370700D03*
X144983200Y-80695800D03*
X110007400Y-76454000D03*
X147040600Y-80848200D03*
%TO.N,HRTIM_CHA1_PHASE*%
X105283000Y-60876700D03*
X170611800Y-60876700D03*
%TO.N,TIM15_CH1_PHASE*%
X107314000Y-98043000D03*
X112903000Y-103581200D03*
X159537400Y-103606600D03*
X112826800Y-98044000D03*
%TO.N,TIM15_CH1*%
X97374859Y-71686500D03*
X159486600Y-107899200D03*
X155956000Y-107899200D03*
X155950500Y-71901900D03*
%TO.N,TIM4_CH1_PHASE*%
X108280200Y-78613000D03*
X151231600Y-69977000D03*
X147911300Y-72948800D03*
X151231600Y-72948800D03*
X144449800Y-78333600D03*
X144406100Y-69684900D03*
%TO.N,TIM4_CH3*%
X109575600Y-75209400D03*
X145891300Y-75184000D03*
%TO.N,TIM2_CH1*%
X144348200Y-80791900D03*
X169367200Y-88214200D03*
X97612200Y-80695800D03*
X144399000Y-88214200D03*
%TO.N,TIM4_CH2_PHASE*%
X159842200Y-85979000D03*
X157175200Y-88798400D03*
X157200600Y-85717900D03*
X107727500Y-88468200D03*
%TO.N,TIM14_CH1_PHASE*%
X158648400Y-76708000D03*
X165354000Y-77597000D03*
X105816400Y-82575400D03*
X165354000Y-83566000D03*
%TO.N,TIM2_CH1_PHASE*%
X86937100Y-87960200D03*
X170155069Y-87644585D03*
X94818200Y-71247000D03*
X86937100Y-71272400D03*
%TO.N,HRTIM_CHC1*%
X166954200Y-70884300D03*
X167088300Y-97942400D03*
X171119800Y-97942400D03*
X108356400Y-71488400D03*
%TO.N,TIM5_CH2*%
X144881600Y-81305400D03*
X144881600Y-87071200D03*
X98120200Y-81209300D03*
X169519600Y-87071200D03*
%TO.N,HRTIM_CHB2*%
X114528600Y-84175600D03*
X116179600Y-84175600D03*
X112953800Y-74060900D03*
X114528600Y-94633300D03*
X170180000Y-94633300D03*
X116179600Y-74041000D03*
%TO.N,TIM5_CH3*%
X97561400Y-81722800D03*
X170307000Y-108788200D03*
X166674800Y-81838800D03*
X166674800Y-108788200D03*
%TO.N,+1.8V*%
X171660096Y-96656595D03*
X160274000Y-74676000D03*
X148310600Y-85509003D03*
X142544800Y-83845400D03*
X171799288Y-64262000D03*
X135356600Y-57835800D03*
X160475500Y-92056800D03*
X172048700Y-81076800D03*
X171145200Y-81102200D03*
X160473300Y-70358000D03*
X171094400Y-70358000D03*
X159562800Y-81102200D03*
X160202274Y-106305021D03*
X148655300Y-92056800D03*
X160482500Y-81088800D03*
X172124900Y-112471200D03*
X160096200Y-96875600D03*
X132537200Y-83845400D03*
X171145200Y-102920800D03*
X133966857Y-83845400D03*
X159562800Y-102235000D03*
X148361400Y-74777600D03*
X171831000Y-74472800D03*
X160197800Y-85445311D03*
X172055700Y-70404000D03*
X159486600Y-112826800D03*
X136804400Y-60172600D03*
X163229800Y-56718200D03*
X172057900Y-102920800D03*
X137744200Y-57480200D03*
X171881800Y-106146600D03*
X141115142Y-83845400D03*
X148056600Y-100711000D03*
X147853400Y-80162400D03*
X171221400Y-112471200D03*
X148671500Y-70358000D03*
X172064900Y-92044800D03*
X132029200Y-86156800D03*
X138255828Y-83845400D03*
X147751800Y-70358000D03*
X160473300Y-103068400D03*
X135396514Y-83845400D03*
X159562800Y-70358000D03*
X140436600Y-86156800D03*
X134529200Y-86156800D03*
X147751800Y-92056800D03*
X159562800Y-92056800D03*
X136826171Y-83845400D03*
X148361400Y-64160400D03*
X142936600Y-86156800D03*
X160223200Y-64287400D03*
X171653178Y-85825740D03*
X139685485Y-83845400D03*
X148664500Y-81102200D03*
X171145200Y-92056800D03*
X160401000Y-112826800D03*
%TO.N,LDC0_INTB*%
X100812600Y-104267000D03*
X106527600Y-104292400D03*
%TO.N,LDC1_INTB*%
X101346000Y-103479600D03*
X95250000Y-104013000D03*
%TO.N,/Eddy Current Sensors/IN7B*%
X88087200Y-112598200D03*
X92913200Y-112522000D03*
%TO.N,/Eddy Current Sensors/IN5A*%
X88722200Y-110490000D03*
X97688400Y-110448800D03*
%TO.N,/Eddy Current Sensors/IN5B*%
X89687400Y-111048800D03*
X96240600Y-111048800D03*
%TO.N,/Eddy Current Sensors/IN4A*%
X101676200Y-109245400D03*
X87249000Y-109169200D03*
%TO.N,/Eddy Current Sensors/IN6A*%
X91355018Y-113121082D03*
%TO.N,/Eddy Current Sensors/IN4B*%
X100457000Y-109778800D03*
X87655400Y-109728000D03*
%TO.N,/Eddy Current Sensors/IN7A*%
X92326600Y-111887000D03*
X89417800Y-112072000D03*
%TO.N,EN_U13*%
X140462000Y-56896000D03*
X161798000Y-56896000D03*
%TO.N,EN_U16*%
X140462000Y-58801000D03*
X149987000Y-58801000D03*
%TD*%
D25*
%TO.N,/Eddy Current Sensors/IN5B*%
X89687400Y-111048800D02*
X96240600Y-111048800D01*
%TO.N,/Eddy Current Sensors/IN4B*%
X100406200Y-109728000D02*
X87655400Y-109728000D01*
X100457000Y-109778800D02*
X100406200Y-109728000D01*
%TO.N,/Eddy Current Sensors/IN7B*%
X92837000Y-112598200D02*
X88087200Y-112598200D01*
X92913200Y-112522000D02*
X92837000Y-112598200D01*
%TO.N,/Eddy Current Sensors/IN7A*%
X89602800Y-111887000D02*
X92326600Y-111887000D01*
X89417800Y-112072000D02*
X89602800Y-111887000D01*
%TO.N,/Eddy Current Sensors/IN4A*%
X87299800Y-109220000D02*
X101650800Y-109220000D01*
X87249000Y-109169200D02*
X87299800Y-109220000D01*
X101650800Y-109220000D02*
X101676200Y-109245400D01*
D26*
%TO.N,SPI6_NSS*%
X133985500Y-115214400D02*
X134581900Y-115214400D01*
X129845300Y-119354600D02*
X133985500Y-115214400D01*
X86766400Y-119354600D02*
X129845300Y-119354600D01*
D27*
%TO.N,+12V*%
X167157400Y-120319800D02*
X159181800Y-120319800D01*
X167784000Y-119693200D02*
X167157400Y-120319800D01*
X167784000Y-117322600D02*
X167784000Y-119693200D01*
X159181800Y-120319800D02*
X157198200Y-118336200D01*
D26*
%TO.N,SPI2_MOSI*%
X97561400Y-77698600D02*
X97561400Y-77266800D01*
X84741500Y-77031100D02*
X84734400Y-77038200D01*
D28*
X80213200Y-89204800D02*
X80137000Y-89128600D01*
D26*
X97561400Y-77266800D02*
X97325700Y-77031100D01*
X97325700Y-77031100D02*
X84741500Y-77031100D01*
D28*
X83108800Y-89204800D02*
X80213200Y-89204800D01*
%TO.N,SPI2_MISO*%
X80137000Y-91668600D02*
X83049534Y-91668600D01*
D26*
X113131600Y-91719400D02*
X113123134Y-91727866D01*
X113123134Y-91727866D02*
X83108800Y-91727866D01*
D28*
X83049534Y-91668600D02*
X83108800Y-91727866D01*
%TO.N,SPI2_NSS*%
X80137000Y-96748600D02*
X83083400Y-96748600D01*
D26*
X86283800Y-93599000D02*
X83108800Y-96774000D01*
D28*
X83083400Y-96748600D02*
X83108800Y-96774000D01*
D26*
X111506000Y-93599000D02*
X86283800Y-93599000D01*
%TO.N,SPI2_SCK*%
X97924678Y-80423500D02*
X97783478Y-80282300D01*
X105631500Y-80423500D02*
X97924678Y-80423500D01*
X84268732Y-93091000D02*
X83108800Y-94250932D01*
X97783478Y-80282300D02*
X89110300Y-80282300D01*
X89110300Y-80282300D02*
X88925400Y-80467200D01*
D28*
X80137000Y-94208600D02*
X83066468Y-94208600D01*
X83066468Y-94208600D02*
X83108800Y-94250932D01*
D26*
X88950800Y-93091000D02*
X84268732Y-93091000D01*
X105816400Y-80238600D02*
X105631500Y-80423500D01*
%TO.N,UART4_RX*%
X108229400Y-66421000D02*
X108146100Y-66337700D01*
X83050900Y-66337700D02*
X83032600Y-66319400D01*
X80137000Y-73609200D02*
X82905600Y-73609200D01*
X108146100Y-66337700D02*
X83050900Y-66337700D01*
X82905600Y-73609200D02*
X83108800Y-73406000D01*
%TO.N,UART4_TX*%
X82905600Y-78689200D02*
X83108800Y-78892400D01*
X97980981Y-65760600D02*
X98369081Y-65372500D01*
X81965800Y-65760600D02*
X97980981Y-65760600D01*
X81940400Y-65735200D02*
X81965800Y-65760600D01*
X98369081Y-65372500D02*
X108095300Y-65372500D01*
X80137000Y-78689200D02*
X82905600Y-78689200D01*
X108095300Y-65372500D02*
X108356400Y-65633600D01*
D25*
%TO.N,/Eddy Current Sensors/IN0B*%
X99857800Y-110794800D02*
X105887800Y-110794800D01*
X105887800Y-110794800D02*
X105892600Y-110799600D01*
%TO.N,/Eddy Current Sensors/IN0A*%
X99263200Y-112445800D02*
X107186600Y-112445800D01*
X107186600Y-112445800D02*
X107340400Y-112599600D01*
%TO.N,/Eddy Current Sensors/IN1B*%
X111425000Y-111404400D02*
X111420200Y-111399600D01*
X102493800Y-111399600D02*
X111420200Y-111399600D01*
%TO.N,/Eddy Current Sensors/IN1A*%
X112765000Y-111999600D02*
X102245271Y-111999600D01*
X102245271Y-111999600D02*
X102234271Y-111988600D01*
X112877600Y-111887000D02*
X112765000Y-111999600D01*
X102234271Y-111988600D02*
X101210200Y-111988600D01*
X101210200Y-111988600D02*
X101057800Y-111836200D01*
%TO.N,/Eddy Current Sensors/IN2B*%
X115570000Y-110388400D02*
X107153707Y-110388400D01*
X106960107Y-110194800D02*
X104931100Y-110194800D01*
X107153707Y-110388400D02*
X106960107Y-110194800D01*
X115595400Y-110413800D02*
X115570000Y-110388400D01*
%TO.N,/Eddy Current Sensors/IN2A*%
X116636800Y-115671600D02*
X117017800Y-116052600D01*
X103276400Y-115671600D02*
X116636800Y-115671600D01*
X117017800Y-116052600D02*
X117017800Y-117119400D01*
%TO.N,/Eddy Current Sensors/IN3B*%
X119761000Y-110972600D02*
X119735600Y-110947200D01*
X113822200Y-110799600D02*
X106857800Y-110799600D01*
X119735600Y-110947200D02*
X113969800Y-110947200D01*
X113969800Y-110947200D02*
X113822200Y-110799600D01*
%TO.N,/Eddy Current Sensors/IN3A*%
X121157800Y-110642400D02*
X120310200Y-109794800D01*
X120310200Y-109794800D02*
X105663919Y-109794800D01*
X105663919Y-109794800D02*
X105431100Y-109561981D01*
D26*
%TO.N,HRTIM_CHC2_OUT1*%
X157353000Y-67462400D02*
X157632400Y-67183000D01*
X154000200Y-67462400D02*
X157353000Y-67462400D01*
%TO.N,ACTUATOR_ENABLE_MCU*%
X115754322Y-65601100D02*
X142570200Y-65601100D01*
X115391622Y-65963800D02*
X115754322Y-65601100D01*
X109778800Y-65963800D02*
X115391622Y-65963800D01*
D25*
%TO.N,/MCU/BOOT0*%
X100914200Y-66751200D02*
X88569800Y-66751200D01*
D29*
%TO.N,TIM2_CH4_LDC*%
X110007400Y-105892600D02*
X97002600Y-105892600D01*
D26*
%TO.N,I2C4_SDA*%
X110686100Y-99854500D02*
X110679000Y-99847400D01*
X97815400Y-99847400D02*
X95072200Y-99847400D01*
X94157800Y-83667600D02*
X94183200Y-83693000D01*
X99085400Y-83693000D02*
X99796600Y-82981800D01*
X110679000Y-99847400D02*
X97815400Y-99847400D01*
X99796600Y-82981800D02*
X99796600Y-82270600D01*
X94183200Y-83693000D02*
X99085400Y-83693000D01*
%TO.N,I2C4_SCL*%
X93548200Y-84226400D02*
X100126800Y-84226400D01*
X98323400Y-100761800D02*
X98330500Y-100768900D01*
X98330500Y-100768900D02*
X111067100Y-100768900D01*
X94589600Y-100761800D02*
X98323400Y-100761800D01*
X111067100Y-100768900D02*
X111099600Y-100736400D01*
X93522800Y-84251800D02*
X93548200Y-84226400D01*
X100126800Y-84226400D02*
X101803200Y-82550000D01*
X111074200Y-107823000D02*
X107137200Y-107823000D01*
%TO.N,HRTIM_CHD1_PHASE*%
X114340464Y-77591500D02*
X156972000Y-77591500D01*
X159029400Y-64795400D02*
X156921200Y-64795400D01*
X114251196Y-77680768D02*
X114340464Y-77591500D01*
X156972000Y-77591500D02*
X156977500Y-77597000D01*
%TO.N,TIM8_CH4_PHASE*%
X146735222Y-83007200D02*
X146278022Y-82550000D01*
X171831000Y-75405400D02*
X171773000Y-75463400D01*
X146278022Y-82550000D02*
X110723379Y-82550000D01*
X107784071Y-83019071D02*
X106908600Y-82143600D01*
X171773000Y-75463400D02*
X169189400Y-75463400D01*
X106908600Y-82143600D02*
X103860600Y-82143600D01*
X103860600Y-82143600D02*
X103301800Y-82702400D01*
X110254308Y-83019071D02*
X107784071Y-83019071D01*
X169164000Y-83007200D02*
X146735222Y-83007200D01*
X110723379Y-82550000D02*
X110254308Y-83019071D01*
%TO.N,TIM12_CH2*%
X143992600Y-65582800D02*
X147726400Y-65582800D01*
X143972700Y-80182300D02*
X143992600Y-80162400D01*
X147726400Y-65582800D02*
X147751800Y-65557400D01*
X112979200Y-80182300D02*
X143972700Y-80182300D01*
%TO.N,TIM1_CH2_PHASE*%
X154686000Y-98806000D02*
X158496000Y-98806000D01*
X154686000Y-63746900D02*
X99542600Y-63746900D01*
%TO.N,HRTIM_CHA2*%
X110236000Y-74701400D02*
X143383000Y-74701400D01*
X148006378Y-65227200D02*
X171145200Y-65227200D01*
X147923078Y-65143900D02*
X148006378Y-65227200D01*
X143383000Y-65151000D02*
X147573422Y-65151000D01*
X147573422Y-65151000D02*
X147580522Y-65143900D01*
X147580522Y-65143900D02*
X147923078Y-65143900D01*
%TO.N,TIM8_CH4*%
X171366700Y-70866000D02*
X168122600Y-70866000D01*
X167963100Y-68445900D02*
X168122600Y-68605400D01*
X116215600Y-68445900D02*
X167963100Y-68445900D01*
X171417500Y-70916800D02*
X171366700Y-70866000D01*
X115943300Y-68718200D02*
X116215600Y-68445900D01*
%TO.N,TIM15_CH2*%
X145067659Y-72559742D02*
X145202301Y-72425100D01*
X145762341Y-72559742D02*
X146498668Y-72559742D01*
X145202301Y-72425100D02*
X145627699Y-72425100D01*
X145627699Y-72425100D02*
X145762341Y-72559742D01*
X97383600Y-72517000D02*
X97426342Y-72559742D01*
X146498668Y-72559742D02*
X146544815Y-72605889D01*
X97426342Y-72559742D02*
X145067659Y-72559742D01*
%TO.N,TIM16_CH1*%
X155016200Y-109067600D02*
X158496000Y-109067600D01*
X143802444Y-104902000D02*
X155016200Y-104902000D01*
X86512400Y-104876600D02*
X143777044Y-104876600D01*
X143777044Y-104876600D02*
X143802444Y-104902000D01*
X100279200Y-70764400D02*
X86461600Y-70764400D01*
%TO.N,TIM13_CH1*%
X99814000Y-98952511D02*
X99916811Y-98849700D01*
X99916811Y-98849700D02*
X140175500Y-98849700D01*
X168351200Y-107442000D02*
X171196000Y-107442000D01*
X168243900Y-99219500D02*
X168262200Y-99237800D01*
X140545300Y-99219500D02*
X168243900Y-99219500D01*
X140175500Y-98849700D02*
X140545300Y-99219500D01*
%TO.N,TIM5_CH2_PHASE*%
X168362200Y-86156800D02*
X171153091Y-86156800D01*
X97966902Y-73679900D02*
X98194702Y-73452100D01*
X168357500Y-73452100D02*
X168362200Y-73456800D01*
X171153091Y-86156800D02*
X171323043Y-86326752D01*
X98194702Y-73452100D02*
X168357500Y-73452100D01*
%TO.N,HRTIM_CHB1*%
X170205400Y-77348122D02*
X170200278Y-77343000D01*
X167513000Y-67995800D02*
X167487600Y-67995800D01*
X116197900Y-67995800D02*
X167513000Y-67995800D01*
X170200278Y-77343000D02*
X167521700Y-77343000D01*
%TO.N,HRTIM_CHA1*%
X169189400Y-66548000D02*
X170230800Y-66548000D01*
X113129318Y-76040500D02*
X113212618Y-75957200D01*
X144703800Y-71297800D02*
X144653000Y-71348600D01*
X113212618Y-75957200D02*
X144521900Y-75957200D01*
X169164000Y-66522600D02*
X169189400Y-66548000D01*
X169138600Y-71297800D02*
X144703800Y-71297800D01*
X144521900Y-75957200D02*
X144653000Y-75826100D01*
%TO.N,SPI6_MOSI*%
X86233000Y-124079000D02*
X141122400Y-124079000D01*
X85344000Y-123190000D02*
X86233000Y-124079000D01*
X142138400Y-123063000D02*
X142138400Y-118986800D01*
X141122400Y-124079000D02*
X142138400Y-123063000D01*
X102314000Y-80010000D02*
X85344000Y-80010000D01*
%TO.N,HRTIM_CHD2_PHASE*%
X155346400Y-86588600D02*
X155651200Y-86588600D01*
X155276500Y-77133500D02*
X155346400Y-77063600D01*
X113780953Y-77232019D02*
X113879472Y-77133500D01*
X113879472Y-77133500D02*
X155276500Y-77133500D01*
X155651200Y-86588600D02*
X158673800Y-86588600D01*
%TO.N,HRTIM_CHB2_PHASE*%
X166243000Y-95808800D02*
X170611800Y-95808800D01*
X104140000Y-62687200D02*
X103809800Y-63017400D01*
X166674800Y-62611000D02*
X166598600Y-62687200D01*
X166598600Y-62687200D02*
X104140000Y-62687200D01*
X166217600Y-95783400D02*
X166243000Y-95808800D01*
%TO.N,TIM4_CH2*%
X148157622Y-84277200D02*
X159334200Y-84277200D01*
X87789500Y-85242400D02*
X147192422Y-85242400D01*
X101276900Y-70350900D02*
X87764100Y-70350900D01*
X159334200Y-84277200D02*
X159359600Y-84302600D01*
X147192422Y-85242400D02*
X148157622Y-84277200D01*
X101320600Y-70307200D02*
X101276900Y-70350900D01*
X87764100Y-85217000D02*
X87789500Y-85242400D01*
%TO.N,HRTIM_CHC1_PHASE*%
X171201683Y-97240700D02*
X170887383Y-96926400D01*
X167435200Y-79019400D02*
X167430500Y-79014700D01*
X170887383Y-96926400D02*
X167435200Y-96926400D01*
X145953100Y-79014700D02*
X145237200Y-79730600D01*
X152860010Y-79014700D02*
X145953100Y-79014700D01*
X152864710Y-79019400D02*
X152860010Y-79014700D01*
X157089490Y-79019400D02*
X152864710Y-79019400D01*
X157094190Y-79014700D02*
X157089490Y-79019400D01*
X145237200Y-79730600D02*
X109321600Y-79730600D01*
X109321600Y-79730600D02*
X109169200Y-79883000D01*
X167430500Y-79014700D02*
X157094190Y-79014700D01*
%TO.N,TIM4_CH3_PHASE*%
X146378599Y-82065799D02*
X107865099Y-82065799D01*
X107865099Y-82065799D02*
X107797600Y-81998300D01*
X146583400Y-82270600D02*
X146378599Y-82065799D01*
%TO.N,TIM13_CH1_PHASE*%
X168826700Y-97466900D02*
X168833800Y-97459800D01*
X104858300Y-97466900D02*
X168826700Y-97466900D01*
X104825800Y-97434400D02*
X104858300Y-97466900D01*
X168833800Y-106807000D02*
X171653200Y-106807000D01*
X171653200Y-106807000D02*
X171704000Y-106756200D01*
%TO.N,HRTIM_CHC2_PHASE*%
X158623000Y-66192400D02*
X156464000Y-66192400D01*
X156464000Y-78105000D02*
X156177500Y-77818500D01*
X115094500Y-77818500D02*
X114808000Y-78105000D01*
X156177500Y-77818500D02*
X115094500Y-77818500D01*
%TO.N,TIM4_CH1*%
X113345818Y-76768519D02*
X113234860Y-76879477D01*
X147802600Y-76174600D02*
X146050000Y-76174600D01*
X113988622Y-76784200D02*
X113972941Y-76768519D01*
X146050000Y-76174600D02*
X145440400Y-76784200D01*
X145440400Y-76784200D02*
X113988622Y-76784200D01*
X113972941Y-76768519D02*
X113345818Y-76768519D01*
%TO.N,TIM4_CH4_PHASE*%
X145415000Y-72938600D02*
X145280358Y-73073242D01*
X145566897Y-86156297D02*
X145415000Y-86004400D01*
X147931768Y-86156297D02*
X145566897Y-86156297D01*
X145280358Y-73073242D02*
X97617660Y-73073242D01*
%TO.N,SPI6_SCK*%
X135598400Y-120446800D02*
X137058400Y-118986800D01*
X84709000Y-120446800D02*
X135598400Y-120446800D01*
X99314000Y-96545400D02*
X84683600Y-96545400D01*
%TO.N,TIM1_CH1_PHASE*%
X160197800Y-75438000D02*
X155194000Y-75438000D01*
X99956100Y-64573900D02*
X147674104Y-64573900D01*
X148100404Y-65000200D02*
X154963800Y-65000200D01*
X154963800Y-65000200D02*
X155194000Y-64770000D01*
X147674104Y-64573900D02*
X148100404Y-65000200D01*
%TO.N,TIM1_CH1*%
X159033454Y-69494400D02*
X145566822Y-69494400D01*
X159035165Y-69492689D02*
X159033454Y-69494400D01*
X105036100Y-69131700D02*
X104317800Y-69850000D01*
X145204122Y-69131700D02*
X105036100Y-69131700D01*
X145566822Y-69494400D02*
X145204122Y-69131700D01*
%TO.N,SPI6_MISO*%
X85852000Y-121742200D02*
X86944200Y-122834400D01*
X138785600Y-122834400D02*
X139598400Y-122021600D01*
X139598400Y-122021600D02*
X139598400Y-118986800D01*
X86944200Y-122834400D02*
X138785600Y-122834400D01*
X102727500Y-78232000D02*
X85852000Y-78232000D01*
%TO.N,HRTIM_CHD2*%
X157657800Y-86175100D02*
X155175122Y-86175100D01*
X155175122Y-86175100D02*
X154761622Y-86588600D01*
X117297200Y-65201800D02*
X115290600Y-65201800D01*
X117373400Y-65125600D02*
X117297200Y-65201800D01*
X154761622Y-86588600D02*
X117373400Y-86588600D01*
%TO.N,TIM12_CH2_PHASE*%
X141198600Y-75590400D02*
X141351000Y-75438000D01*
X141376400Y-63195200D02*
X147777200Y-63195200D01*
X141097000Y-75590400D02*
X141198600Y-75590400D01*
X147777200Y-63195200D02*
X147802600Y-63220600D01*
X103846400Y-75627000D02*
X141060400Y-75627000D01*
X141060400Y-75627000D02*
X141097000Y-75590400D01*
X103809800Y-75590400D02*
X103846400Y-75627000D01*
%TO.N,HRTIM_CHB1_PHASE*%
X168681400Y-61925200D02*
X104343200Y-61925200D01*
X168760000Y-76606400D02*
X170281600Y-76606400D01*
%TO.N,HRTIM_CHD1*%
X156057022Y-66014600D02*
X156430922Y-65640700D01*
X156430922Y-65640700D02*
X159664400Y-65640700D01*
X115925600Y-66014600D02*
X156057022Y-66014600D01*
%TO.N,HRTIM_CHA2_PHASE*%
X171221400Y-61290200D02*
X171272200Y-61341000D01*
X104800400Y-61290200D02*
X171221400Y-61290200D01*
%TO.N,TIM1_CH3_PHASE*%
X87376000Y-95046800D02*
X159461200Y-95046800D01*
X159461200Y-95046800D02*
X159486600Y-95072200D01*
X87325200Y-94996000D02*
X87376000Y-95046800D01*
X87350600Y-68884800D02*
X96164400Y-68884800D01*
%TO.N,SPI6_NSS*%
X98806000Y-97561400D02*
X87172800Y-97561400D01*
X87172800Y-97561400D02*
X87147400Y-97586800D01*
%TO.N,TIM1_CH4*%
X146710400Y-66522600D02*
X146253200Y-66522600D01*
X139166600Y-66573400D02*
X116611400Y-66573400D01*
X139166600Y-66573400D02*
X139166600Y-67030600D01*
X114865900Y-88900000D02*
X114942100Y-88976200D01*
X146093700Y-66363100D02*
X141840122Y-66363100D01*
X146253200Y-66522600D02*
X146093700Y-66363100D01*
X141840122Y-66363100D02*
X141629822Y-66573400D01*
X106857800Y-88900000D02*
X114865900Y-88900000D01*
X141629822Y-66573400D02*
X139166600Y-66573400D01*
%TO.N,HRTIM_CHC2*%
X109067600Y-71195400D02*
X142011400Y-71195400D01*
X142087600Y-66954400D02*
X147091978Y-66954400D01*
X147091978Y-66954400D02*
X147345978Y-66700400D01*
X147345978Y-66700400D02*
X158115000Y-66700400D01*
X158115000Y-66700400D02*
X158165800Y-66649600D01*
X142011400Y-67030600D02*
X142087600Y-66954400D01*
%TO.N,TIM16_CH1_PHASE*%
X156531036Y-108474236D02*
X158585005Y-108474236D01*
X88273889Y-79692789D02*
X88177600Y-79596500D01*
X88277411Y-98539011D02*
X131381211Y-98539011D01*
X102913700Y-79596500D02*
X101683300Y-79596500D01*
X131756322Y-98163900D02*
X156514800Y-98163900D01*
X101587011Y-79692789D02*
X88273889Y-79692789D01*
X131381211Y-98539011D02*
X131756322Y-98163900D01*
X88163400Y-98425000D02*
X88277411Y-98539011D01*
X156514800Y-108458000D02*
X156531036Y-108474236D01*
X103073200Y-79756000D02*
X102913700Y-79596500D01*
X101683300Y-79596500D02*
X101587011Y-79692789D01*
X106807000Y-79756000D02*
X103073200Y-79756000D01*
%TO.N,TIM15_CH2_PHASE*%
X110210600Y-69900800D02*
X107442000Y-69900800D01*
X146989800Y-70154800D02*
X146803300Y-69968300D01*
X107442000Y-69900800D02*
X107315000Y-69773800D01*
X110464600Y-70154800D02*
X110210600Y-69900800D01*
X146616800Y-70154800D02*
X110464600Y-70154800D01*
X146803300Y-69968300D02*
X146616800Y-70154800D01*
%TO.N,TIM1_CH2*%
X105308400Y-97028000D02*
X158038800Y-97028000D01*
%TO.N,TIM1_CH3*%
X159054800Y-94081600D02*
X159080200Y-94107000D01*
X106299000Y-94081600D02*
X159054800Y-94081600D01*
%TO.N,TIM1_CH4_PHASE*%
X94792800Y-64160400D02*
X147345400Y-64160400D01*
%TO.N,TIM5_CH3_PHASE*%
X167868600Y-108229400D02*
X170131714Y-108229400D01*
X168267900Y-72415400D02*
X147472400Y-72415400D01*
X110593778Y-74474400D02*
X110212778Y-74093400D01*
X110212778Y-74093400D02*
X97332800Y-74093400D01*
X170131714Y-108229400D02*
X170272043Y-108089071D01*
X143025222Y-74474400D02*
X110593778Y-74474400D01*
X143331622Y-74168000D02*
X143025222Y-74474400D01*
X147497800Y-74168000D02*
X143331622Y-74168000D01*
%TO.N,TIM14_CH1*%
X100304600Y-79171800D02*
X100311700Y-79178900D01*
X100311700Y-79178900D02*
X145467874Y-79178900D01*
X146045574Y-78601200D02*
X157403800Y-78601200D01*
X158617620Y-77449980D02*
X158623000Y-77444600D01*
X145467874Y-79178900D02*
X146045574Y-78601200D01*
X157559211Y-77449980D02*
X158617620Y-77449980D01*
%TO.N,TIM4_CH4*%
X146996100Y-80803700D02*
X147040600Y-80848200D01*
X145091100Y-80803700D02*
X146996100Y-80803700D01*
X144956223Y-76415977D02*
X114515823Y-76415977D01*
X114477800Y-76454000D02*
X110007400Y-76454000D01*
X145001500Y-76370700D02*
X144956223Y-76415977D01*
X144983200Y-80695800D02*
X145091100Y-80803700D01*
X114515823Y-76415977D02*
X114477800Y-76454000D01*
%TO.N,HRTIM_CHA1_PHASE*%
X105283000Y-60876700D02*
X170611800Y-60876700D01*
%TO.N,TIM15_CH1_PHASE*%
X112825800Y-98043000D02*
X112826800Y-98044000D01*
X159512000Y-103581200D02*
X159537400Y-103606600D01*
X112903000Y-103581200D02*
X159512000Y-103581200D01*
X107314000Y-98043000D02*
X112825800Y-98043000D01*
%TO.N,TIM15_CH1*%
X155956000Y-107899200D02*
X159486600Y-107899200D01*
X97374859Y-71686500D02*
X107094100Y-71686500D01*
X107309500Y-71901900D02*
X155950500Y-71901900D01*
X107094100Y-71686500D02*
X107309500Y-71901900D01*
%TO.N,TIM4_CH1_PHASE*%
X108280200Y-78613000D02*
X132079422Y-78613000D01*
X144406100Y-69684900D02*
X144462500Y-69741300D01*
X132079422Y-78613000D02*
X132365922Y-78326500D01*
X144462500Y-69741300D02*
X147161078Y-69741300D01*
X144442700Y-78326500D02*
X144449800Y-78333600D01*
X147295178Y-69875400D02*
X151130000Y-69875400D01*
X147161078Y-69741300D02*
X147295178Y-69875400D01*
X151231600Y-72948800D02*
X147911300Y-72948800D01*
X132365922Y-78326500D02*
X144442700Y-78326500D01*
X151130000Y-69875400D02*
X151231600Y-69977000D01*
%TO.N,TIM4_CH3*%
X139623800Y-75209400D02*
X109575600Y-75209400D01*
X142697200Y-74980800D02*
X139852400Y-74980800D01*
X145891300Y-75184000D02*
X142900400Y-75184000D01*
X142900400Y-75184000D02*
X142697200Y-74980800D01*
X139852400Y-74980800D02*
X139623800Y-75209400D01*
%TO.N,TIM2_CH1*%
X144348200Y-80791900D02*
X144252100Y-80695800D01*
X144399000Y-88214200D02*
X169367200Y-88214200D01*
X144252100Y-80695800D02*
X97612200Y-80695800D01*
%TO.N,TIM4_CH2_PHASE*%
X125551622Y-88798400D02*
X157175200Y-88798400D01*
X159842200Y-85979000D02*
X159581100Y-85717900D01*
X125221422Y-88468200D02*
X125551622Y-88798400D01*
X159581100Y-85717900D02*
X157200600Y-85717900D01*
X107727500Y-88468200D02*
X125221422Y-88468200D01*
%TO.N,TIM14_CH1_PHASE*%
X164465000Y-76835000D02*
X165227000Y-77597000D01*
X120015000Y-83058000D02*
X145923000Y-83058000D01*
X145923000Y-83058000D02*
X146431000Y-83566000D01*
X158775400Y-76835000D02*
X164465000Y-76835000D01*
X158648400Y-76708000D02*
X158775400Y-76835000D01*
X146431000Y-83566000D02*
X165354000Y-83566000D01*
X165227000Y-77597000D02*
X165354000Y-77597000D01*
X119826929Y-83246071D02*
X120015000Y-83058000D01*
X105816400Y-82575400D02*
X106487071Y-83246071D01*
X106487071Y-83246071D02*
X119826929Y-83246071D01*
%TO.N,TIM2_CH1_PHASE*%
X110748700Y-87777700D02*
X128605010Y-87777700D01*
X94792800Y-71272400D02*
X94818200Y-71247000D01*
X144003001Y-87884000D02*
X144242416Y-87644585D01*
X86937100Y-87960200D02*
X110566200Y-87960200D01*
X128605010Y-87777700D02*
X128711310Y-87884000D01*
X144242416Y-87644585D02*
X170155069Y-87644585D01*
X110566200Y-87960200D02*
X110748700Y-87777700D01*
X86937100Y-71272400D02*
X94792800Y-71272400D01*
X128711310Y-87884000D02*
X144003001Y-87884000D01*
%TO.N,HRTIM_CHC1*%
X166881400Y-70957100D02*
X166954200Y-70884300D01*
X108476900Y-71608900D02*
X143579900Y-71608900D01*
X144253700Y-70935100D02*
X148457512Y-70935100D01*
X143579900Y-71608900D02*
X144253700Y-70935100D01*
X108356400Y-71488400D02*
X108476900Y-71608900D01*
X148457512Y-70935100D02*
X148479512Y-70957100D01*
X167088300Y-97942400D02*
X171119800Y-97942400D01*
X148479512Y-70957100D02*
X166881400Y-70957100D01*
%TO.N,TIM5_CH2*%
X144104601Y-81305400D02*
X144881600Y-81305400D01*
X144008501Y-81209300D02*
X144104601Y-81305400D01*
X98120200Y-81209300D02*
X144008501Y-81209300D01*
X144881600Y-87071200D02*
X169519600Y-87071200D01*
%TO.N,HRTIM_CHB2*%
X116159700Y-74060900D02*
X116179600Y-74041000D01*
X112953800Y-74060900D02*
X116159700Y-74060900D01*
X116179600Y-84175600D02*
X114528600Y-84175600D01*
X170180000Y-94633300D02*
X114528600Y-94633300D01*
%TO.N,TIM5_CH3*%
X98329478Y-81584800D02*
X144576222Y-81584800D01*
X144576222Y-81584800D02*
X144830222Y-81838800D01*
X97561400Y-81722800D02*
X98191478Y-81722800D01*
X166674800Y-108788200D02*
X170307000Y-108788200D01*
X98191478Y-81722800D02*
X98329478Y-81584800D01*
X144830222Y-81838800D02*
X166674800Y-81838800D01*
%TO.N,LDC0_INTB*%
X100812600Y-104267000D02*
X106502200Y-104267000D01*
X106502200Y-104267000D02*
X106527600Y-104292400D01*
%TO.N,LDC1_INTB*%
X101313500Y-103447100D02*
X101346000Y-103479600D01*
X95815900Y-103447100D02*
X101313500Y-103447100D01*
X95250000Y-104013000D02*
X95815900Y-103447100D01*
D25*
%TO.N,/Eddy Current Sensors/IN5A*%
X88763400Y-110448800D02*
X88722200Y-110490000D01*
X97688400Y-110448800D02*
X88763400Y-110448800D01*
%TO.N,/Eddy Current Sensors/IN6A*%
X93345000Y-113157000D02*
X93557800Y-113369800D01*
X91355018Y-113121082D02*
X91390936Y-113157000D01*
X93557800Y-113369800D02*
X93557800Y-114274600D01*
X91390936Y-113157000D02*
X93345000Y-113157000D01*
D26*
%TO.N,EN_U13*%
X140462000Y-56896000D02*
X161798000Y-56896000D01*
%TO.N,EN_U16*%
X140462000Y-58801000D02*
X149987000Y-58801000D01*
%TD*%
M02*
