%TF.GenerationSoftware,KiCad,Pcbnew,8.0.1*%
%TF.CreationDate,2024-11-04T21:37:07-08:00*%
%TF.ProjectId,kasm_pcb_rev2,6b61736d-5f70-4636-925f-726576322e6b,rev?*%
%TF.SameCoordinates,Original*%
%TF.FileFunction,Legend,Bot*%
%TF.FilePolarity,Positive*%
%FSLAX46Y46*%
G04 Gerber Fmt 4.6, Leading zero omitted, Abs format (unit mm)*
G04 Created by KiCad (PCBNEW 8.0.1) date 2024-11-04 21:37:07*
%MOMM*%
%LPD*%
G01*
G04 APERTURE LIST*
G04 Aperture macros list*
%AMRoundRect*
0 Rectangle with rounded corners*
0 $1 Rounding radius*
0 $2 $3 $4 $5 $6 $7 $8 $9 X,Y pos of 4 corners*
0 Add a 4 corners polygon primitive as box body*
4,1,4,$2,$3,$4,$5,$6,$7,$8,$9,$2,$3,0*
0 Add four circle primitives for the rounded corners*
1,1,$1+$1,$2,$3*
1,1,$1+$1,$4,$5*
1,1,$1+$1,$6,$7*
1,1,$1+$1,$8,$9*
0 Add four rect primitives between the rounded corners*
20,1,$1+$1,$2,$3,$4,$5,0*
20,1,$1+$1,$4,$5,$6,$7,0*
20,1,$1+$1,$6,$7,$8,$9,0*
20,1,$1+$1,$8,$9,$2,$3,0*%
G04 Aperture macros list end*
%ADD10C,0.100000*%
%ADD11C,0.508000*%
%ADD12C,0.000000*%
%ADD13C,4.395000*%
%ADD14RoundRect,0.102000X-0.781050X-0.781050X0.781050X-0.781050X0.781050X0.781050X-0.781050X0.781050X0*%
%ADD15C,1.766100*%
%ADD16R,1.000000X1.000000*%
%ADD17RoundRect,0.250000X1.330000X1.800000X-1.330000X1.800000X-1.330000X-1.800000X1.330000X-1.800000X0*%
%ADD18O,3.160000X4.100000*%
%ADD19C,5.600000*%
%ADD20C,1.574800*%
%ADD21C,1.575000*%
%ADD22C,5.175000*%
%ADD23C,1.000000*%
%ADD24R,1.700000X1.700000*%
%ADD25O,1.700000X1.700000*%
G04 APERTURE END LIST*
D10*
X124330734Y-120353960D02*
X123854544Y-120353960D01*
X124425972Y-120639675D02*
X124092639Y-119639675D01*
X124092639Y-119639675D02*
X123759306Y-120639675D01*
X123283115Y-120639675D02*
X123378353Y-120592056D01*
X123378353Y-120592056D02*
X123425972Y-120496817D01*
X123425972Y-120496817D02*
X123425972Y-119639675D01*
X122759305Y-120639675D02*
X122854543Y-120592056D01*
X122854543Y-120592056D02*
X122902162Y-120496817D01*
X122902162Y-120496817D02*
X122902162Y-119639675D01*
X121187876Y-120639675D02*
X121187876Y-119639675D01*
X121187876Y-120592056D02*
X121283114Y-120639675D01*
X121283114Y-120639675D02*
X121473590Y-120639675D01*
X121473590Y-120639675D02*
X121568828Y-120592056D01*
X121568828Y-120592056D02*
X121616447Y-120544436D01*
X121616447Y-120544436D02*
X121664066Y-120449198D01*
X121664066Y-120449198D02*
X121664066Y-120163484D01*
X121664066Y-120163484D02*
X121616447Y-120068246D01*
X121616447Y-120068246D02*
X121568828Y-120020627D01*
X121568828Y-120020627D02*
X121473590Y-119973008D01*
X121473590Y-119973008D02*
X121283114Y-119973008D01*
X121283114Y-119973008D02*
X121187876Y-120020627D01*
X120330733Y-120592056D02*
X120425971Y-120639675D01*
X120425971Y-120639675D02*
X120616447Y-120639675D01*
X120616447Y-120639675D02*
X120711685Y-120592056D01*
X120711685Y-120592056D02*
X120759304Y-120496817D01*
X120759304Y-120496817D02*
X120759304Y-120115865D01*
X120759304Y-120115865D02*
X120711685Y-120020627D01*
X120711685Y-120020627D02*
X120616447Y-119973008D01*
X120616447Y-119973008D02*
X120425971Y-119973008D01*
X120425971Y-119973008D02*
X120330733Y-120020627D01*
X120330733Y-120020627D02*
X120283114Y-120115865D01*
X120283114Y-120115865D02*
X120283114Y-120211103D01*
X120283114Y-120211103D02*
X120759304Y-120306341D01*
X119902161Y-120592056D02*
X119806923Y-120639675D01*
X119806923Y-120639675D02*
X119616447Y-120639675D01*
X119616447Y-120639675D02*
X119521209Y-120592056D01*
X119521209Y-120592056D02*
X119473590Y-120496817D01*
X119473590Y-120496817D02*
X119473590Y-120449198D01*
X119473590Y-120449198D02*
X119521209Y-120353960D01*
X119521209Y-120353960D02*
X119616447Y-120306341D01*
X119616447Y-120306341D02*
X119759304Y-120306341D01*
X119759304Y-120306341D02*
X119854542Y-120258722D01*
X119854542Y-120258722D02*
X119902161Y-120163484D01*
X119902161Y-120163484D02*
X119902161Y-120115865D01*
X119902161Y-120115865D02*
X119854542Y-120020627D01*
X119854542Y-120020627D02*
X119759304Y-119973008D01*
X119759304Y-119973008D02*
X119616447Y-119973008D01*
X119616447Y-119973008D02*
X119521209Y-120020627D01*
X119045018Y-120639675D02*
X119045018Y-119973008D01*
X119045018Y-119639675D02*
X119092637Y-119687294D01*
X119092637Y-119687294D02*
X119045018Y-119734913D01*
X119045018Y-119734913D02*
X118997399Y-119687294D01*
X118997399Y-119687294D02*
X119045018Y-119639675D01*
X119045018Y-119639675D02*
X119045018Y-119734913D01*
X118140257Y-119973008D02*
X118140257Y-120782532D01*
X118140257Y-120782532D02*
X118187876Y-120877770D01*
X118187876Y-120877770D02*
X118235495Y-120925389D01*
X118235495Y-120925389D02*
X118330733Y-120973008D01*
X118330733Y-120973008D02*
X118473590Y-120973008D01*
X118473590Y-120973008D02*
X118568828Y-120925389D01*
X118140257Y-120592056D02*
X118235495Y-120639675D01*
X118235495Y-120639675D02*
X118425971Y-120639675D01*
X118425971Y-120639675D02*
X118521209Y-120592056D01*
X118521209Y-120592056D02*
X118568828Y-120544436D01*
X118568828Y-120544436D02*
X118616447Y-120449198D01*
X118616447Y-120449198D02*
X118616447Y-120163484D01*
X118616447Y-120163484D02*
X118568828Y-120068246D01*
X118568828Y-120068246D02*
X118521209Y-120020627D01*
X118521209Y-120020627D02*
X118425971Y-119973008D01*
X118425971Y-119973008D02*
X118235495Y-119973008D01*
X118235495Y-119973008D02*
X118140257Y-120020627D01*
X117664066Y-119973008D02*
X117664066Y-120639675D01*
X117664066Y-120068246D02*
X117616447Y-120020627D01*
X117616447Y-120020627D02*
X117521209Y-119973008D01*
X117521209Y-119973008D02*
X117378352Y-119973008D01*
X117378352Y-119973008D02*
X117283114Y-120020627D01*
X117283114Y-120020627D02*
X117235495Y-120115865D01*
X117235495Y-120115865D02*
X117235495Y-120639675D01*
X116140256Y-119973008D02*
X115759304Y-119973008D01*
X115997399Y-120639675D02*
X115997399Y-119782532D01*
X115997399Y-119782532D02*
X115949780Y-119687294D01*
X115949780Y-119687294D02*
X115854542Y-119639675D01*
X115854542Y-119639675D02*
X115759304Y-119639675D01*
X115425970Y-120639675D02*
X115425970Y-119973008D01*
X115425970Y-119639675D02*
X115473589Y-119687294D01*
X115473589Y-119687294D02*
X115425970Y-119734913D01*
X115425970Y-119734913D02*
X115378351Y-119687294D01*
X115378351Y-119687294D02*
X115425970Y-119639675D01*
X115425970Y-119639675D02*
X115425970Y-119734913D01*
X114806923Y-120639675D02*
X114902161Y-120592056D01*
X114902161Y-120592056D02*
X114949780Y-120496817D01*
X114949780Y-120496817D02*
X114949780Y-119639675D01*
X114045018Y-120592056D02*
X114140256Y-120639675D01*
X114140256Y-120639675D02*
X114330732Y-120639675D01*
X114330732Y-120639675D02*
X114425970Y-120592056D01*
X114425970Y-120592056D02*
X114473589Y-120496817D01*
X114473589Y-120496817D02*
X114473589Y-120115865D01*
X114473589Y-120115865D02*
X114425970Y-120020627D01*
X114425970Y-120020627D02*
X114330732Y-119973008D01*
X114330732Y-119973008D02*
X114140256Y-119973008D01*
X114140256Y-119973008D02*
X114045018Y-120020627D01*
X114045018Y-120020627D02*
X113997399Y-120115865D01*
X113997399Y-120115865D02*
X113997399Y-120211103D01*
X113997399Y-120211103D02*
X114473589Y-120306341D01*
X113616446Y-120592056D02*
X113521208Y-120639675D01*
X113521208Y-120639675D02*
X113330732Y-120639675D01*
X113330732Y-120639675D02*
X113235494Y-120592056D01*
X113235494Y-120592056D02*
X113187875Y-120496817D01*
X113187875Y-120496817D02*
X113187875Y-120449198D01*
X113187875Y-120449198D02*
X113235494Y-120353960D01*
X113235494Y-120353960D02*
X113330732Y-120306341D01*
X113330732Y-120306341D02*
X113473589Y-120306341D01*
X113473589Y-120306341D02*
X113568827Y-120258722D01*
X113568827Y-120258722D02*
X113616446Y-120163484D01*
X113616446Y-120163484D02*
X113616446Y-120115865D01*
X113616446Y-120115865D02*
X113568827Y-120020627D01*
X113568827Y-120020627D02*
X113473589Y-119973008D01*
X113473589Y-119973008D02*
X113330732Y-119973008D01*
X113330732Y-119973008D02*
X113235494Y-120020627D01*
X111568827Y-120639675D02*
X111568827Y-120115865D01*
X111568827Y-120115865D02*
X111616446Y-120020627D01*
X111616446Y-120020627D02*
X111711684Y-119973008D01*
X111711684Y-119973008D02*
X111902160Y-119973008D01*
X111902160Y-119973008D02*
X111997398Y-120020627D01*
X111568827Y-120592056D02*
X111664065Y-120639675D01*
X111664065Y-120639675D02*
X111902160Y-120639675D01*
X111902160Y-120639675D02*
X111997398Y-120592056D01*
X111997398Y-120592056D02*
X112045017Y-120496817D01*
X112045017Y-120496817D02*
X112045017Y-120401579D01*
X112045017Y-120401579D02*
X111997398Y-120306341D01*
X111997398Y-120306341D02*
X111902160Y-120258722D01*
X111902160Y-120258722D02*
X111664065Y-120258722D01*
X111664065Y-120258722D02*
X111568827Y-120211103D01*
X111235493Y-119973008D02*
X110854541Y-119973008D01*
X111092636Y-119639675D02*
X111092636Y-120496817D01*
X111092636Y-120496817D02*
X111045017Y-120592056D01*
X111045017Y-120592056D02*
X110949779Y-120639675D01*
X110949779Y-120639675D02*
X110854541Y-120639675D01*
X123854544Y-121582952D02*
X123854544Y-122392476D01*
X123854544Y-122392476D02*
X123902163Y-122487714D01*
X123902163Y-122487714D02*
X123949782Y-122535333D01*
X123949782Y-122535333D02*
X124045020Y-122582952D01*
X124045020Y-122582952D02*
X124187877Y-122582952D01*
X124187877Y-122582952D02*
X124283115Y-122535333D01*
X123854544Y-122202000D02*
X123949782Y-122249619D01*
X123949782Y-122249619D02*
X124140258Y-122249619D01*
X124140258Y-122249619D02*
X124235496Y-122202000D01*
X124235496Y-122202000D02*
X124283115Y-122154380D01*
X124283115Y-122154380D02*
X124330734Y-122059142D01*
X124330734Y-122059142D02*
X124330734Y-121773428D01*
X124330734Y-121773428D02*
X124283115Y-121678190D01*
X124283115Y-121678190D02*
X124235496Y-121630571D01*
X124235496Y-121630571D02*
X124140258Y-121582952D01*
X124140258Y-121582952D02*
X123949782Y-121582952D01*
X123949782Y-121582952D02*
X123854544Y-121630571D01*
X123378353Y-122249619D02*
X123378353Y-121582952D01*
X123378353Y-121249619D02*
X123425972Y-121297238D01*
X123425972Y-121297238D02*
X123378353Y-121344857D01*
X123378353Y-121344857D02*
X123330734Y-121297238D01*
X123330734Y-121297238D02*
X123378353Y-121249619D01*
X123378353Y-121249619D02*
X123378353Y-121344857D01*
X123045020Y-121582952D02*
X122664068Y-121582952D01*
X122902163Y-121249619D02*
X122902163Y-122106761D01*
X122902163Y-122106761D02*
X122854544Y-122202000D01*
X122854544Y-122202000D02*
X122759306Y-122249619D01*
X122759306Y-122249619D02*
X122664068Y-122249619D01*
X122330734Y-122249619D02*
X122330734Y-121249619D01*
X121902163Y-122249619D02*
X121902163Y-121725809D01*
X121902163Y-121725809D02*
X121949782Y-121630571D01*
X121949782Y-121630571D02*
X122045020Y-121582952D01*
X122045020Y-121582952D02*
X122187877Y-121582952D01*
X122187877Y-121582952D02*
X122283115Y-121630571D01*
X122283115Y-121630571D02*
X122330734Y-121678190D01*
X120997401Y-121582952D02*
X120997401Y-122249619D01*
X121425972Y-121582952D02*
X121425972Y-122106761D01*
X121425972Y-122106761D02*
X121378353Y-122202000D01*
X121378353Y-122202000D02*
X121283115Y-122249619D01*
X121283115Y-122249619D02*
X121140258Y-122249619D01*
X121140258Y-122249619D02*
X121045020Y-122202000D01*
X121045020Y-122202000D02*
X120997401Y-122154380D01*
X120521210Y-122249619D02*
X120521210Y-121249619D01*
X120521210Y-121630571D02*
X120425972Y-121582952D01*
X120425972Y-121582952D02*
X120235496Y-121582952D01*
X120235496Y-121582952D02*
X120140258Y-121630571D01*
X120140258Y-121630571D02*
X120092639Y-121678190D01*
X120092639Y-121678190D02*
X120045020Y-121773428D01*
X120045020Y-121773428D02*
X120045020Y-122059142D01*
X120045020Y-122059142D02*
X120092639Y-122154380D01*
X120092639Y-122154380D02*
X120140258Y-122202000D01*
X120140258Y-122202000D02*
X120235496Y-122249619D01*
X120235496Y-122249619D02*
X120425972Y-122249619D01*
X120425972Y-122249619D02*
X120521210Y-122202000D01*
X119616448Y-122154380D02*
X119568829Y-122202000D01*
X119568829Y-122202000D02*
X119616448Y-122249619D01*
X119616448Y-122249619D02*
X119664067Y-122202000D01*
X119664067Y-122202000D02*
X119616448Y-122154380D01*
X119616448Y-122154380D02*
X119616448Y-122249619D01*
X118711687Y-122202000D02*
X118806925Y-122249619D01*
X118806925Y-122249619D02*
X118997401Y-122249619D01*
X118997401Y-122249619D02*
X119092639Y-122202000D01*
X119092639Y-122202000D02*
X119140258Y-122154380D01*
X119140258Y-122154380D02*
X119187877Y-122059142D01*
X119187877Y-122059142D02*
X119187877Y-121773428D01*
X119187877Y-121773428D02*
X119140258Y-121678190D01*
X119140258Y-121678190D02*
X119092639Y-121630571D01*
X119092639Y-121630571D02*
X118997401Y-121582952D01*
X118997401Y-121582952D02*
X118806925Y-121582952D01*
X118806925Y-121582952D02*
X118711687Y-121630571D01*
X118140258Y-122249619D02*
X118235496Y-122202000D01*
X118235496Y-122202000D02*
X118283115Y-122154380D01*
X118283115Y-122154380D02*
X118330734Y-122059142D01*
X118330734Y-122059142D02*
X118330734Y-121773428D01*
X118330734Y-121773428D02*
X118283115Y-121678190D01*
X118283115Y-121678190D02*
X118235496Y-121630571D01*
X118235496Y-121630571D02*
X118140258Y-121582952D01*
X118140258Y-121582952D02*
X117997401Y-121582952D01*
X117997401Y-121582952D02*
X117902163Y-121630571D01*
X117902163Y-121630571D02*
X117854544Y-121678190D01*
X117854544Y-121678190D02*
X117806925Y-121773428D01*
X117806925Y-121773428D02*
X117806925Y-122059142D01*
X117806925Y-122059142D02*
X117854544Y-122154380D01*
X117854544Y-122154380D02*
X117902163Y-122202000D01*
X117902163Y-122202000D02*
X117997401Y-122249619D01*
X117997401Y-122249619D02*
X118140258Y-122249619D01*
X117378353Y-122249619D02*
X117378353Y-121582952D01*
X117378353Y-121678190D02*
X117330734Y-121630571D01*
X117330734Y-121630571D02*
X117235496Y-121582952D01*
X117235496Y-121582952D02*
X117092639Y-121582952D01*
X117092639Y-121582952D02*
X116997401Y-121630571D01*
X116997401Y-121630571D02*
X116949782Y-121725809D01*
X116949782Y-121725809D02*
X116949782Y-122249619D01*
X116949782Y-121725809D02*
X116902163Y-121630571D01*
X116902163Y-121630571D02*
X116806925Y-121582952D01*
X116806925Y-121582952D02*
X116664068Y-121582952D01*
X116664068Y-121582952D02*
X116568829Y-121630571D01*
X116568829Y-121630571D02*
X116521210Y-121725809D01*
X116521210Y-121725809D02*
X116521210Y-122249619D01*
X115330735Y-121202000D02*
X116187877Y-122487714D01*
X114568830Y-121582952D02*
X114568830Y-122392476D01*
X114568830Y-122392476D02*
X114616449Y-122487714D01*
X114616449Y-122487714D02*
X114664068Y-122535333D01*
X114664068Y-122535333D02*
X114759306Y-122582952D01*
X114759306Y-122582952D02*
X114902163Y-122582952D01*
X114902163Y-122582952D02*
X114997401Y-122535333D01*
X114568830Y-122202000D02*
X114664068Y-122249619D01*
X114664068Y-122249619D02*
X114854544Y-122249619D01*
X114854544Y-122249619D02*
X114949782Y-122202000D01*
X114949782Y-122202000D02*
X114997401Y-122154380D01*
X114997401Y-122154380D02*
X115045020Y-122059142D01*
X115045020Y-122059142D02*
X115045020Y-121773428D01*
X115045020Y-121773428D02*
X114997401Y-121678190D01*
X114997401Y-121678190D02*
X114949782Y-121630571D01*
X114949782Y-121630571D02*
X114854544Y-121582952D01*
X114854544Y-121582952D02*
X114664068Y-121582952D01*
X114664068Y-121582952D02*
X114568830Y-121630571D01*
X113664068Y-122249619D02*
X113664068Y-121725809D01*
X113664068Y-121725809D02*
X113711687Y-121630571D01*
X113711687Y-121630571D02*
X113806925Y-121582952D01*
X113806925Y-121582952D02*
X113997401Y-121582952D01*
X113997401Y-121582952D02*
X114092639Y-121630571D01*
X113664068Y-122202000D02*
X113759306Y-122249619D01*
X113759306Y-122249619D02*
X113997401Y-122249619D01*
X113997401Y-122249619D02*
X114092639Y-122202000D01*
X114092639Y-122202000D02*
X114140258Y-122106761D01*
X114140258Y-122106761D02*
X114140258Y-122011523D01*
X114140258Y-122011523D02*
X114092639Y-121916285D01*
X114092639Y-121916285D02*
X113997401Y-121868666D01*
X113997401Y-121868666D02*
X113759306Y-121868666D01*
X113759306Y-121868666D02*
X113664068Y-121821047D01*
X113187877Y-122249619D02*
X113187877Y-121249619D01*
X113187877Y-121630571D02*
X113092639Y-121582952D01*
X113092639Y-121582952D02*
X112902163Y-121582952D01*
X112902163Y-121582952D02*
X112806925Y-121630571D01*
X112806925Y-121630571D02*
X112759306Y-121678190D01*
X112759306Y-121678190D02*
X112711687Y-121773428D01*
X112711687Y-121773428D02*
X112711687Y-122059142D01*
X112711687Y-122059142D02*
X112759306Y-122154380D01*
X112759306Y-122154380D02*
X112806925Y-122202000D01*
X112806925Y-122202000D02*
X112902163Y-122249619D01*
X112902163Y-122249619D02*
X113092639Y-122249619D01*
X113092639Y-122249619D02*
X113187877Y-122202000D01*
X111902163Y-122202000D02*
X111997401Y-122249619D01*
X111997401Y-122249619D02*
X112187877Y-122249619D01*
X112187877Y-122249619D02*
X112283115Y-122202000D01*
X112283115Y-122202000D02*
X112330734Y-122106761D01*
X112330734Y-122106761D02*
X112330734Y-121725809D01*
X112330734Y-121725809D02*
X112283115Y-121630571D01*
X112283115Y-121630571D02*
X112187877Y-121582952D01*
X112187877Y-121582952D02*
X111997401Y-121582952D01*
X111997401Y-121582952D02*
X111902163Y-121630571D01*
X111902163Y-121630571D02*
X111854544Y-121725809D01*
X111854544Y-121725809D02*
X111854544Y-121821047D01*
X111854544Y-121821047D02*
X112330734Y-121916285D01*
X110997401Y-122249619D02*
X110997401Y-121725809D01*
X110997401Y-121725809D02*
X111045020Y-121630571D01*
X111045020Y-121630571D02*
X111140258Y-121582952D01*
X111140258Y-121582952D02*
X111330734Y-121582952D01*
X111330734Y-121582952D02*
X111425972Y-121630571D01*
X110997401Y-122202000D02*
X111092639Y-122249619D01*
X111092639Y-122249619D02*
X111330734Y-122249619D01*
X111330734Y-122249619D02*
X111425972Y-122202000D01*
X111425972Y-122202000D02*
X111473591Y-122106761D01*
X111473591Y-122106761D02*
X111473591Y-122011523D01*
X111473591Y-122011523D02*
X111425972Y-121916285D01*
X111425972Y-121916285D02*
X111330734Y-121868666D01*
X111330734Y-121868666D02*
X111092639Y-121868666D01*
X111092639Y-121868666D02*
X110997401Y-121821047D01*
X110521210Y-122249619D02*
X110521210Y-121249619D01*
X110425972Y-121868666D02*
X110140258Y-122249619D01*
X110140258Y-121582952D02*
X110521210Y-121963904D01*
X109759305Y-121344857D02*
X109711686Y-121297238D01*
X109711686Y-121297238D02*
X109616448Y-121249619D01*
X109616448Y-121249619D02*
X109378353Y-121249619D01*
X109378353Y-121249619D02*
X109283115Y-121297238D01*
X109283115Y-121297238D02*
X109235496Y-121344857D01*
X109235496Y-121344857D02*
X109187877Y-121440095D01*
X109187877Y-121440095D02*
X109187877Y-121535333D01*
X109187877Y-121535333D02*
X109235496Y-121678190D01*
X109235496Y-121678190D02*
X109806924Y-122249619D01*
X109806924Y-122249619D02*
X109187877Y-122249619D01*
X108045020Y-121202000D02*
X108902162Y-122487714D01*
X107711686Y-122249619D02*
X107711686Y-121249619D01*
X107140258Y-122249619D02*
X107568829Y-121678190D01*
X107140258Y-121249619D02*
X107711686Y-121821047D01*
X106759305Y-121963904D02*
X106283115Y-121963904D01*
X106854543Y-122249619D02*
X106521210Y-121249619D01*
X106521210Y-121249619D02*
X106187877Y-122249619D01*
X105902162Y-122202000D02*
X105759305Y-122249619D01*
X105759305Y-122249619D02*
X105521210Y-122249619D01*
X105521210Y-122249619D02*
X105425972Y-122202000D01*
X105425972Y-122202000D02*
X105378353Y-122154380D01*
X105378353Y-122154380D02*
X105330734Y-122059142D01*
X105330734Y-122059142D02*
X105330734Y-121963904D01*
X105330734Y-121963904D02*
X105378353Y-121868666D01*
X105378353Y-121868666D02*
X105425972Y-121821047D01*
X105425972Y-121821047D02*
X105521210Y-121773428D01*
X105521210Y-121773428D02*
X105711686Y-121725809D01*
X105711686Y-121725809D02*
X105806924Y-121678190D01*
X105806924Y-121678190D02*
X105854543Y-121630571D01*
X105854543Y-121630571D02*
X105902162Y-121535333D01*
X105902162Y-121535333D02*
X105902162Y-121440095D01*
X105902162Y-121440095D02*
X105854543Y-121344857D01*
X105854543Y-121344857D02*
X105806924Y-121297238D01*
X105806924Y-121297238D02*
X105711686Y-121249619D01*
X105711686Y-121249619D02*
X105473591Y-121249619D01*
X105473591Y-121249619D02*
X105330734Y-121297238D01*
X104902162Y-122249619D02*
X104902162Y-121249619D01*
X104902162Y-121249619D02*
X104568829Y-121963904D01*
X104568829Y-121963904D02*
X104235496Y-121249619D01*
X104235496Y-121249619D02*
X104235496Y-122249619D01*
X103997401Y-122344857D02*
X103235496Y-122344857D01*
X103045019Y-121963904D02*
X102568829Y-121963904D01*
X103140257Y-122249619D02*
X102806924Y-121249619D01*
X102806924Y-121249619D02*
X102473591Y-122249619D01*
X101568829Y-122154380D02*
X101616448Y-122202000D01*
X101616448Y-122202000D02*
X101759305Y-122249619D01*
X101759305Y-122249619D02*
X101854543Y-122249619D01*
X101854543Y-122249619D02*
X101997400Y-122202000D01*
X101997400Y-122202000D02*
X102092638Y-122106761D01*
X102092638Y-122106761D02*
X102140257Y-122011523D01*
X102140257Y-122011523D02*
X102187876Y-121821047D01*
X102187876Y-121821047D02*
X102187876Y-121678190D01*
X102187876Y-121678190D02*
X102140257Y-121487714D01*
X102140257Y-121487714D02*
X102092638Y-121392476D01*
X102092638Y-121392476D02*
X101997400Y-121297238D01*
X101997400Y-121297238D02*
X101854543Y-121249619D01*
X101854543Y-121249619D02*
X101759305Y-121249619D01*
X101759305Y-121249619D02*
X101616448Y-121297238D01*
X101616448Y-121297238D02*
X101568829Y-121344857D01*
X101283114Y-121249619D02*
X100711686Y-121249619D01*
X100997400Y-122249619D02*
X100997400Y-121249619D01*
X100378352Y-121249619D02*
X100378352Y-122059142D01*
X100378352Y-122059142D02*
X100330733Y-122154380D01*
X100330733Y-122154380D02*
X100283114Y-122202000D01*
X100283114Y-122202000D02*
X100187876Y-122249619D01*
X100187876Y-122249619D02*
X99997400Y-122249619D01*
X99997400Y-122249619D02*
X99902162Y-122202000D01*
X99902162Y-122202000D02*
X99854543Y-122154380D01*
X99854543Y-122154380D02*
X99806924Y-122059142D01*
X99806924Y-122059142D02*
X99806924Y-121249619D01*
X99378352Y-121963904D02*
X98902162Y-121963904D01*
X99473590Y-122249619D02*
X99140257Y-121249619D01*
X99140257Y-121249619D02*
X98806924Y-122249619D01*
X98616447Y-121249619D02*
X98045019Y-121249619D01*
X98330733Y-122249619D02*
X98330733Y-121249619D01*
X97521209Y-121249619D02*
X97330733Y-121249619D01*
X97330733Y-121249619D02*
X97235495Y-121297238D01*
X97235495Y-121297238D02*
X97140257Y-121392476D01*
X97140257Y-121392476D02*
X97092638Y-121582952D01*
X97092638Y-121582952D02*
X97092638Y-121916285D01*
X97092638Y-121916285D02*
X97140257Y-122106761D01*
X97140257Y-122106761D02*
X97235495Y-122202000D01*
X97235495Y-122202000D02*
X97330733Y-122249619D01*
X97330733Y-122249619D02*
X97521209Y-122249619D01*
X97521209Y-122249619D02*
X97616447Y-122202000D01*
X97616447Y-122202000D02*
X97711685Y-122106761D01*
X97711685Y-122106761D02*
X97759304Y-121916285D01*
X97759304Y-121916285D02*
X97759304Y-121582952D01*
X97759304Y-121582952D02*
X97711685Y-121392476D01*
X97711685Y-121392476D02*
X97616447Y-121297238D01*
X97616447Y-121297238D02*
X97521209Y-121249619D01*
X96092638Y-122249619D02*
X96425971Y-121773428D01*
X96664066Y-122249619D02*
X96664066Y-121249619D01*
X96664066Y-121249619D02*
X96283114Y-121249619D01*
X96283114Y-121249619D02*
X96187876Y-121297238D01*
X96187876Y-121297238D02*
X96140257Y-121344857D01*
X96140257Y-121344857D02*
X96092638Y-121440095D01*
X96092638Y-121440095D02*
X96092638Y-121582952D01*
X96092638Y-121582952D02*
X96140257Y-121678190D01*
X96140257Y-121678190D02*
X96187876Y-121725809D01*
X96187876Y-121725809D02*
X96283114Y-121773428D01*
X96283114Y-121773428D02*
X96664066Y-121773428D01*
X95902162Y-122344857D02*
X95140257Y-122344857D01*
X94902161Y-122249619D02*
X94902161Y-121249619D01*
X94902161Y-121249619D02*
X94521209Y-121249619D01*
X94521209Y-121249619D02*
X94425971Y-121297238D01*
X94425971Y-121297238D02*
X94378352Y-121344857D01*
X94378352Y-121344857D02*
X94330733Y-121440095D01*
X94330733Y-121440095D02*
X94330733Y-121582952D01*
X94330733Y-121582952D02*
X94378352Y-121678190D01*
X94378352Y-121678190D02*
X94425971Y-121725809D01*
X94425971Y-121725809D02*
X94521209Y-121773428D01*
X94521209Y-121773428D02*
X94902161Y-121773428D01*
X93330733Y-122154380D02*
X93378352Y-122202000D01*
X93378352Y-122202000D02*
X93521209Y-122249619D01*
X93521209Y-122249619D02*
X93616447Y-122249619D01*
X93616447Y-122249619D02*
X93759304Y-122202000D01*
X93759304Y-122202000D02*
X93854542Y-122106761D01*
X93854542Y-122106761D02*
X93902161Y-122011523D01*
X93902161Y-122011523D02*
X93949780Y-121821047D01*
X93949780Y-121821047D02*
X93949780Y-121678190D01*
X93949780Y-121678190D02*
X93902161Y-121487714D01*
X93902161Y-121487714D02*
X93854542Y-121392476D01*
X93854542Y-121392476D02*
X93759304Y-121297238D01*
X93759304Y-121297238D02*
X93616447Y-121249619D01*
X93616447Y-121249619D02*
X93521209Y-121249619D01*
X93521209Y-121249619D02*
X93378352Y-121297238D01*
X93378352Y-121297238D02*
X93330733Y-121344857D01*
X92568828Y-121725809D02*
X92425971Y-121773428D01*
X92425971Y-121773428D02*
X92378352Y-121821047D01*
X92378352Y-121821047D02*
X92330733Y-121916285D01*
X92330733Y-121916285D02*
X92330733Y-122059142D01*
X92330733Y-122059142D02*
X92378352Y-122154380D01*
X92378352Y-122154380D02*
X92425971Y-122202000D01*
X92425971Y-122202000D02*
X92521209Y-122249619D01*
X92521209Y-122249619D02*
X92902161Y-122249619D01*
X92902161Y-122249619D02*
X92902161Y-121249619D01*
X92902161Y-121249619D02*
X92568828Y-121249619D01*
X92568828Y-121249619D02*
X92473590Y-121297238D01*
X92473590Y-121297238D02*
X92425971Y-121344857D01*
X92425971Y-121344857D02*
X92378352Y-121440095D01*
X92378352Y-121440095D02*
X92378352Y-121535333D01*
X92378352Y-121535333D02*
X92425971Y-121630571D01*
X92425971Y-121630571D02*
X92473590Y-121678190D01*
X92473590Y-121678190D02*
X92568828Y-121725809D01*
X92568828Y-121725809D02*
X92902161Y-121725809D01*
X92140257Y-122344857D02*
X91378352Y-122344857D01*
X90568828Y-122249619D02*
X90902161Y-121773428D01*
X91140256Y-122249619D02*
X91140256Y-121249619D01*
X91140256Y-121249619D02*
X90759304Y-121249619D01*
X90759304Y-121249619D02*
X90664066Y-121297238D01*
X90664066Y-121297238D02*
X90616447Y-121344857D01*
X90616447Y-121344857D02*
X90568828Y-121440095D01*
X90568828Y-121440095D02*
X90568828Y-121582952D01*
X90568828Y-121582952D02*
X90616447Y-121678190D01*
X90616447Y-121678190D02*
X90664066Y-121725809D01*
X90664066Y-121725809D02*
X90759304Y-121773428D01*
X90759304Y-121773428D02*
X91140256Y-121773428D01*
X90140256Y-121725809D02*
X89806923Y-121725809D01*
X89664066Y-122249619D02*
X90140256Y-122249619D01*
X90140256Y-122249619D02*
X90140256Y-121249619D01*
X90140256Y-121249619D02*
X89664066Y-121249619D01*
X89378351Y-121249619D02*
X89045018Y-122249619D01*
X89045018Y-122249619D02*
X88711685Y-121249619D01*
X88425970Y-121344857D02*
X88378351Y-121297238D01*
X88378351Y-121297238D02*
X88283113Y-121249619D01*
X88283113Y-121249619D02*
X88045018Y-121249619D01*
X88045018Y-121249619D02*
X87949780Y-121297238D01*
X87949780Y-121297238D02*
X87902161Y-121344857D01*
X87902161Y-121344857D02*
X87854542Y-121440095D01*
X87854542Y-121440095D02*
X87854542Y-121535333D01*
X87854542Y-121535333D02*
X87902161Y-121678190D01*
X87902161Y-121678190D02*
X88473589Y-122249619D01*
X88473589Y-122249619D02*
X87854542Y-122249619D01*
D11*
%TO.C,J6*%
X131724400Y-118986800D02*
G75*
G02*
X130962400Y-118986800I-381000J0D01*
G01*
X130962400Y-118986800D02*
G75*
G02*
X131724400Y-118986800I381000J0D01*
G01*
D12*
%TO.C,G\u002A\u002A\u002A*%
G36*
X126180625Y-69048566D02*
G01*
X126429125Y-69131743D01*
X126717890Y-69256760D01*
X127006939Y-69403959D01*
X127256289Y-69553681D01*
X127425957Y-69686268D01*
X127475961Y-69782062D01*
X127466600Y-69798894D01*
X127342491Y-69882866D01*
X127132221Y-69957185D01*
X126959820Y-70013712D01*
X126816524Y-70133541D01*
X126723083Y-70359351D01*
X126654784Y-70558168D01*
X126582079Y-70672611D01*
X126503295Y-70663575D01*
X126408063Y-70521301D01*
X126286016Y-70236027D01*
X126126786Y-69797993D01*
X126012152Y-69437496D01*
X125956146Y-69170727D01*
X125972879Y-69043035D01*
X126012373Y-69026888D01*
X126180625Y-69048566D01*
G37*
G36*
X132766201Y-68575183D02*
G01*
X132846323Y-68691538D01*
X132926624Y-68899161D01*
X132999505Y-69094160D01*
X133120464Y-69229149D01*
X133332189Y-69304504D01*
X133524838Y-69367072D01*
X133622751Y-69460935D01*
X133563164Y-69577107D01*
X133343366Y-69719885D01*
X132960644Y-69893568D01*
X132601546Y-70032869D01*
X132269755Y-70139935D01*
X132060081Y-70177815D01*
X131986978Y-70142809D01*
X131991000Y-70125359D01*
X132038584Y-69992981D01*
X132122588Y-69782976D01*
X132124503Y-69778347D01*
X132347459Y-69258284D01*
X132527433Y-68878326D01*
X132660925Y-68645326D01*
X132744431Y-68566136D01*
X132766201Y-68575183D01*
G37*
G36*
X127807127Y-61481313D02*
G01*
X127870235Y-61584540D01*
X127868683Y-61634559D01*
X127769401Y-61808890D01*
X127540643Y-62084278D01*
X127180793Y-62462781D01*
X127143723Y-62500282D01*
X126926416Y-62720325D01*
X126605759Y-63045233D01*
X126194138Y-63462446D01*
X125703944Y-63959402D01*
X125147563Y-64523541D01*
X124537384Y-65142302D01*
X123885795Y-65803124D01*
X123205185Y-66493447D01*
X122507941Y-67200710D01*
X122209955Y-67502659D01*
X121548614Y-68170355D01*
X120924813Y-68796841D01*
X120348670Y-69372147D01*
X119830303Y-69886301D01*
X119379829Y-70329332D01*
X119007366Y-70691268D01*
X118723031Y-70962140D01*
X118536943Y-71131975D01*
X118459219Y-71190803D01*
X118396252Y-71162366D01*
X118370923Y-71026666D01*
X118399523Y-70983636D01*
X118537223Y-70823836D01*
X118782018Y-70556795D01*
X119126448Y-70190184D01*
X119563056Y-69731678D01*
X120084384Y-69188949D01*
X120682974Y-68569669D01*
X121351369Y-67881512D01*
X122082109Y-67132151D01*
X122867739Y-66329258D01*
X123700798Y-65480506D01*
X124573830Y-64593569D01*
X125479377Y-63676118D01*
X126409981Y-62735827D01*
X127358184Y-61780369D01*
X127564204Y-61583144D01*
X127714228Y-61477364D01*
X127807127Y-61481313D01*
G37*
G36*
X127241083Y-60958693D02*
G01*
X127279806Y-61010055D01*
X127252436Y-61110285D01*
X127150989Y-61269183D01*
X126967482Y-61496546D01*
X126693932Y-61802172D01*
X126322356Y-62195858D01*
X125844770Y-62687403D01*
X125253191Y-63286605D01*
X124727486Y-63816994D01*
X124091543Y-64459679D01*
X123394142Y-65165352D01*
X122664430Y-65904488D01*
X121931559Y-66647560D01*
X121224677Y-67365042D01*
X120572934Y-68027406D01*
X120012031Y-68596336D01*
X119444680Y-69166740D01*
X118977546Y-69628811D01*
X118601692Y-69990372D01*
X118308181Y-70259246D01*
X118088076Y-70443256D01*
X117932440Y-70550224D01*
X117832336Y-70587975D01*
X117778828Y-70564330D01*
X117762978Y-70487114D01*
X117763976Y-70478925D01*
X117778847Y-70445956D01*
X117816899Y-70391635D01*
X117884983Y-70308888D01*
X117989950Y-70190641D01*
X118138649Y-70029821D01*
X118337931Y-69819354D01*
X118594647Y-69552167D01*
X118915647Y-69221185D01*
X119307781Y-68819336D01*
X119777900Y-68339546D01*
X120332855Y-67774741D01*
X120979494Y-67117848D01*
X121724670Y-66361793D01*
X122575232Y-65499502D01*
X123538031Y-64523902D01*
X124139057Y-63916318D01*
X124745547Y-63306046D01*
X125307941Y-62743031D01*
X125815593Y-62237788D01*
X126257861Y-61800831D01*
X126624098Y-61442673D01*
X126903662Y-61173828D01*
X127085907Y-61004811D01*
X127160189Y-60946136D01*
X127241083Y-60958693D01*
G37*
G36*
X131257990Y-61566405D02*
G01*
X131435300Y-61805751D01*
X131644398Y-62175764D01*
X131816378Y-62492924D01*
X132288764Y-63173262D01*
X132842702Y-63716926D01*
X133497628Y-64140819D01*
X134272978Y-64461846D01*
X134825764Y-64654686D01*
X135282879Y-64847090D01*
X135662069Y-65051690D01*
X136008644Y-65290109D01*
X136342505Y-65561073D01*
X136832715Y-66051234D01*
X137236157Y-66601656D01*
X137577600Y-67248543D01*
X137881813Y-68028099D01*
X137891813Y-68056966D01*
X138042349Y-68442344D01*
X138216413Y-68821747D01*
X138378329Y-69116943D01*
X138750049Y-69609413D01*
X139251609Y-70073161D01*
X139875456Y-70477093D01*
X140644144Y-70838345D01*
X140806286Y-70940967D01*
X140876978Y-71061987D01*
X140876058Y-71080818D01*
X140808112Y-71171885D01*
X140626244Y-71172169D01*
X140321747Y-71080199D01*
X139885915Y-70894505D01*
X139760127Y-70832616D01*
X139283801Y-70537386D01*
X138820527Y-70165641D01*
X138406327Y-69752287D01*
X138077222Y-69332228D01*
X137869233Y-68940366D01*
X137810098Y-68785708D01*
X137717141Y-68562765D01*
X137654842Y-68439136D01*
X137652763Y-68436107D01*
X137593549Y-68294100D01*
X137535437Y-68078133D01*
X137459879Y-67836141D01*
X137286804Y-67449016D01*
X137054735Y-67020376D01*
X136792497Y-66599038D01*
X136528912Y-66233820D01*
X136292806Y-65973539D01*
X135987617Y-65723517D01*
X135276423Y-65277722D01*
X134472057Y-64929563D01*
X134291783Y-64866537D01*
X133904217Y-64726062D01*
X133612186Y-64607092D01*
X133368124Y-64487116D01*
X133124465Y-64343620D01*
X132833644Y-64154090D01*
X132620158Y-63999645D01*
X132068355Y-63480601D01*
X131589742Y-62853178D01*
X131219315Y-62160592D01*
X131126322Y-61924971D01*
X131046633Y-61637011D01*
X131050671Y-61481572D01*
X131125452Y-61458191D01*
X131257990Y-61566405D01*
G37*
G36*
X131555341Y-60833681D02*
G01*
X131643241Y-60925871D01*
X131752604Y-61124025D01*
X131903220Y-61454136D01*
X132028025Y-61712683D01*
X132480694Y-62398294D01*
X133056751Y-62987430D01*
X133732600Y-63458733D01*
X134484644Y-63790843D01*
X135358026Y-64120927D01*
X136106638Y-64511476D01*
X136728520Y-64972950D01*
X137243209Y-65522804D01*
X137670245Y-66178492D01*
X138029164Y-66957469D01*
X138243965Y-67490887D01*
X138478356Y-68024008D01*
X138689992Y-68439731D01*
X138891903Y-68763216D01*
X139097120Y-69019622D01*
X139444725Y-69343691D01*
X139951259Y-69706562D01*
X140500586Y-70011344D01*
X141025144Y-70216109D01*
X141128571Y-70264360D01*
X141215423Y-70396320D01*
X141158269Y-70542623D01*
X141149399Y-70550324D01*
X141056467Y-70570583D01*
X140886127Y-70532978D01*
X140614408Y-70430178D01*
X140217340Y-70254851D01*
X139764398Y-70016589D01*
X139133430Y-69547309D01*
X138607441Y-68959307D01*
X138177891Y-68242296D01*
X137836243Y-67385988D01*
X137790875Y-67252801D01*
X137448869Y-66500745D01*
X136992319Y-65809418D01*
X136453648Y-65229394D01*
X136366973Y-65152986D01*
X136126238Y-64950724D01*
X135941089Y-64809631D01*
X135845978Y-64756516D01*
X135777494Y-64735129D01*
X135634311Y-64638298D01*
X135569955Y-64597227D01*
X135358462Y-64498002D01*
X135053180Y-64375496D01*
X134696311Y-64247297D01*
X134671920Y-64239006D01*
X134192580Y-64070691D01*
X133832153Y-63928603D01*
X133548735Y-63792753D01*
X133300422Y-63643156D01*
X133045311Y-63459824D01*
X132657627Y-63135548D01*
X132279003Y-62728646D01*
X131940669Y-62244289D01*
X131607433Y-61637886D01*
X131459078Y-61336444D01*
X131356833Y-61101609D01*
X131322407Y-60959588D01*
X131349161Y-60880190D01*
X131430454Y-60833227D01*
X131469113Y-60821465D01*
X131555341Y-60833681D01*
G37*
G36*
X128364998Y-62049534D02*
G01*
X128441275Y-62074071D01*
X128459106Y-62138740D01*
X128410515Y-62253170D01*
X128287528Y-62426992D01*
X128082166Y-62669833D01*
X127786456Y-62991324D01*
X127392421Y-63401093D01*
X126892084Y-63908770D01*
X126277471Y-64523985D01*
X126224636Y-64576668D01*
X125721072Y-65081109D01*
X125258794Y-65548259D01*
X124850991Y-65964491D01*
X124510852Y-66316179D01*
X124251567Y-66589698D01*
X124086323Y-66771420D01*
X124028311Y-66847719D01*
X124045433Y-66884272D01*
X124157650Y-67025392D01*
X124351478Y-67236038D01*
X124599811Y-67485937D01*
X124779787Y-67661346D01*
X125193374Y-68067670D01*
X125500449Y-68376734D01*
X125713057Y-68602581D01*
X125843243Y-68759250D01*
X125903052Y-68860782D01*
X125904529Y-68921219D01*
X125859720Y-68954601D01*
X125792841Y-68953240D01*
X125658770Y-68880727D01*
X125457242Y-68717248D01*
X125173598Y-68450625D01*
X124793178Y-68068681D01*
X124608952Y-67881665D01*
X124307819Y-67582628D01*
X124058284Y-67343265D01*
X123882257Y-67184386D01*
X123801642Y-67126803D01*
X123794924Y-67129874D01*
X123696098Y-67213284D01*
X123494317Y-67400998D01*
X123202902Y-67680083D01*
X122835174Y-68037604D01*
X122404454Y-68460630D01*
X121924061Y-68936227D01*
X121407316Y-69451462D01*
X120813520Y-70043452D01*
X120297829Y-70552211D01*
X119881704Y-70955500D01*
X119555972Y-71261736D01*
X119311456Y-71479339D01*
X119138980Y-71616727D01*
X119029370Y-71682318D01*
X118973449Y-71684532D01*
X118963158Y-71675317D01*
X118932638Y-71590680D01*
X118997839Y-71457715D01*
X119173616Y-71243705D01*
X119216241Y-71196493D01*
X119417544Y-70981419D01*
X119712787Y-70673362D01*
X120090774Y-70283569D01*
X120540310Y-69823286D01*
X121050198Y-69303759D01*
X121609244Y-68736232D01*
X122206252Y-68131953D01*
X122830025Y-67502166D01*
X123469369Y-66858118D01*
X124113087Y-66211054D01*
X124749984Y-65572220D01*
X125368863Y-64952862D01*
X125958530Y-64364225D01*
X126507789Y-63817556D01*
X127005443Y-63324099D01*
X127440297Y-62895101D01*
X127801156Y-62541808D01*
X128076824Y-62275464D01*
X128256104Y-62107317D01*
X128327802Y-62048611D01*
X128364998Y-62049534D01*
G37*
G36*
X130681700Y-61942953D02*
G01*
X130793763Y-62087407D01*
X130904861Y-62326089D01*
X131123835Y-62807544D01*
X131560871Y-63469495D01*
X132115079Y-64057948D01*
X132406856Y-64303359D01*
X132708426Y-64513887D01*
X133041332Y-64692695D01*
X133450036Y-64863445D01*
X133978997Y-65049795D01*
X133995319Y-65055280D01*
X134797815Y-65391336D01*
X135487367Y-65815512D01*
X136041347Y-66313935D01*
X136065895Y-66341058D01*
X136251189Y-66540655D01*
X136401309Y-66694935D01*
X136407112Y-66700753D01*
X136539952Y-66878376D01*
X136710574Y-67162093D01*
X136894265Y-67503856D01*
X137066315Y-67855617D01*
X137202011Y-68169326D01*
X137276643Y-68396935D01*
X137401637Y-68795297D01*
X137653604Y-69312015D01*
X137986180Y-69819583D01*
X138366545Y-70261844D01*
X138627288Y-70491793D01*
X138962677Y-70741422D01*
X139323498Y-70976687D01*
X139670959Y-71173971D01*
X139966270Y-71309659D01*
X140170640Y-71360136D01*
X140236918Y-71392114D01*
X140284311Y-71529469D01*
X140260680Y-71639365D01*
X140171066Y-71686534D01*
X139995366Y-71658397D01*
X139713564Y-71551539D01*
X139305644Y-71362548D01*
X138980235Y-71190801D01*
X138308165Y-70717708D01*
X137757537Y-70137408D01*
X137318494Y-69438222D01*
X136981177Y-68608469D01*
X136964415Y-68557586D01*
X136773258Y-68071184D01*
X136534145Y-67584321D01*
X136276477Y-67151977D01*
X136029656Y-66829132D01*
X135836321Y-66620629D01*
X134694736Y-67759578D01*
X134439922Y-68012248D01*
X134079522Y-68360744D01*
X133812116Y-68603864D01*
X133623542Y-68753440D01*
X133499635Y-68821304D01*
X133426231Y-68819290D01*
X133403212Y-68774188D01*
X133440215Y-68681045D01*
X133553251Y-68528166D01*
X133754086Y-68301416D01*
X134054485Y-67986659D01*
X134466214Y-67569757D01*
X135633117Y-66399461D01*
X135439881Y-66222361D01*
X135125856Y-65990471D01*
X134685097Y-65744600D01*
X134161151Y-65507343D01*
X133595644Y-65299529D01*
X133263101Y-65185104D01*
X132815291Y-64995555D01*
X132432037Y-64771059D01*
X132058699Y-64477560D01*
X131640636Y-64081002D01*
X131399484Y-63818617D01*
X131118196Y-63456944D01*
X130875625Y-63085938D01*
X130682837Y-62729282D01*
X130550897Y-62410659D01*
X130490870Y-62153749D01*
X130513823Y-61982236D01*
X130630820Y-61919803D01*
X130681700Y-61942953D01*
G37*
G36*
X135665033Y-77690336D02*
G01*
X135823928Y-78051535D01*
X135626361Y-78261836D01*
X135589968Y-78299600D01*
X135493080Y-78380012D01*
X135372903Y-78430610D01*
X135192932Y-78458255D01*
X134916658Y-78469809D01*
X134507574Y-78472136D01*
X133894866Y-78447487D01*
X133385713Y-78364869D01*
X133009593Y-78220492D01*
X132752456Y-78010660D01*
X132662411Y-77937530D01*
X132463444Y-77874541D01*
X132341064Y-77850297D01*
X132097942Y-77765516D01*
X131818164Y-77641708D01*
X131564161Y-77509371D01*
X131414179Y-77393248D01*
X131337366Y-77250445D01*
X131292117Y-77032803D01*
X131245626Y-76744392D01*
X132240978Y-76744392D01*
X132241004Y-76744693D01*
X132266874Y-76825208D01*
X132326731Y-76999525D01*
X132354550Y-77074365D01*
X132427781Y-77186532D01*
X132555810Y-77224762D01*
X132795195Y-77215078D01*
X133035416Y-77209985D01*
X133224145Y-77263716D01*
X133398321Y-77405055D01*
X133401763Y-77408488D01*
X133572583Y-77544338D01*
X133771370Y-77609012D01*
X134067860Y-77625469D01*
X134242125Y-77620170D01*
X134457952Y-77594780D01*
X134560234Y-77555489D01*
X134566347Y-77529404D01*
X134530153Y-77377713D01*
X134433290Y-77154221D01*
X134302107Y-76909581D01*
X134162950Y-76694448D01*
X134042167Y-76559475D01*
X133989019Y-76529501D01*
X133770999Y-76468398D01*
X133499686Y-76442829D01*
X133488863Y-76442765D01*
X133244417Y-76454772D01*
X133117911Y-76506851D01*
X133060767Y-76618438D01*
X133054477Y-76640844D01*
X132996478Y-76738527D01*
X132870719Y-76774608D01*
X132627559Y-76765995D01*
X132508082Y-76756942D01*
X132316548Y-76744988D01*
X132240978Y-76744392D01*
X131245626Y-76744392D01*
X131230497Y-76650541D01*
X131179904Y-76379019D01*
X131131312Y-76216562D01*
X131071194Y-76133356D01*
X130986023Y-76099590D01*
X130862274Y-76085453D01*
X130856023Y-76084842D01*
X130677890Y-76048944D01*
X130596223Y-75952706D01*
X130563700Y-75741636D01*
X130558340Y-75537921D01*
X130605900Y-75441805D01*
X130733034Y-75415696D01*
X130848473Y-75409221D01*
X130863917Y-75392373D01*
X130719805Y-75349046D01*
X130554413Y-75232415D01*
X130452400Y-75032890D01*
X130433442Y-74817310D01*
X130516982Y-74652450D01*
X130559048Y-74623377D01*
X130788617Y-74574867D01*
X131062854Y-74633107D01*
X131334911Y-74775313D01*
X131557941Y-74978704D01*
X131685094Y-75220498D01*
X131746677Y-75352127D01*
X131855885Y-75424136D01*
X131892680Y-75429569D01*
X132003056Y-75540103D01*
X132055166Y-75760898D01*
X132036716Y-76049443D01*
X132024337Y-76240329D01*
X132105109Y-76484659D01*
X132139723Y-76530197D01*
X132191046Y-76569465D01*
X132202152Y-76488274D01*
X132181130Y-76263044D01*
X132168153Y-76110801D01*
X132184164Y-75884135D01*
X132274212Y-75734229D01*
X132461929Y-75645923D01*
X132770947Y-75604056D01*
X133224897Y-75593469D01*
X133521535Y-75597727D01*
X133922998Y-75630134D01*
X134220604Y-75704804D01*
X134454797Y-75833984D01*
X134666021Y-76029925D01*
X134693124Y-76060935D01*
X134867563Y-76296447D01*
X135081277Y-76625846D01*
X135304962Y-77000429D01*
X135509315Y-77371494D01*
X135586436Y-77529404D01*
X135665033Y-77690336D01*
G37*
G36*
X130532650Y-76523166D02*
G01*
X130700415Y-76831215D01*
X130826736Y-77052721D01*
X130893794Y-77155569D01*
X130978908Y-77277797D01*
X130947453Y-77379815D01*
X130764210Y-77437791D01*
X130422258Y-77456136D01*
X130380731Y-77456102D01*
X130099506Y-77449833D01*
X129940530Y-77422372D01*
X129861575Y-77358868D01*
X129820412Y-77244469D01*
X129800609Y-77175679D01*
X129749757Y-77095920D01*
X129644303Y-77053188D01*
X129446011Y-77035982D01*
X129116641Y-77032803D01*
X128465995Y-77032803D01*
X128384987Y-77307969D01*
X128335131Y-77433124D01*
X128241495Y-77540803D01*
X128164815Y-77628983D01*
X127879430Y-77763233D01*
X127453343Y-77850808D01*
X127386838Y-77862010D01*
X127004504Y-77984730D01*
X126621007Y-78189056D01*
X126464351Y-78290150D01*
X126302459Y-78378038D01*
X126138126Y-78431790D01*
X125929628Y-78459798D01*
X125635242Y-78470450D01*
X125213247Y-78472136D01*
X124852029Y-78468067D01*
X124435121Y-78442644D01*
X124149640Y-78386335D01*
X123973308Y-78290476D01*
X123883847Y-78146403D01*
X123858978Y-77945451D01*
X123869277Y-77826146D01*
X123955521Y-77492385D01*
X123986641Y-77412703D01*
X125170233Y-77412703D01*
X125179945Y-77554773D01*
X125245200Y-77584847D01*
X125440603Y-77614141D01*
X125711883Y-77625469D01*
X126083658Y-77590417D01*
X126284963Y-77496767D01*
X127179067Y-77496767D01*
X127189200Y-77597247D01*
X127214666Y-77610493D01*
X127245644Y-77540803D01*
X127239534Y-77495980D01*
X127189200Y-77484358D01*
X127179067Y-77496767D01*
X126284963Y-77496767D01*
X126356967Y-77463270D01*
X126517637Y-77226308D01*
X126585725Y-76862007D01*
X126610644Y-76482469D01*
X126142028Y-76457621D01*
X126037533Y-76452957D01*
X125788756Y-76459961D01*
X125629652Y-76512733D01*
X125500838Y-76626954D01*
X125443274Y-76702895D01*
X125322514Y-76927155D01*
X125224628Y-77183628D01*
X125170233Y-77412703D01*
X123986641Y-77412703D01*
X124110421Y-77095773D01*
X124311025Y-76681468D01*
X124534381Y-76294628D01*
X124757538Y-75980409D01*
X124957545Y-75783969D01*
X125080746Y-75709042D01*
X125235429Y-75648667D01*
X125437094Y-75613641D01*
X125726493Y-75597422D01*
X126144376Y-75593469D01*
X126349641Y-75594088D01*
X126768381Y-75608514D01*
X127051377Y-75659201D01*
X127222737Y-75768470D01*
X127306569Y-75958646D01*
X127326982Y-76252051D01*
X127316588Y-76482469D01*
X127308083Y-76671008D01*
X127294157Y-76875054D01*
X127280258Y-77084998D01*
X127280031Y-77217431D01*
X127302773Y-77262012D01*
X127357781Y-77208397D01*
X127454353Y-77046245D01*
X127601783Y-76765212D01*
X127809370Y-76354956D01*
X127883608Y-76207622D01*
X128857299Y-76207622D01*
X128929437Y-76252255D01*
X129105654Y-76270803D01*
X129199179Y-76267718D01*
X129310037Y-76228294D01*
X129304177Y-76122636D01*
X129290945Y-76086536D01*
X129182499Y-75874880D01*
X129076912Y-75829430D01*
X128969190Y-75947573D01*
X128896946Y-76092150D01*
X128857311Y-76207303D01*
X128857299Y-76207622D01*
X127883608Y-76207622D01*
X128086410Y-75805136D01*
X128642644Y-74704469D01*
X129077707Y-74679205D01*
X129103061Y-74677671D01*
X129259865Y-74668752D01*
X129383439Y-74676998D01*
X129489951Y-74721282D01*
X129595569Y-74820477D01*
X129716461Y-74993454D01*
X129868797Y-75259086D01*
X130068745Y-75636244D01*
X130332473Y-76143803D01*
X130341257Y-76160687D01*
X130376954Y-76228294D01*
X130532650Y-76523166D01*
G37*
G36*
X131886645Y-70362823D02*
G01*
X131909163Y-70431149D01*
X131841327Y-70561832D01*
X131674199Y-70767533D01*
X131398841Y-71060917D01*
X131006314Y-71454645D01*
X130663250Y-71797989D01*
X130387825Y-72087797D01*
X130221855Y-72284765D01*
X130156475Y-72399532D01*
X130182815Y-72442739D01*
X130322043Y-72468074D01*
X130609158Y-72529465D01*
X130947294Y-72608569D01*
X131293183Y-72694525D01*
X131603551Y-72776475D01*
X131835129Y-72843556D01*
X131944644Y-72884911D01*
X131970493Y-72900595D01*
X132135401Y-72973004D01*
X132367978Y-73055494D01*
X132539408Y-73118833D01*
X132855973Y-73257415D01*
X133171709Y-73415288D01*
X133522707Y-73576963D01*
X134081511Y-73768927D01*
X134696484Y-73925447D01*
X135303720Y-74030852D01*
X135839311Y-74069469D01*
X136050075Y-74062302D01*
X136552155Y-74005109D01*
X137091654Y-73901287D01*
X137616897Y-73763514D01*
X138076208Y-73604468D01*
X138417910Y-73436827D01*
X138635922Y-73316246D01*
X138827745Y-73274291D01*
X138943578Y-73362595D01*
X138995779Y-73592673D01*
X138996709Y-73976038D01*
X138971978Y-74533290D01*
X138548644Y-74734597D01*
X138476745Y-74766934D01*
X138157711Y-74889363D01*
X137763590Y-75019292D01*
X137363311Y-75133523D01*
X137318361Y-75145051D01*
X136798445Y-75255127D01*
X136276373Y-75314869D01*
X135669978Y-75334006D01*
X135285599Y-75327587D01*
X134589141Y-75265347D01*
X133928585Y-75126534D01*
X133250615Y-74898250D01*
X132501916Y-74567597D01*
X132089879Y-74369392D01*
X131754203Y-74209934D01*
X131511573Y-74099644D01*
X131330768Y-74025874D01*
X131180568Y-73975976D01*
X131029751Y-73937302D01*
X130847098Y-73897203D01*
X130610422Y-73859543D01*
X130163334Y-73824187D01*
X129646418Y-73811638D01*
X129117698Y-73821649D01*
X128635194Y-73853968D01*
X128256931Y-73908347D01*
X128063757Y-73956095D01*
X127469940Y-74169275D01*
X126864644Y-74474661D01*
X126447206Y-74679813D01*
X125835535Y-74901787D01*
X125139572Y-75089864D01*
X124405184Y-75231935D01*
X123678241Y-75315888D01*
X122981497Y-75312863D01*
X122179557Y-75208168D01*
X121374011Y-75010543D01*
X120626588Y-74731802D01*
X120218311Y-74547284D01*
X120218311Y-73885043D01*
X120218891Y-73802266D01*
X120231616Y-73507349D01*
X120257600Y-73300691D01*
X120292314Y-73222803D01*
X120349682Y-73239237D01*
X120525855Y-73319189D01*
X120760688Y-73443221D01*
X120818696Y-73473841D01*
X121121096Y-73606562D01*
X121501860Y-73745993D01*
X121892590Y-73866554D01*
X122081392Y-73915420D01*
X122887802Y-74049790D01*
X123688632Y-74054707D01*
X124508042Y-73926844D01*
X125370190Y-73662871D01*
X126299238Y-73259461D01*
X126820391Y-73022654D01*
X127399509Y-72796889D01*
X127946248Y-72620113D01*
X128422663Y-72504470D01*
X128790811Y-72462102D01*
X128950478Y-72443365D01*
X129023644Y-72395630D01*
X129020342Y-72386433D01*
X128938260Y-72281467D01*
X128762572Y-72087689D01*
X128515511Y-71829042D01*
X128219311Y-71529469D01*
X128124708Y-71434807D01*
X127778002Y-71075647D01*
X127551282Y-70814181D01*
X127437525Y-70640197D01*
X127429709Y-70543484D01*
X127520811Y-70513831D01*
X127558645Y-70531424D01*
X127706626Y-70646475D01*
X127936775Y-70851001D01*
X128226044Y-71124173D01*
X128551387Y-71445164D01*
X128732671Y-71625895D01*
X129039208Y-71922971D01*
X129295858Y-72160883D01*
X129479924Y-72318861D01*
X129568710Y-72376136D01*
X129625613Y-72342676D01*
X129788752Y-72206687D01*
X130032333Y-71984406D01*
X130334813Y-71695624D01*
X130674644Y-71360136D01*
X130934860Y-71102596D01*
X131249826Y-70800506D01*
X131511875Y-70560183D01*
X131699241Y-70401452D01*
X131790158Y-70344136D01*
X131886645Y-70362823D01*
G37*
%TD*%
%LPC*%
D13*
%TO.C,J4*%
X81077400Y-115697000D03*
X128118200Y-115697000D03*
D14*
X121157800Y-114274600D03*
D15*
X118397800Y-114274600D03*
X115637800Y-114274600D03*
X112877800Y-114274600D03*
X110117800Y-114274600D03*
X107357800Y-114274600D03*
X104597800Y-114274600D03*
X101837800Y-114274600D03*
X99077800Y-114274600D03*
X96317800Y-114274600D03*
X93557800Y-114274600D03*
X90797800Y-114274600D03*
X88037800Y-114274600D03*
X119777800Y-117119400D03*
X117017800Y-117119400D03*
X114257800Y-117119400D03*
X111497800Y-117119400D03*
X108737800Y-117119400D03*
X105977800Y-117119400D03*
X103217800Y-117119400D03*
X100457800Y-117119400D03*
X97697800Y-117119400D03*
X94937800Y-117119400D03*
X92177800Y-117119400D03*
X89417800Y-117119400D03*
%TD*%
D16*
%TO.C,TP13*%
X110261400Y-90850600D03*
%TD*%
D17*
%TO.C,J1*%
X167784000Y-116522600D03*
D18*
X163824000Y-116522600D03*
%TD*%
D16*
%TO.C,TP15*%
X83108800Y-86563200D03*
%TD*%
D19*
%TO.C,H3*%
X81432400Y-58389400D03*
%TD*%
D16*
%TO.C,TP16*%
X144741900Y-115468400D03*
%TD*%
D20*
%TO.C,J6*%
X134518400Y-118986800D03*
X137058400Y-118986800D03*
X139598400Y-118986800D03*
X142138400Y-118986800D03*
X144678400Y-118986800D03*
X147218400Y-118986800D03*
%TD*%
D16*
%TO.C,TP14*%
X83108800Y-78892400D03*
%TD*%
%TO.C,TP5*%
X151638000Y-96062800D03*
%TD*%
%TO.C,TP1*%
X146456400Y-96062800D03*
%TD*%
D21*
%TO.C,J20*%
X184835800Y-66362800D03*
X184835800Y-68772800D03*
X184835800Y-71182800D03*
X184835800Y-73592800D03*
X184835800Y-76002800D03*
X184835800Y-78412800D03*
X184835800Y-80822800D03*
X184835800Y-83232800D03*
X184835800Y-85642800D03*
X184835800Y-88052800D03*
X184835800Y-90462800D03*
X184835800Y-92872800D03*
X184835800Y-95282800D03*
X184835800Y-97692800D03*
X184835800Y-100102800D03*
X184835800Y-102512800D03*
X184835800Y-104922800D03*
X184835800Y-107332800D03*
X184835800Y-109742800D03*
X184835800Y-112152800D03*
X184835800Y-114562800D03*
X187375800Y-65157800D03*
X187375800Y-67567800D03*
X187375800Y-69977800D03*
X187375800Y-72387800D03*
X187375800Y-74797800D03*
X187375800Y-77207800D03*
X187375800Y-79617800D03*
X187375800Y-82027800D03*
X187375800Y-84437800D03*
X187375800Y-86847800D03*
X187375800Y-89257800D03*
X187375800Y-91667800D03*
X187375800Y-94077800D03*
X187375800Y-96487800D03*
X187375800Y-98897800D03*
X187375800Y-101307800D03*
X187375800Y-103717800D03*
X187375800Y-106127800D03*
X187375800Y-108537800D03*
X187375800Y-110947800D03*
X187375800Y-113357800D03*
X189915800Y-66362800D03*
X189915800Y-68772800D03*
X189915800Y-71182800D03*
X189915800Y-73592800D03*
X189915800Y-76002800D03*
X189915800Y-78412800D03*
X189915800Y-80822800D03*
X189915800Y-83232800D03*
X189915800Y-85642800D03*
X189915800Y-88052800D03*
X189915800Y-90462800D03*
X189915800Y-92872800D03*
X189915800Y-95282800D03*
X189915800Y-97692800D03*
X189915800Y-100102800D03*
X189915800Y-102512800D03*
X189915800Y-104922800D03*
X189915800Y-107332800D03*
X189915800Y-109742800D03*
X189915800Y-112152800D03*
D22*
X187375800Y-58109800D03*
X187375800Y-121610800D03*
%TD*%
D16*
%TO.C,TP7*%
X83108800Y-94250932D03*
%TD*%
D19*
%TO.C,H2*%
X81432400Y-104825800D03*
%TD*%
D16*
%TO.C,TP10*%
X83108800Y-89204800D03*
%TD*%
%TO.C,TP8*%
X83108800Y-96774000D03*
%TD*%
%TO.C,TP9*%
X83108800Y-91727866D03*
%TD*%
D19*
%TO.C,H1*%
X175793400Y-121335800D03*
%TD*%
D16*
%TO.C,TP6*%
X142201900Y-114452400D03*
%TD*%
D19*
%TO.C,H4*%
X175691800Y-58445400D03*
%TD*%
D23*
%TO.C,TP27*%
X93141800Y-64033400D03*
%TD*%
D16*
%TO.C,TP2*%
X137121900Y-114452400D03*
%TD*%
D24*
%TO.C,J5*%
X120777000Y-56769000D03*
D25*
X118237000Y-56769000D03*
X115697000Y-56769000D03*
X113157000Y-56769000D03*
X110617000Y-56769000D03*
X108077000Y-56769000D03*
%TD*%
D24*
%TO.C,J7*%
X80137000Y-73609200D03*
D25*
X80137000Y-76149200D03*
X80137000Y-78689200D03*
%TD*%
D24*
%TO.C,J3*%
X80137000Y-96748600D03*
D25*
X80137000Y-94208600D03*
X80137000Y-91668600D03*
X80137000Y-89128600D03*
X80137000Y-86588600D03*
X80137000Y-84048600D03*
%TD*%
D23*
%TO.C,TP26*%
X93141800Y-67843400D03*
%TD*%
D16*
%TO.C,TP17*%
X83108800Y-76149200D03*
%TD*%
%TO.C,TP11*%
X83108800Y-73406000D03*
%TD*%
%TO.C,TP12*%
X110261400Y-96012000D03*
%TD*%
%TO.C,TP4*%
X139661900Y-115468400D03*
%TD*%
%TO.C,TP3*%
X134581900Y-115214400D03*
%TD*%
D17*
%TO.C,J2*%
X157198200Y-116522600D03*
D18*
X153238200Y-116522600D03*
%TD*%
%LPD*%
M02*
