%TF.GenerationSoftware,KiCad,Pcbnew,8.0.1*%
%TF.CreationDate,2024-11-04T21:37:07-08:00*%
%TF.ProjectId,kasm_pcb_rev2,6b61736d-5f70-4636-925f-726576322e6b,rev?*%
%TF.SameCoordinates,Original*%
%TF.FileFunction,Soldermask,Top*%
%TF.FilePolarity,Negative*%
%FSLAX46Y46*%
G04 Gerber Fmt 4.6, Leading zero omitted, Abs format (unit mm)*
G04 Created by KiCad (PCBNEW 8.0.1) date 2024-11-04 21:37:07*
%MOMM*%
%LPD*%
G01*
G04 APERTURE LIST*
G04 Aperture macros list*
%AMRoundRect*
0 Rectangle with rounded corners*
0 $1 Rounding radius*
0 $2 $3 $4 $5 $6 $7 $8 $9 X,Y pos of 4 corners*
0 Add a 4 corners polygon primitive as box body*
4,1,4,$2,$3,$4,$5,$6,$7,$8,$9,$2,$3,0*
0 Add four circle primitives for the rounded corners*
1,1,$1+$1,$2,$3*
1,1,$1+$1,$4,$5*
1,1,$1+$1,$6,$7*
1,1,$1+$1,$8,$9*
0 Add four rect primitives between the rounded corners*
20,1,$1+$1,$2,$3,$4,$5,0*
20,1,$1+$1,$4,$5,$6,$7,0*
20,1,$1+$1,$6,$7,$8,$9,0*
20,1,$1+$1,$8,$9,$2,$3,0*%
G04 Aperture macros list end*
%ADD10RoundRect,0.135000X-0.185000X0.135000X-0.185000X-0.135000X0.185000X-0.135000X0.185000X0.135000X0*%
%ADD11RoundRect,0.218750X0.256250X-0.218750X0.256250X0.218750X-0.256250X0.218750X-0.256250X-0.218750X0*%
%ADD12C,4.395000*%
%ADD13RoundRect,0.102000X-0.781050X-0.781050X0.781050X-0.781050X0.781050X0.781050X-0.781050X0.781050X0*%
%ADD14C,1.766100*%
%ADD15RoundRect,0.135000X-0.135000X-0.185000X0.135000X-0.185000X0.135000X0.185000X-0.135000X0.185000X0*%
%ADD16RoundRect,0.062500X0.375000X0.062500X-0.375000X0.062500X-0.375000X-0.062500X0.375000X-0.062500X0*%
%ADD17RoundRect,0.062500X0.062500X0.375000X-0.062500X0.375000X-0.062500X-0.375000X0.062500X-0.375000X0*%
%ADD18R,2.600000X2.600000*%
%ADD19RoundRect,0.250000X0.325000X0.650000X-0.325000X0.650000X-0.325000X-0.650000X0.325000X-0.650000X0*%
%ADD20RoundRect,0.135000X0.135000X0.185000X-0.135000X0.185000X-0.135000X-0.185000X0.135000X-0.185000X0*%
%ADD21R,0.600000X1.550000*%
%ADD22R,3.100000X2.600000*%
%ADD23R,1.000000X0.750000*%
%ADD24R,1.000000X1.000000*%
%ADD25RoundRect,0.140000X-0.140000X-0.170000X0.140000X-0.170000X0.140000X0.170000X-0.140000X0.170000X0*%
%ADD26RoundRect,0.140000X0.170000X-0.140000X0.170000X0.140000X-0.170000X0.140000X-0.170000X-0.140000X0*%
%ADD27RoundRect,0.140000X0.140000X0.170000X-0.140000X0.170000X-0.140000X-0.170000X0.140000X-0.170000X0*%
%ADD28RoundRect,0.062500X-0.325000X-0.062500X0.325000X-0.062500X0.325000X0.062500X-0.325000X0.062500X0*%
%ADD29RoundRect,0.062500X-0.062500X-0.325000X0.062500X-0.325000X0.062500X0.325000X-0.062500X0.325000X0*%
%ADD30R,1.800000X1.800000*%
%ADD31R,1.400000X4.200000*%
%ADD32RoundRect,0.218750X-0.218750X-0.256250X0.218750X-0.256250X0.218750X0.256250X-0.218750X0.256250X0*%
%ADD33RoundRect,0.250000X0.550000X-1.500000X0.550000X1.500000X-0.550000X1.500000X-0.550000X-1.500000X0*%
%ADD34RoundRect,0.250000X1.330000X1.800000X-1.330000X1.800000X-1.330000X-1.800000X1.330000X-1.800000X0*%
%ADD35O,3.160000X4.100000*%
%ADD36C,5.600000*%
%ADD37RoundRect,0.135000X0.185000X-0.135000X0.185000X0.135000X-0.185000X0.135000X-0.185000X-0.135000X0*%
%ADD38RoundRect,0.112500X0.112500X-0.187500X0.112500X0.187500X-0.112500X0.187500X-0.112500X-0.187500X0*%
%ADD39C,1.574800*%
%ADD40RoundRect,0.218750X0.381250X-0.218750X0.381250X0.218750X-0.381250X0.218750X-0.381250X-0.218750X0*%
%ADD41RoundRect,0.147500X0.172500X-0.147500X0.172500X0.147500X-0.172500X0.147500X-0.172500X-0.147500X0*%
%ADD42RoundRect,0.250000X0.650000X-0.325000X0.650000X0.325000X-0.650000X0.325000X-0.650000X-0.325000X0*%
%ADD43RoundRect,0.218750X0.218750X0.381250X-0.218750X0.381250X-0.218750X-0.381250X0.218750X-0.381250X0*%
%ADD44RoundRect,0.250000X0.250000X0.475000X-0.250000X0.475000X-0.250000X-0.475000X0.250000X-0.475000X0*%
%ADD45R,4.000000X3.500000*%
%ADD46RoundRect,0.218750X0.218750X0.256250X-0.218750X0.256250X-0.218750X-0.256250X0.218750X-0.256250X0*%
%ADD47C,1.575000*%
%ADD48C,5.175000*%
%ADD49RoundRect,0.250000X-0.325000X-0.650000X0.325000X-0.650000X0.325000X0.650000X-0.325000X0.650000X0*%
%ADD50RoundRect,0.150000X-0.150000X0.825000X-0.150000X-0.825000X0.150000X-0.825000X0.150000X0.825000X0*%
%ADD51RoundRect,0.140000X-0.170000X0.140000X-0.170000X-0.140000X0.170000X-0.140000X0.170000X0.140000X0*%
%ADD52RoundRect,0.218750X-0.256250X0.218750X-0.256250X-0.218750X0.256250X-0.218750X0.256250X0.218750X0*%
%ADD53RoundRect,0.150000X0.512500X0.150000X-0.512500X0.150000X-0.512500X-0.150000X0.512500X-0.150000X0*%
%ADD54RoundRect,0.250000X-0.550000X1.500000X-0.550000X-1.500000X0.550000X-1.500000X0.550000X1.500000X0*%
%ADD55R,0.850000X0.280000*%
%ADD56R,0.280000X0.850000*%
%ADD57R,2.050000X2.050000*%
%ADD58C,1.000000*%
%ADD59R,1.700000X1.700000*%
%ADD60O,1.700000X1.700000*%
%ADD61RoundRect,0.102000X-0.373000X-0.323000X0.373000X-0.323000X0.373000X0.323000X-0.373000X0.323000X0*%
%ADD62RoundRect,0.075000X-0.725000X-0.075000X0.725000X-0.075000X0.725000X0.075000X-0.725000X0.075000X0*%
%ADD63RoundRect,0.075000X-0.075000X-0.725000X0.075000X-0.725000X0.075000X0.725000X-0.075000X0.725000X0*%
G04 APERTURE END LIST*
D10*
%TO.C,R23*%
X132359400Y-117830600D03*
X132359400Y-116810600D03*
%TD*%
D11*
%TO.C,D9*%
X132685600Y-113153100D03*
X132685600Y-114728100D03*
%TD*%
D12*
%TO.C,J4*%
X81077400Y-115697000D03*
X128118200Y-115697000D03*
D13*
X121157800Y-114274600D03*
D14*
X118397800Y-114274600D03*
X115637800Y-114274600D03*
X112877800Y-114274600D03*
X110117800Y-114274600D03*
X107357800Y-114274600D03*
X104597800Y-114274600D03*
X101837800Y-114274600D03*
X99077800Y-114274600D03*
X96317800Y-114274600D03*
X93557800Y-114274600D03*
X90797800Y-114274600D03*
X88037800Y-114274600D03*
X119777800Y-117119400D03*
X117017800Y-117119400D03*
X114257800Y-117119400D03*
X111497800Y-117119400D03*
X108737800Y-117119400D03*
X105977800Y-117119400D03*
X103217800Y-117119400D03*
X100457800Y-117119400D03*
X97697800Y-117119400D03*
X94937800Y-117119400D03*
X92177800Y-117119400D03*
X89417800Y-117119400D03*
%TD*%
D15*
%TO.C,R81*%
X160780000Y-106710200D03*
X161800000Y-106710200D03*
%TD*%
D16*
%TO.C,U9*%
X107018600Y-106903800D03*
X107018600Y-106403800D03*
X107018600Y-105903800D03*
X107018600Y-105403800D03*
D17*
X105831100Y-104216300D03*
X105331100Y-104216300D03*
X104831100Y-104216300D03*
X104331100Y-104216300D03*
D16*
X103143600Y-105403800D03*
X103143600Y-105903800D03*
X103143600Y-106403800D03*
X103143600Y-106903800D03*
D17*
X104331100Y-108091300D03*
X104831100Y-108091300D03*
X105331100Y-108091300D03*
X105831100Y-108091300D03*
D18*
X105081100Y-106153800D03*
%TD*%
D15*
%TO.C,R36*%
X172438600Y-64262000D03*
X173458600Y-64262000D03*
%TD*%
D19*
%TO.C,C2*%
X119473800Y-109089800D03*
X116523800Y-109089800D03*
%TD*%
D20*
%TO.C,R7*%
X147421600Y-100253800D03*
X146401600Y-100253800D03*
%TD*%
D15*
%TO.C,R71*%
X172438600Y-85852000D03*
X173458600Y-85852000D03*
%TD*%
%TO.C,R16*%
X93370600Y-76250800D03*
X94390600Y-76250800D03*
%TD*%
D21*
%TO.C,U1*%
X120094600Y-89257600D03*
X118824600Y-89257600D03*
X117554600Y-89257600D03*
X116284600Y-89257600D03*
X116284600Y-94657600D03*
X117554600Y-94657600D03*
X118824600Y-94657600D03*
X120094600Y-94657600D03*
D22*
X118189600Y-91957600D03*
%TD*%
D15*
%TO.C,R76*%
X149045200Y-85877400D03*
X150065200Y-85877400D03*
%TD*%
D23*
%TO.C,SW1*%
X79375000Y-64393600D03*
X85375000Y-64393600D03*
X79375000Y-68143600D03*
X85375000Y-68143600D03*
%TD*%
D10*
%TO.C,R40*%
X169773600Y-78534800D03*
X169773600Y-79554800D03*
%TD*%
%TO.C,R9*%
X134793800Y-101137600D03*
X134793800Y-102157600D03*
%TD*%
D24*
%TO.C,TP33*%
X160502600Y-60502800D03*
%TD*%
D25*
%TO.C,C75*%
X148541800Y-91236800D03*
X149501800Y-91236800D03*
%TD*%
D26*
%TO.C,C50*%
X177266600Y-66164400D03*
X177266600Y-65204400D03*
%TD*%
D15*
%TO.C,R96*%
X149045200Y-75006200D03*
X150065200Y-75006200D03*
%TD*%
D27*
%TO.C,C57*%
X92148600Y-102971600D03*
X91188600Y-102971600D03*
%TD*%
D28*
%TO.C,U12*%
X170985700Y-98774400D03*
X170985700Y-99274400D03*
X170985700Y-99774400D03*
X170985700Y-100274400D03*
D29*
X171723200Y-101011900D03*
X172223200Y-101011900D03*
X172723200Y-101011900D03*
X173223200Y-101011900D03*
D28*
X173960700Y-100274400D03*
X173960700Y-99774400D03*
X173960700Y-99274400D03*
X173960700Y-98774400D03*
D29*
X173223200Y-98036900D03*
X172723200Y-98036900D03*
X172223200Y-98036900D03*
X171723200Y-98036900D03*
D30*
X172473200Y-99524400D03*
%TD*%
D27*
%TO.C,C73*%
X173454000Y-84861400D03*
X172494000Y-84861400D03*
%TD*%
D15*
%TO.C,R54*%
X163624800Y-65151000D03*
X164644800Y-65151000D03*
%TD*%
D25*
%TO.C,C51*%
X171935200Y-80340200D03*
X172895200Y-80340200D03*
%TD*%
D28*
%TO.C,U11*%
X170985700Y-76905000D03*
X170985700Y-77405000D03*
X170985700Y-77905000D03*
X170985700Y-78405000D03*
D29*
X171723200Y-79142500D03*
X172223200Y-79142500D03*
X172723200Y-79142500D03*
X173223200Y-79142500D03*
D28*
X173960700Y-78405000D03*
X173960700Y-77905000D03*
X173960700Y-77405000D03*
X173960700Y-76905000D03*
D29*
X173223200Y-76167500D03*
X172723200Y-76167500D03*
X172223200Y-76167500D03*
X171723200Y-76167500D03*
D30*
X172473200Y-77655000D03*
%TD*%
D19*
%TO.C,C15*%
X139242400Y-105207400D03*
X136292400Y-105207400D03*
%TD*%
D10*
%TO.C,R95*%
X146380200Y-78560200D03*
X146380200Y-79580200D03*
%TD*%
D25*
%TO.C,C25*%
X142141000Y-100736200D03*
X143101000Y-100736200D03*
%TD*%
D26*
%TO.C,C74*%
X177266600Y-87754400D03*
X177266600Y-86794400D03*
%TD*%
D24*
%TO.C,TP22*%
X139217400Y-64338200D03*
%TD*%
D31*
%TO.C,L1*%
X124073600Y-94594800D03*
X127773600Y-94594800D03*
%TD*%
D20*
%TO.C,R13*%
X92159400Y-80137000D03*
X91139400Y-80137000D03*
%TD*%
D25*
%TO.C,C69*%
X148541800Y-69646800D03*
X149501800Y-69646800D03*
%TD*%
D27*
%TO.C,C88*%
X150060600Y-74015600D03*
X149100600Y-74015600D03*
%TD*%
D26*
%TO.C,C62*%
X165684200Y-66189800D03*
X165684200Y-65229800D03*
%TD*%
D15*
%TO.C,R18*%
X119735700Y-81610200D03*
X120755700Y-81610200D03*
%TD*%
D24*
%TO.C,TP13*%
X110261400Y-90850600D03*
%TD*%
D27*
%TO.C,C40*%
X91543200Y-73507600D03*
X90583200Y-73507600D03*
%TD*%
D10*
%TO.C,R80*%
X158115000Y-110264200D03*
X158115000Y-111284200D03*
%TD*%
D32*
%TO.C,D5*%
X119760900Y-80137000D03*
X121335900Y-80137000D03*
%TD*%
D15*
%TO.C,R69*%
X151813800Y-65151000D03*
X152833800Y-65151000D03*
%TD*%
D33*
%TO.C,C8*%
X127015800Y-89647800D03*
X127015800Y-84047800D03*
%TD*%
D25*
%TO.C,C24*%
X142136000Y-99650800D03*
X143096000Y-99650800D03*
%TD*%
D34*
%TO.C,J1*%
X167784000Y-116522600D03*
D35*
X163824000Y-116522600D03*
%TD*%
D27*
%TO.C,C79*%
X161795400Y-105719600D03*
X160835400Y-105719600D03*
%TD*%
D25*
%TO.C,C54*%
X171935200Y-102209600D03*
X172895200Y-102209600D03*
%TD*%
D24*
%TO.C,TP15*%
X83108800Y-86563200D03*
%TD*%
D27*
%TO.C,C64*%
X161871600Y-84886800D03*
X160911600Y-84886800D03*
%TD*%
D36*
%TO.C,H3*%
X81432400Y-58389400D03*
%TD*%
D15*
%TO.C,R10*%
X146401600Y-99118932D03*
X147421600Y-99118932D03*
%TD*%
D24*
%TO.C,TP31*%
X157861000Y-70713600D03*
%TD*%
D15*
%TO.C,R84*%
X163548600Y-107573800D03*
X164568600Y-107573800D03*
%TD*%
D27*
%TO.C,C27*%
X110441800Y-85471000D03*
X109481800Y-85471000D03*
%TD*%
D10*
%TO.C,R82*%
X163525200Y-110262200D03*
X163525200Y-111282200D03*
%TD*%
D24*
%TO.C,TP29*%
X158826200Y-62585600D03*
%TD*%
D15*
%TO.C,R26*%
X108301600Y-105765600D03*
X109321600Y-105765600D03*
%TD*%
D37*
%TO.C,R27*%
X109499400Y-108383800D03*
X109499400Y-107363800D03*
%TD*%
D24*
%TO.C,TP16*%
X144741900Y-115468400D03*
%TD*%
D38*
%TO.C,D1*%
X122012000Y-94603400D03*
X122012000Y-92503400D03*
%TD*%
D15*
%TO.C,R68*%
X151839200Y-66217800D03*
X152859200Y-66217800D03*
%TD*%
D26*
%TO.C,C71*%
X153873200Y-66189800D03*
X153873200Y-65229800D03*
%TD*%
D15*
%TO.C,R56*%
X160856200Y-85877400D03*
X161876200Y-85877400D03*
%TD*%
D39*
%TO.C,J6*%
X134518400Y-118986800D03*
X137058400Y-118986800D03*
X139598400Y-118986800D03*
X142138400Y-118986800D03*
X144678400Y-118986800D03*
X147218400Y-118986800D03*
%TD*%
D25*
%TO.C,C63*%
X160352800Y-91236800D03*
X161312800Y-91236800D03*
%TD*%
D10*
%TO.C,R90*%
X158191200Y-78560200D03*
X158191200Y-79580200D03*
%TD*%
D15*
%TO.C,R12*%
X88517000Y-65582800D03*
X89537000Y-65582800D03*
%TD*%
%TO.C,R41*%
X172438600Y-74980800D03*
X173458600Y-74980800D03*
%TD*%
D40*
%TO.C,FB1*%
X119446600Y-107104300D03*
X119446600Y-104979300D03*
%TD*%
D10*
%TO.C,R45*%
X169773600Y-100404200D03*
X169773600Y-101424200D03*
%TD*%
D15*
%TO.C,R63*%
X163650200Y-98806000D03*
X164670200Y-98806000D03*
%TD*%
D10*
%TO.C,R35*%
X169773600Y-67816000D03*
X169773600Y-68836000D03*
%TD*%
D15*
%TO.C,R14*%
X88517000Y-63398400D03*
X89537000Y-63398400D03*
%TD*%
D10*
%TO.C,R42*%
X175183800Y-78532800D03*
X175183800Y-79552800D03*
%TD*%
D24*
%TO.C,TP14*%
X83108800Y-78892400D03*
%TD*%
D27*
%TO.C,C70*%
X150060600Y-63296800D03*
X149100600Y-63296800D03*
%TD*%
D25*
%TO.C,C41*%
X90634000Y-77444600D03*
X91594000Y-77444600D03*
%TD*%
D28*
%TO.C,U15*%
X159403300Y-98799800D03*
X159403300Y-99299800D03*
X159403300Y-99799800D03*
X159403300Y-100299800D03*
D29*
X160140800Y-101037300D03*
X160640800Y-101037300D03*
X161140800Y-101037300D03*
X161640800Y-101037300D03*
D28*
X162378300Y-100299800D03*
X162378300Y-99799800D03*
X162378300Y-99299800D03*
X162378300Y-98799800D03*
D29*
X161640800Y-98062300D03*
X161140800Y-98062300D03*
X160640800Y-98062300D03*
X160140800Y-98062300D03*
D30*
X160890800Y-99549800D03*
%TD*%
D24*
%TO.C,TP5*%
X151638000Y-96062800D03*
%TD*%
D26*
%TO.C,C80*%
X165608000Y-108612600D03*
X165608000Y-107652600D03*
%TD*%
D41*
%TO.C,D6*%
X101981000Y-88272000D03*
X101981000Y-87302000D03*
%TD*%
D42*
%TO.C,C19*%
X132542800Y-82756600D03*
X132542800Y-79806600D03*
%TD*%
D41*
%TO.C,D7*%
X103124000Y-88274000D03*
X103124000Y-87304000D03*
%TD*%
D25*
%TO.C,C84*%
X160352800Y-80365600D03*
X161312800Y-80365600D03*
%TD*%
D43*
%TO.C,FB2*%
X143058600Y-108738000D03*
X140933600Y-108738000D03*
%TD*%
D10*
%TO.C,R92*%
X163601400Y-78558200D03*
X163601400Y-79578200D03*
%TD*%
D24*
%TO.C,TP23*%
X141605000Y-61925200D03*
%TD*%
D25*
%TO.C,C36*%
X93504200Y-72720200D03*
X94464200Y-72720200D03*
%TD*%
D26*
%TO.C,C31*%
X94488000Y-75156000D03*
X94488000Y-74196000D03*
%TD*%
D10*
%TO.C,R47*%
X175183800Y-100402200D03*
X175183800Y-101422200D03*
%TD*%
%TO.C,R11*%
X141066600Y-99699600D03*
X141066600Y-100719600D03*
%TD*%
D15*
%TO.C,R49*%
X175207200Y-97713800D03*
X176227200Y-97713800D03*
%TD*%
D26*
%TO.C,C89*%
X153873200Y-76908600D03*
X153873200Y-75948600D03*
%TD*%
D15*
%TO.C,R86*%
X172514800Y-106405400D03*
X173534800Y-106405400D03*
%TD*%
D44*
%TO.C,C58*%
X92618600Y-100355400D03*
X90718600Y-100355400D03*
%TD*%
D45*
%TO.C,L2*%
X137591800Y-95555000D03*
X137591800Y-86055000D03*
%TD*%
D24*
%TO.C,TP24*%
X151561800Y-57988200D03*
%TD*%
%TO.C,TP1*%
X146456400Y-96062800D03*
%TD*%
D10*
%TO.C,R85*%
X169849800Y-109959400D03*
X169849800Y-110979400D03*
%TD*%
D46*
%TO.C,D4*%
X134518500Y-57023000D03*
X132943500Y-57023000D03*
%TD*%
D10*
%TO.C,R52*%
X163601400Y-67839400D03*
X163601400Y-68859400D03*
%TD*%
D24*
%TO.C,TP32*%
X156540200Y-62585600D03*
%TD*%
D27*
%TO.C,C28*%
X98276800Y-85471000D03*
X97316800Y-85471000D03*
%TD*%
D47*
%TO.C,J20*%
X184835800Y-66362800D03*
X184835800Y-68772800D03*
X184835800Y-71182800D03*
X184835800Y-73592800D03*
X184835800Y-76002800D03*
X184835800Y-78412800D03*
X184835800Y-80822800D03*
X184835800Y-83232800D03*
X184835800Y-85642800D03*
X184835800Y-88052800D03*
X184835800Y-90462800D03*
X184835800Y-92872800D03*
X184835800Y-95282800D03*
X184835800Y-97692800D03*
X184835800Y-100102800D03*
X184835800Y-102512800D03*
X184835800Y-104922800D03*
X184835800Y-107332800D03*
X184835800Y-109742800D03*
X184835800Y-112152800D03*
X184835800Y-114562800D03*
X187375800Y-65157800D03*
X187375800Y-67567800D03*
X187375800Y-69977800D03*
X187375800Y-72387800D03*
X187375800Y-74797800D03*
X187375800Y-77207800D03*
X187375800Y-79617800D03*
X187375800Y-82027800D03*
X187375800Y-84437800D03*
X187375800Y-86847800D03*
X187375800Y-89257800D03*
X187375800Y-91667800D03*
X187375800Y-94077800D03*
X187375800Y-96487800D03*
X187375800Y-98897800D03*
X187375800Y-101307800D03*
X187375800Y-103717800D03*
X187375800Y-106127800D03*
X187375800Y-108537800D03*
X187375800Y-110947800D03*
X187375800Y-113357800D03*
X189915800Y-66362800D03*
X189915800Y-68772800D03*
X189915800Y-71182800D03*
X189915800Y-73592800D03*
X189915800Y-76002800D03*
X189915800Y-78412800D03*
X189915800Y-80822800D03*
X189915800Y-83232800D03*
X189915800Y-85642800D03*
X189915800Y-88052800D03*
X189915800Y-90462800D03*
X189915800Y-92872800D03*
X189915800Y-95282800D03*
X189915800Y-97692800D03*
X189915800Y-100102800D03*
X189915800Y-102512800D03*
X189915800Y-104922800D03*
X189915800Y-107332800D03*
X189915800Y-109742800D03*
X189915800Y-112152800D03*
D48*
X187375800Y-58109800D03*
X187375800Y-121610800D03*
%TD*%
D24*
%TO.C,TP34*%
X164185600Y-71882000D03*
%TD*%
D25*
%TO.C,C66*%
X160352800Y-102235000D03*
X161312800Y-102235000D03*
%TD*%
D49*
%TO.C,C10*%
X144682400Y-110058800D03*
X147632400Y-110058800D03*
%TD*%
D24*
%TO.C,TP19*%
X139217400Y-68046600D03*
%TD*%
D27*
%TO.C,C82*%
X173530200Y-105414800D03*
X172570200Y-105414800D03*
%TD*%
D10*
%TO.C,R21*%
X104267000Y-89533000D03*
X104267000Y-90553000D03*
%TD*%
D15*
%TO.C,R66*%
X149045200Y-64287400D03*
X150065200Y-64287400D03*
%TD*%
D25*
%TO.C,C78*%
X160276600Y-112069600D03*
X161236600Y-112069600D03*
%TD*%
D10*
%TO.C,R65*%
X146380200Y-67841400D03*
X146380200Y-68861400D03*
%TD*%
D42*
%TO.C,C21*%
X137543800Y-82782000D03*
X137543800Y-79832000D03*
%TD*%
D15*
%TO.C,R31*%
X95322200Y-105892600D03*
X96342200Y-105892600D03*
%TD*%
D28*
%TO.C,U18*%
X147592300Y-87801600D03*
X147592300Y-88301600D03*
X147592300Y-88801600D03*
X147592300Y-89301600D03*
D29*
X148329800Y-90039100D03*
X148829800Y-90039100D03*
X149329800Y-90039100D03*
X149829800Y-90039100D03*
D28*
X150567300Y-89301600D03*
X150567300Y-88801600D03*
X150567300Y-88301600D03*
X150567300Y-87801600D03*
D29*
X149829800Y-87064100D03*
X149329800Y-87064100D03*
X148829800Y-87064100D03*
X148329800Y-87064100D03*
D30*
X149079800Y-88551600D03*
%TD*%
D26*
%TO.C,C77*%
X153873200Y-87779800D03*
X153873200Y-86819800D03*
%TD*%
D50*
%TO.C,U3*%
X100595200Y-57138800D03*
X99325200Y-57138800D03*
X98055200Y-57138800D03*
X96785200Y-57138800D03*
X96785200Y-62088800D03*
X98055200Y-62088800D03*
X99325200Y-62088800D03*
X100595200Y-62088800D03*
%TD*%
D23*
%TO.C,SW2*%
X87500200Y-57027600D03*
X93500200Y-57027600D03*
X87500200Y-60777600D03*
X93500200Y-60777600D03*
%TD*%
D10*
%TO.C,R37*%
X175183800Y-67814000D03*
X175183800Y-68834000D03*
%TD*%
D15*
%TO.C,R83*%
X163574000Y-108640600D03*
X164594000Y-108640600D03*
%TD*%
D24*
%TO.C,TP7*%
X83108800Y-94250932D03*
%TD*%
D15*
%TO.C,R73*%
X175232600Y-87782400D03*
X176252600Y-87782400D03*
%TD*%
D28*
%TO.C,U8*%
X170985700Y-66186200D03*
X170985700Y-66686200D03*
X170985700Y-67186200D03*
X170985700Y-67686200D03*
D29*
X171723200Y-68423700D03*
X172223200Y-68423700D03*
X172723200Y-68423700D03*
X173223200Y-68423700D03*
D28*
X173960700Y-67686200D03*
X173960700Y-67186200D03*
X173960700Y-66686200D03*
X173960700Y-66186200D03*
D29*
X173223200Y-65448700D03*
X172723200Y-65448700D03*
X172223200Y-65448700D03*
X171723200Y-65448700D03*
D30*
X172473200Y-66936200D03*
%TD*%
D24*
%TO.C,TP28*%
X154432000Y-62585600D03*
%TD*%
D27*
%TO.C,C16*%
X138248200Y-103438666D03*
X137288200Y-103438666D03*
%TD*%
D51*
%TO.C,C35*%
X93298400Y-79098200D03*
X93298400Y-80058200D03*
%TD*%
D15*
%TO.C,R58*%
X163650200Y-87807800D03*
X164670200Y-87807800D03*
%TD*%
D28*
%TO.C,U22*%
X147592300Y-76930400D03*
X147592300Y-77430400D03*
X147592300Y-77930400D03*
X147592300Y-78430400D03*
D29*
X148329800Y-79167900D03*
X148829800Y-79167900D03*
X149329800Y-79167900D03*
X149829800Y-79167900D03*
D28*
X150567300Y-78430400D03*
X150567300Y-77930400D03*
X150567300Y-77430400D03*
X150567300Y-76930400D03*
D29*
X149829800Y-76192900D03*
X149329800Y-76192900D03*
X148829800Y-76192900D03*
X148329800Y-76192900D03*
D30*
X149079800Y-77680400D03*
%TD*%
D26*
%TO.C,C86*%
X165684200Y-76908600D03*
X165684200Y-75948600D03*
%TD*%
D10*
%TO.C,R55*%
X158191200Y-89431400D03*
X158191200Y-90451400D03*
%TD*%
D25*
%TO.C,C33*%
X137467500Y-60198000D03*
X138427500Y-60198000D03*
%TD*%
D26*
%TO.C,C34*%
X94365200Y-80058200D03*
X94365200Y-79098200D03*
%TD*%
D27*
%TO.C,C7*%
X118679400Y-96296600D03*
X117719400Y-96296600D03*
%TD*%
D42*
%TO.C,C20*%
X135043300Y-82780200D03*
X135043300Y-79830200D03*
%TD*%
D25*
%TO.C,C11*%
X144305800Y-108331600D03*
X145265800Y-108331600D03*
%TD*%
D10*
%TO.C,R57*%
X163601400Y-89429400D03*
X163601400Y-90449400D03*
%TD*%
D28*
%TO.C,U21*%
X159403300Y-76930400D03*
X159403300Y-77430400D03*
X159403300Y-77930400D03*
X159403300Y-78430400D03*
D29*
X160140800Y-79167900D03*
X160640800Y-79167900D03*
X161140800Y-79167900D03*
X161640800Y-79167900D03*
D28*
X162378300Y-78430400D03*
X162378300Y-77930400D03*
X162378300Y-77430400D03*
X162378300Y-76930400D03*
D29*
X161640800Y-76192900D03*
X161140800Y-76192900D03*
X160640800Y-76192900D03*
X160140800Y-76192900D03*
D30*
X160890800Y-77680400D03*
%TD*%
D52*
%TO.C,D2*%
X133244400Y-102438100D03*
X133244400Y-104013100D03*
%TD*%
D27*
%TO.C,C37*%
X89507000Y-64490600D03*
X88547000Y-64490600D03*
%TD*%
D10*
%TO.C,R62*%
X163601400Y-100427600D03*
X163601400Y-101447600D03*
%TD*%
D25*
%TO.C,C42*%
X165239000Y-57378600D03*
X166199000Y-57378600D03*
%TD*%
D28*
%TO.C,U19*%
X159327100Y-108634400D03*
X159327100Y-109134400D03*
X159327100Y-109634400D03*
X159327100Y-110134400D03*
D29*
X160064600Y-110871900D03*
X160564600Y-110871900D03*
X161064600Y-110871900D03*
X161564600Y-110871900D03*
D28*
X162302100Y-110134400D03*
X162302100Y-109634400D03*
X162302100Y-109134400D03*
X162302100Y-108634400D03*
D29*
X161564600Y-107896900D03*
X161064600Y-107896900D03*
X160564600Y-107896900D03*
X160064600Y-107896900D03*
D30*
X160814600Y-109384400D03*
%TD*%
D26*
%TO.C,C59*%
X177266600Y-98752600D03*
X177266600Y-97792600D03*
%TD*%
D36*
%TO.C,H2*%
X81432400Y-104825800D03*
%TD*%
D15*
%TO.C,R32*%
X163229800Y-57378600D03*
X164249800Y-57378600D03*
%TD*%
D26*
%TO.C,C83*%
X177342800Y-108307800D03*
X177342800Y-107347800D03*
%TD*%
D10*
%TO.C,R77*%
X151790400Y-89429400D03*
X151790400Y-90449400D03*
%TD*%
D24*
%TO.C,TP10*%
X83108800Y-89204800D03*
%TD*%
D20*
%TO.C,R33*%
X164247800Y-58445400D03*
X163227800Y-58445400D03*
%TD*%
D53*
%TO.C,U6*%
X138963500Y-58796000D03*
X138963500Y-57846000D03*
X138963500Y-56896000D03*
X136688500Y-56896000D03*
X136688500Y-57846000D03*
X136688500Y-58796000D03*
%TD*%
D54*
%TO.C,C9*%
X127193600Y-99541800D03*
X127193600Y-105141800D03*
%TD*%
D10*
%TO.C,R72*%
X175183800Y-89404000D03*
X175183800Y-90424000D03*
%TD*%
D27*
%TO.C,C85*%
X161871600Y-74015600D03*
X160911600Y-74015600D03*
%TD*%
D26*
%TO.C,C26*%
X102083600Y-60165200D03*
X102083600Y-59205200D03*
%TD*%
D27*
%TO.C,C52*%
X173454000Y-73990200D03*
X172494000Y-73990200D03*
%TD*%
D24*
%TO.C,TP8*%
X83108800Y-96774000D03*
%TD*%
D42*
%TO.C,C18*%
X142544800Y-82807400D03*
X142544800Y-79857400D03*
%TD*%
D15*
%TO.C,R43*%
X175232600Y-76911200D03*
X176252600Y-76911200D03*
%TD*%
%TO.C,R46*%
X172438600Y-96850200D03*
X173458600Y-96850200D03*
%TD*%
D28*
%TO.C,U20*%
X171061900Y-108329600D03*
X171061900Y-108829600D03*
X171061900Y-109329600D03*
X171061900Y-109829600D03*
D29*
X171799400Y-110567100D03*
X172299400Y-110567100D03*
X172799400Y-110567100D03*
X173299400Y-110567100D03*
D28*
X174036900Y-109829600D03*
X174036900Y-109329600D03*
X174036900Y-108829600D03*
X174036900Y-108329600D03*
D29*
X173299400Y-107592100D03*
X172799400Y-107592100D03*
X172299400Y-107592100D03*
X171799400Y-107592100D03*
D30*
X172549400Y-109079600D03*
%TD*%
D24*
%TO.C,TP9*%
X83108800Y-91727866D03*
%TD*%
D19*
%TO.C,C14*%
X139242400Y-107578866D03*
X136292400Y-107578866D03*
%TD*%
D27*
%TO.C,C56*%
X92148600Y-101942800D03*
X91188600Y-101942800D03*
%TD*%
D55*
%TO.C,U2*%
X136302600Y-101245000D03*
D56*
X137027600Y-102220000D03*
X137527600Y-102220000D03*
X138027600Y-102220000D03*
X138527600Y-102220000D03*
X139027600Y-102220000D03*
D55*
X139752600Y-101245000D03*
X139752600Y-99745000D03*
D56*
X139027600Y-98770000D03*
X138527600Y-98770000D03*
X138027600Y-98770000D03*
X137527600Y-98770000D03*
X137027600Y-98770000D03*
D55*
X136302600Y-99745000D03*
D57*
X138027600Y-100495000D03*
%TD*%
D49*
%TO.C,C12*%
X141064000Y-104156732D03*
X144014000Y-104156732D03*
%TD*%
D27*
%TO.C,C43*%
X105029000Y-101904800D03*
X104069000Y-101904800D03*
%TD*%
D37*
%TO.C,R28*%
X108331000Y-108383800D03*
X108331000Y-107363800D03*
%TD*%
D36*
%TO.C,H1*%
X175793400Y-121335800D03*
%TD*%
D15*
%TO.C,R34*%
X93978000Y-102920800D03*
X94998000Y-102920800D03*
%TD*%
D16*
%TO.C,U10*%
X94114100Y-106922000D03*
X94114100Y-106422000D03*
X94114100Y-105922000D03*
X94114100Y-105422000D03*
D17*
X92926600Y-104234500D03*
X92426600Y-104234500D03*
X91926600Y-104234500D03*
X91426600Y-104234500D03*
D16*
X90239100Y-105422000D03*
X90239100Y-105922000D03*
X90239100Y-106422000D03*
X90239100Y-106922000D03*
D17*
X91426600Y-108109500D03*
X91926600Y-108109500D03*
X92426600Y-108109500D03*
X92926600Y-108109500D03*
D18*
X92176600Y-106172000D03*
%TD*%
D27*
%TO.C,C46*%
X105026400Y-102946200D03*
X104066400Y-102946200D03*
%TD*%
D25*
%TO.C,C81*%
X172011400Y-111764800D03*
X172971400Y-111764800D03*
%TD*%
D24*
%TO.C,TP25*%
X154965400Y-57988200D03*
%TD*%
%TO.C,TP6*%
X142201900Y-114452400D03*
%TD*%
D15*
%TO.C,R79*%
X151813800Y-86741000D03*
X152833800Y-86741000D03*
%TD*%
D25*
%TO.C,C48*%
X171935200Y-69621400D03*
X172895200Y-69621400D03*
%TD*%
D10*
%TO.C,R67*%
X151790400Y-67839400D03*
X151790400Y-68859400D03*
%TD*%
%TO.C,R3*%
X116932000Y-104869400D03*
X116932000Y-105889400D03*
%TD*%
D36*
%TO.C,H4*%
X175691800Y-58445400D03*
%TD*%
D25*
%TO.C,C87*%
X148541800Y-80365600D03*
X149501800Y-80365600D03*
%TD*%
D58*
%TO.C,TP27*%
X93141800Y-64033400D03*
%TD*%
D15*
%TO.C,R89*%
X175283400Y-107269000D03*
X176303400Y-107269000D03*
%TD*%
D37*
%TO.C,R4*%
X120234000Y-85148000D03*
X120234000Y-84128000D03*
%TD*%
D42*
%TO.C,C22*%
X140044300Y-82807400D03*
X140044300Y-79857400D03*
%TD*%
D10*
%TO.C,R6*%
X133209200Y-100075900D03*
X133209200Y-101095900D03*
%TD*%
D32*
%TO.C,L3*%
X91287400Y-82032350D03*
X92862400Y-82032350D03*
%TD*%
D28*
%TO.C,U16*%
X147592300Y-66211600D03*
X147592300Y-66711600D03*
X147592300Y-67211600D03*
X147592300Y-67711600D03*
D29*
X148329800Y-68449100D03*
X148829800Y-68449100D03*
X149329800Y-68449100D03*
X149829800Y-68449100D03*
D28*
X150567300Y-67711600D03*
X150567300Y-67211600D03*
X150567300Y-66711600D03*
X150567300Y-66211600D03*
D29*
X149829800Y-65474100D03*
X149329800Y-65474100D03*
X148829800Y-65474100D03*
X148329800Y-65474100D03*
D30*
X149079800Y-66961600D03*
%TD*%
D15*
%TO.C,R61*%
X160856200Y-96875600D03*
X161876200Y-96875600D03*
%TD*%
D25*
%TO.C,C30*%
X97215200Y-66827400D03*
X98175200Y-66827400D03*
%TD*%
D28*
%TO.C,U17*%
X170985700Y-87776200D03*
X170985700Y-88276200D03*
X170985700Y-88776200D03*
X170985700Y-89276200D03*
D29*
X171723200Y-90013700D03*
X172223200Y-90013700D03*
X172723200Y-90013700D03*
X173223200Y-90013700D03*
D28*
X173960700Y-89276200D03*
X173960700Y-88776200D03*
X173960700Y-88276200D03*
X173960700Y-87776200D03*
D29*
X173223200Y-87038700D03*
X172723200Y-87038700D03*
X172223200Y-87038700D03*
X171723200Y-87038700D03*
D30*
X172473200Y-88526200D03*
%TD*%
D15*
%TO.C,R93*%
X163650200Y-76936600D03*
X164670200Y-76936600D03*
%TD*%
D25*
%TO.C,C23*%
X141026600Y-98578000D03*
X141986600Y-98578000D03*
%TD*%
D24*
%TO.C,TP30*%
X153416000Y-70713600D03*
%TD*%
D10*
%TO.C,R2*%
X121419000Y-84144600D03*
X121419000Y-85164600D03*
%TD*%
D15*
%TO.C,R39*%
X175207200Y-65125600D03*
X176227200Y-65125600D03*
%TD*%
%TO.C,R29*%
X106982800Y-102895400D03*
X108002800Y-102895400D03*
%TD*%
D24*
%TO.C,TP2*%
X137121900Y-114452400D03*
%TD*%
D25*
%TO.C,C45*%
X113083400Y-71272400D03*
X114043400Y-71272400D03*
%TD*%
D15*
%TO.C,R74*%
X175207200Y-86715600D03*
X176227200Y-86715600D03*
%TD*%
%TO.C,R38*%
X175232600Y-66192400D03*
X176252600Y-66192400D03*
%TD*%
D51*
%TO.C,C44*%
X108458000Y-85524400D03*
X108458000Y-86484400D03*
%TD*%
D15*
%TO.C,R91*%
X160856200Y-75006200D03*
X161876200Y-75006200D03*
%TD*%
D25*
%TO.C,C32*%
X109479200Y-86537800D03*
X110439200Y-86537800D03*
%TD*%
D10*
%TO.C,R50*%
X158191200Y-67841400D03*
X158191200Y-68861400D03*
%TD*%
D37*
%TO.C,R1*%
X117998800Y-105889400D03*
X117998800Y-104869400D03*
%TD*%
D59*
%TO.C,J5*%
X120777000Y-56769000D03*
D60*
X118237000Y-56769000D03*
X115697000Y-56769000D03*
X113157000Y-56769000D03*
X110617000Y-56769000D03*
X108077000Y-56769000D03*
%TD*%
D15*
%TO.C,R51*%
X160856200Y-64287400D03*
X161876200Y-64287400D03*
%TD*%
D24*
%TO.C,TP20*%
X145719800Y-57988200D03*
%TD*%
D10*
%TO.C,R97*%
X151790400Y-78558200D03*
X151790400Y-79578200D03*
%TD*%
D59*
%TO.C,J7*%
X80137000Y-73609200D03*
D60*
X80137000Y-76149200D03*
X80137000Y-78689200D03*
%TD*%
D15*
%TO.C,R64*%
X163624800Y-97739200D03*
X164644800Y-97739200D03*
%TD*%
D10*
%TO.C,R75*%
X146380200Y-89431400D03*
X146380200Y-90451400D03*
%TD*%
D59*
%TO.C,J3*%
X80137000Y-96748600D03*
D60*
X80137000Y-94208600D03*
X80137000Y-91668600D03*
X80137000Y-89128600D03*
X80137000Y-86588600D03*
X80137000Y-84048600D03*
%TD*%
D15*
%TO.C,R44*%
X175207200Y-75844400D03*
X176227200Y-75844400D03*
%TD*%
%TO.C,R59*%
X163624800Y-86741000D03*
X164644800Y-86741000D03*
%TD*%
D61*
%TO.C,Y1*%
X90402800Y-76003800D03*
X91852800Y-76003800D03*
X91852800Y-74853800D03*
X90402800Y-74853800D03*
%TD*%
D27*
%TO.C,C76*%
X150060600Y-84886800D03*
X149100600Y-84886800D03*
%TD*%
D51*
%TO.C,C29*%
X113110400Y-69319200D03*
X113110400Y-70279200D03*
%TD*%
D24*
%TO.C,TP35*%
X161163000Y-71882000D03*
%TD*%
D26*
%TO.C,C53*%
X177266600Y-76883200D03*
X177266600Y-75923200D03*
%TD*%
D19*
%TO.C,C4*%
X119499200Y-102937332D03*
X116549200Y-102937332D03*
%TD*%
D24*
%TO.C,TP21*%
X148285200Y-57988200D03*
%TD*%
D25*
%TO.C,C1*%
X121659000Y-90170000D03*
X122619000Y-90170000D03*
%TD*%
D58*
%TO.C,TP26*%
X93141800Y-67843400D03*
%TD*%
D15*
%TO.C,R53*%
X163650200Y-66217800D03*
X164670200Y-66217800D03*
%TD*%
%TO.C,R15*%
X130619000Y-58547000D03*
X131639000Y-58547000D03*
%TD*%
%TO.C,R94*%
X163624800Y-75869800D03*
X164644800Y-75869800D03*
%TD*%
D24*
%TO.C,TP17*%
X83108800Y-76149200D03*
%TD*%
D15*
%TO.C,R99*%
X151813800Y-75869800D03*
X152833800Y-75869800D03*
%TD*%
D24*
%TO.C,TP11*%
X83108800Y-73406000D03*
%TD*%
%TO.C,TP12*%
X110261400Y-96012000D03*
%TD*%
D10*
%TO.C,R20*%
X103124000Y-89535000D03*
X103124000Y-90555000D03*
%TD*%
D24*
%TO.C,TP4*%
X139661900Y-115468400D03*
%TD*%
D26*
%TO.C,C65*%
X165684200Y-87779800D03*
X165684200Y-86819800D03*
%TD*%
D62*
%TO.C,U5*%
X96139000Y-70200000D03*
X96139000Y-70700000D03*
X96139000Y-71200000D03*
X96139000Y-71700000D03*
X96139000Y-72200000D03*
X96139000Y-72700000D03*
X96139000Y-73200000D03*
X96139000Y-73700000D03*
X96139000Y-74200000D03*
X96139000Y-74700000D03*
X96139000Y-75200000D03*
X96139000Y-75700000D03*
X96139000Y-76200000D03*
X96139000Y-76700000D03*
X96139000Y-77200000D03*
X96139000Y-77700000D03*
X96139000Y-78200000D03*
X96139000Y-78700000D03*
X96139000Y-79200000D03*
X96139000Y-79700000D03*
X96139000Y-80200000D03*
X96139000Y-80700000D03*
X96139000Y-81200000D03*
X96139000Y-81700000D03*
X96139000Y-82200000D03*
D63*
X97814000Y-83875000D03*
X98314000Y-83875000D03*
X98814000Y-83875000D03*
X99314000Y-83875000D03*
X99814000Y-83875000D03*
X100314000Y-83875000D03*
X100814000Y-83875000D03*
X101314000Y-83875000D03*
X101814000Y-83875000D03*
X102314000Y-83875000D03*
X102814000Y-83875000D03*
X103314000Y-83875000D03*
X103814000Y-83875000D03*
X104314000Y-83875000D03*
X104814000Y-83875000D03*
X105314000Y-83875000D03*
X105814000Y-83875000D03*
X106314000Y-83875000D03*
X106814000Y-83875000D03*
X107314000Y-83875000D03*
X107814000Y-83875000D03*
X108314000Y-83875000D03*
X108814000Y-83875000D03*
X109314000Y-83875000D03*
X109814000Y-83875000D03*
D62*
X111489000Y-82200000D03*
X111489000Y-81700000D03*
X111489000Y-81200000D03*
X111489000Y-80700000D03*
X111489000Y-80200000D03*
X111489000Y-79700000D03*
X111489000Y-79200000D03*
X111489000Y-78700000D03*
X111489000Y-78200000D03*
X111489000Y-77700000D03*
X111489000Y-77200000D03*
X111489000Y-76700000D03*
X111489000Y-76200000D03*
X111489000Y-75700000D03*
X111489000Y-75200000D03*
X111489000Y-74700000D03*
X111489000Y-74200000D03*
X111489000Y-73700000D03*
X111489000Y-73200000D03*
X111489000Y-72700000D03*
X111489000Y-72200000D03*
X111489000Y-71700000D03*
X111489000Y-71200000D03*
X111489000Y-70700000D03*
X111489000Y-70200000D03*
D63*
X109814000Y-68525000D03*
X109314000Y-68525000D03*
X108814000Y-68525000D03*
X108314000Y-68525000D03*
X107814000Y-68525000D03*
X107314000Y-68525000D03*
X106814000Y-68525000D03*
X106314000Y-68525000D03*
X105814000Y-68525000D03*
X105314000Y-68525000D03*
X104814000Y-68525000D03*
X104314000Y-68525000D03*
X103814000Y-68525000D03*
X103314000Y-68525000D03*
X102814000Y-68525000D03*
X102314000Y-68525000D03*
X101814000Y-68525000D03*
X101314000Y-68525000D03*
X100814000Y-68525000D03*
X100314000Y-68525000D03*
X99814000Y-68525000D03*
X99314000Y-68525000D03*
X98814000Y-68525000D03*
X98314000Y-68525000D03*
X97814000Y-68525000D03*
%TD*%
D15*
%TO.C,R48*%
X175232600Y-98780600D03*
X176252600Y-98780600D03*
%TD*%
D24*
%TO.C,TP18*%
X145084800Y-61925200D03*
%TD*%
D15*
%TO.C,R98*%
X151839200Y-76936600D03*
X152859200Y-76936600D03*
%TD*%
%TO.C,R88*%
X175308800Y-108335800D03*
X176328800Y-108335800D03*
%TD*%
D25*
%TO.C,C60*%
X160352800Y-69646800D03*
X161312800Y-69646800D03*
%TD*%
D44*
%TO.C,C47*%
X105496400Y-100355400D03*
X103596400Y-100355400D03*
%TD*%
D10*
%TO.C,R19*%
X101981000Y-89533000D03*
X101981000Y-90553000D03*
%TD*%
D24*
%TO.C,TP3*%
X134581900Y-115214400D03*
%TD*%
D19*
%TO.C,C5*%
X119499200Y-100493266D03*
X116549200Y-100493266D03*
%TD*%
D25*
%TO.C,C72*%
X171935200Y-91211400D03*
X172895200Y-91211400D03*
%TD*%
D49*
%TO.C,C13*%
X141064000Y-106528200D03*
X144014000Y-106528200D03*
%TD*%
D10*
%TO.C,R60*%
X158191200Y-100429600D03*
X158191200Y-101449600D03*
%TD*%
D34*
%TO.C,J2*%
X157198200Y-116522600D03*
D35*
X153238200Y-116522600D03*
%TD*%
D19*
%TO.C,C6*%
X119499200Y-98049200D03*
X116549200Y-98049200D03*
%TD*%
D15*
%TO.C,R17*%
X130619000Y-57277000D03*
X131639000Y-57277000D03*
%TD*%
D20*
%TO.C,R8*%
X151612600Y-99102167D03*
X150592600Y-99102167D03*
%TD*%
D27*
%TO.C,C55*%
X173454000Y-95859600D03*
X172494000Y-95859600D03*
%TD*%
%TO.C,C61*%
X161871600Y-63296800D03*
X160911600Y-63296800D03*
%TD*%
D10*
%TO.C,R22*%
X95656400Y-83386200D03*
X95656400Y-84406200D03*
%TD*%
D26*
%TO.C,C68*%
X165684200Y-98778000D03*
X165684200Y-97818000D03*
%TD*%
D15*
%TO.C,R5*%
X150592600Y-100237033D03*
X151612600Y-100237033D03*
%TD*%
D26*
%TO.C,C17*%
X134926600Y-99261200D03*
X134926600Y-98301200D03*
%TD*%
D10*
%TO.C,R87*%
X175260000Y-109957400D03*
X175260000Y-110977400D03*
%TD*%
D15*
%TO.C,R78*%
X151839200Y-87807800D03*
X152859200Y-87807800D03*
%TD*%
D41*
%TO.C,D8*%
X104267000Y-88270000D03*
X104267000Y-87300000D03*
%TD*%
D27*
%TO.C,C3*%
X117970800Y-107134000D03*
X117010800Y-107134000D03*
%TD*%
D10*
%TO.C,R70*%
X169773600Y-89406000D03*
X169773600Y-90426000D03*
%TD*%
D27*
%TO.C,C49*%
X173454000Y-63271400D03*
X172494000Y-63271400D03*
%TD*%
D28*
%TO.C,U13*%
X159403300Y-66211600D03*
X159403300Y-66711600D03*
X159403300Y-67211600D03*
X159403300Y-67711600D03*
D29*
X160140800Y-68449100D03*
X160640800Y-68449100D03*
X161140800Y-68449100D03*
X161640800Y-68449100D03*
D28*
X162378300Y-67711600D03*
X162378300Y-67211600D03*
X162378300Y-66711600D03*
X162378300Y-66211600D03*
D29*
X161640800Y-65474100D03*
X161140800Y-65474100D03*
X160640800Y-65474100D03*
X160140800Y-65474100D03*
D30*
X160890800Y-66961600D03*
%TD*%
D27*
%TO.C,C67*%
X161871600Y-95885000D03*
X160911600Y-95885000D03*
%TD*%
D28*
%TO.C,U14*%
X159403300Y-87801600D03*
X159403300Y-88301600D03*
X159403300Y-88801600D03*
X159403300Y-89301600D03*
D29*
X160140800Y-90039100D03*
X160640800Y-90039100D03*
X161140800Y-90039100D03*
X161640800Y-90039100D03*
D28*
X162378300Y-89301600D03*
X162378300Y-88801600D03*
X162378300Y-88301600D03*
X162378300Y-87801600D03*
D29*
X161640800Y-87064100D03*
X161140800Y-87064100D03*
X160640800Y-87064100D03*
X160140800Y-87064100D03*
D30*
X160890800Y-88551600D03*
%TD*%
D46*
%TO.C,D3*%
X134518500Y-58801000D03*
X132943500Y-58801000D03*
%TD*%
M02*
